<?xml version="1.0" encoding="utf-8" standalone="no"?>
<!DOCTYPE svg PUBLIC "-//W3C//DTD SVG 1.1//EN"
  "http://www.w3.org/Graphics/SVG/1.1/DTD/svg11.dtd">
<!-- Created with matplotlib (https://matplotlib.org/) -->
<svg height="345.6pt" version="1.1" viewBox="0 0 460.8 345.6" width="460.8pt" xmlns="http://www.w3.org/2000/svg" xmlns:xlink="http://www.w3.org/1999/xlink">
 <metadata>
  <rdf:RDF xmlns:cc="http://creativecommons.org/ns#" xmlns:dc="http://purl.org/dc/elements/1.1/" xmlns:rdf="http://www.w3.org/1999/02/22-rdf-syntax-ns#">
   <cc:Work>
    <dc:type rdf:resource="http://purl.org/dc/dcmitype/StillImage"/>
    <dc:date>2023-03-01T10:10:57.719265</dc:date>
    <dc:format>image/svg+xml</dc:format>
    <dc:creator>
     <cc:Agent>
      <dc:title>Matplotlib v3.3.4, https://matplotlib.org/</dc:title>
     </cc:Agent>
    </dc:creator>
   </cc:Work>
  </rdf:RDF>
 </metadata>
 <defs>
  <style type="text/css">*{stroke-linecap:butt;stroke-linejoin:round;}</style>
 </defs>
 <g id="figure_1">
  <g id="patch_1">
   <path d="M 0 345.6 
L 460.8 345.6 
L 460.8 0 
L 0 0 
z
" style="fill:#ffffff;"/>
  </g>
  <g id="axes_1">
   <g id="patch_2">
    <path d="M 57.6 307.584 
L 414.72 307.584 
L 414.72 41.472 
L 57.6 41.472 
z
" style="fill:#ffffff;"/>
   </g>
   <g id="PolyCollection_1">
    <path clip-path="url(#pfcdb4015aa)" d="M 73.832727 210.768433 
L 73.832727 277.932603 
L 77.112066 247.185554 
L 80.391405 224.822677 
L 83.670744 203.342463 
L 86.950083 187.784774 
L 90.229421 175.892212 
L 93.50876 165.703785 
L 96.788099 157.141899 
L 100.067438 149.018374 
L 103.346777 143.165829 
L 106.626116 137.201823 
L 109.905455 131.742203 
L 113.184793 128.346914 
L 116.464132 124.139208 
L 119.743471 120.384855 
L 123.02281 117.027432 
L 126.302149 115.071465 
L 129.581488 111.922297 
L 132.860826 110.439572 
L 136.140165 107.927271 
L 139.419504 105.777516 
L 142.698843 104.141823 
L 145.978182 102.798691 
L 149.257521 101.478422 
L 152.53686 99.781815 
L 155.816198 97.848942 
L 159.095537 96.720601 
L 162.374876 95.06517 
L 165.654215 94.124964 
L 168.933554 92.998958 
L 172.212893 91.920075 
L 175.492231 90.877259 
L 178.77157 90.072926 
L 182.050909 89.201569 
L 185.330248 88.307826 
L 188.609587 88.148777 
L 191.888926 86.87321 
L 195.168264 85.723622 
L 198.447603 85.102251 
L 201.726942 84.367981 
L 205.006281 83.989264 
L 208.28562 83.581782 
L 211.564959 82.477454 
L 214.844298 81.554842 
L 218.123636 81.019309 
L 221.402975 80.019005 
L 224.682314 79.880064 
L 227.961653 79.291561 
L 231.240992 78.846246 
L 234.520331 77.974717 
L 237.799669 77.742686 
L 241.079008 77.332353 
L 244.358347 77.204427 
L 247.637686 76.709423 
L 250.917025 76.067425 
L 254.196364 75.726624 
L 257.475702 74.897623 
L 260.755041 74.45611 
L 264.03438 74.17524 
L 267.313719 73.900346 
L 270.593058 73.461669 
L 273.872397 73.459949 
L 277.151736 73.193294 
L 280.431074 72.900906 
L 283.710413 72.484511 
L 286.989752 72.359647 
L 290.269091 71.820038 
L 293.54843 71.663233 
L 296.827769 71.658324 
L 300.107107 71.581478 
L 303.386446 71.636835 
L 306.665785 71.455669 
L 309.945124 71.342697 
L 313.224463 70.853459 
L 316.503802 70.74251 
L 319.78314 70.361265 
L 323.062479 70.267274 
L 326.341818 70.27882 
L 329.621157 70.168771 
L 332.900496 69.826611 
L 336.179835 69.319218 
L 339.459174 69.03156 
L 342.738512 68.941153 
L 346.017851 68.714079 
L 349.29719 68.424615 
L 352.576529 67.806984 
L 355.855868 67.562122 
L 359.135207 67.242928 
L 362.414545 67.233827 
L 365.693884 67.22042 
L 368.973223 67.174146 
L 372.252562 66.139691 
L 375.531901 66.089143 
L 378.81124 65.861809 
L 382.090579 65.8251 
L 385.369917 65.607185 
L 388.649256 65.607185 
L 391.928595 65.408277 
L 395.207934 65.562927 
L 398.487273 65.399394 
L 398.487273 61.499132 
L 398.487273 61.499132 
L 395.207934 61.61348 
L 391.928595 61.907072 
L 388.649256 62.263928 
L 385.369917 62.263928 
L 382.090579 62.323895 
L 378.81124 62.565068 
L 375.531901 62.754558 
L 372.252562 62.84295 
L 368.973223 63.197906 
L 365.693884 63.290573 
L 362.414545 63.416107 
L 359.135207 63.545947 
L 355.855868 63.782517 
L 352.576529 64.510243 
L 349.29719 64.448376 
L 346.017851 64.853617 
L 342.738512 65.043367 
L 339.459174 65.091901 
L 336.179835 65.360007 
L 332.900496 65.68626 
L 329.621157 65.899865 
L 326.341818 66.206638 
L 323.062479 66.357126 
L 319.78314 66.541017 
L 316.503802 66.576595 
L 313.224463 66.743528 
L 309.945124 66.948995 
L 306.665785 67.252846 
L 303.386446 67.766385 
L 300.107107 68.099625 
L 296.827769 68.300661 
L 293.54843 68.712575 
L 290.269091 68.972593 
L 286.989752 69.683454 
L 283.710413 70.114354 
L 280.431074 70.253723 
L 277.151736 70.5171 
L 273.872397 70.667268 
L 270.593058 71.221312 
L 267.313719 71.338399 
L 264.03438 71.341387 
L 260.755041 71.894164 
L 257.475702 71.869473 
L 254.196364 72.429883 
L 250.917025 73.06167 
L 247.637686 73.948024 
L 244.358347 74.147724 
L 241.079008 74.714503 
L 237.799669 75.55464 
L 234.520331 75.600491 
L 231.240992 75.840491 
L 227.961653 76.089881 
L 224.682314 76.335024 
L 221.402975 76.473966 
L 218.123636 77.002014 
L 214.844298 77.716949 
L 211.564959 78.183748 
L 208.28562 78.746713 
L 205.006281 79.450759 
L 201.726942 80.183571 
L 198.447603 80.69977 
L 195.168264 81.050987 
L 191.888926 81.012927 
L 188.609587 81.543594 
L 185.330248 82.635014 
L 182.050909 83.547505 
L 178.77157 84.482382 
L 175.492231 84.511696 
L 172.212893 85.552996 
L 168.933554 86.141404 
L 165.654215 86.821632 
L 162.374876 87.270837 
L 159.095537 88.116345 
L 155.816198 90.044708 
L 152.53686 90.751715 
L 149.257521 91.556046 
L 145.978182 93.153539 
L 142.698843 93.477701 
L 139.419504 95.732357 
L 136.140165 97.611892 
L 132.860826 99.128882 
L 129.581488 100.841802 
L 126.302149 102.138747 
L 123.02281 104.351012 
L 119.743471 106.690172 
L 116.464132 110.021813 
L 113.184793 112.483277 
L 109.905455 116.173983 
L 106.626116 120.718119 
L 103.346777 125.035751 
L 100.067438 130.854255 
L 96.788099 136.069071 
L 93.50876 141.957055 
L 90.229421 150.52567 
L 86.950083 157.806974 
L 83.670744 165.591383 
L 80.391405 177.457021 
L 77.112066 188.578939 
L 73.832727 210.768433 
z
" style="fill:#1f77b4;fill-opacity:0.5;"/>
   </g>
   <g id="PolyCollection_2">
    <path clip-path="url(#pfcdb4015aa)" d="M 73.832727 240.314054 
L 73.832727 295.488 
L 77.112066 274.946371 
L 80.391405 250.024478 
L 83.670744 225.013502 
L 86.950083 205.105147 
L 90.229421 187.098723 
L 93.50876 172.504091 
L 96.788099 158.812105 
L 100.067438 147.497175 
L 103.346777 136.366021 
L 106.626116 127.332284 
L 109.905455 120.059049 
L 113.184793 116.849487 
L 116.464132 111.551529 
L 119.743471 107.08793 
L 123.02281 102.657165 
L 126.302149 100.045615 
L 129.581488 97.704461 
L 132.860826 95.633537 
L 136.140165 93.949192 
L 139.419504 92.248421 
L 142.698843 91.377777 
L 145.978182 89.515476 
L 149.257521 88.266953 
L 152.53686 86.829178 
L 155.816198 85.784516 
L 159.095537 84.880755 
L 162.374876 83.789208 
L 165.654215 82.517083 
L 168.933554 80.651101 
L 172.212893 79.617367 
L 175.492231 77.786538 
L 178.77157 76.91572 
L 182.050909 75.692919 
L 185.330248 74.780315 
L 188.609587 73.682616 
L 191.888926 73.472242 
L 195.168264 71.807331 
L 198.447603 71.672453 
L 201.726942 70.42284 
L 205.006281 69.898408 
L 208.28562 69.567296 
L 211.564959 69.262971 
L 214.844298 68.829067 
L 218.123636 68.304469 
L 221.402975 67.915722 
L 224.682314 67.065813 
L 227.961653 66.540463 
L 231.240992 66.222735 
L 234.520331 65.690539 
L 237.799669 65.90408 
L 241.079008 66.032052 
L 244.358347 65.52803 
L 247.637686 65.233467 
L 250.917025 65.177998 
L 254.196364 64.728823 
L 257.475702 64.728823 
L 260.755041 64.57901 
L 264.03438 64.153339 
L 267.313719 63.898555 
L 270.593058 63.575027 
L 273.872397 63.467482 
L 277.151736 63.174852 
L 280.431074 62.537683 
L 283.710413 62.424981 
L 286.989752 62.116748 
L 290.269091 62.033 
L 293.54843 61.867891 
L 296.827769 61.536793 
L 300.107107 61.430272 
L 303.386446 61.25891 
L 306.665785 60.68267 
L 309.945124 60.312642 
L 313.224463 60.253619 
L 316.503802 59.849616 
L 319.78314 59.849616 
L 323.062479 59.676351 
L 326.341818 59.553561 
L 329.621157 59.338887 
L 332.900496 59.066407 
L 336.179835 59.008105 
L 339.459174 58.771881 
L 342.738512 58.596982 
L 346.017851 58.494856 
L 349.29719 58.418865 
L 352.576529 58.36172 
L 355.855868 58.320386 
L 359.135207 57.798367 
L 362.414545 57.616756 
L 365.693884 57.548792 
L 368.973223 57.548604 
L 372.252562 57.548604 
L 375.531901 57.398366 
L 378.81124 57.398366 
L 382.090579 57.351818 
L 385.369917 56.907414 
L 388.649256 56.934065 
L 391.928595 56.883928 
L 395.207934 56.478866 
L 398.487273 56.518658 
L 398.487273 53.568 
L 398.487273 53.568 
L 395.207934 53.607791 
L 391.928595 53.619553 
L 388.649256 53.708357 
L 385.369917 53.596067 
L 382.090579 53.707428 
L 378.81124 53.938762 
L 375.531901 53.938762 
L 372.252562 54.205346 
L 368.973223 54.205346 
L 365.693884 54.344099 
L 362.414545 54.415077 
L 359.135207 54.372407 
L 355.855868 54.267211 
L 352.576529 54.503759 
L 349.29719 54.724496 
L 346.017851 54.787446 
L 342.738512 54.963202 
L 339.459174 55.205126 
L 336.179835 55.107844 
L 332.900496 55.188483 
L 329.621157 55.610708 
L 326.341818 55.951798 
L 323.062479 56.10689 
L 319.78314 56.072566 
L 316.503802 56.072566 
L 313.224463 56.085387 
L 309.945124 56.165304 
L 306.665785 55.934218 
L 303.386446 55.913741 
L 300.107107 55.881321 
L 296.827769 56.191623 
L 293.54843 56.277348 
L 290.269091 56.668004 
L 286.989752 57.14002 
L 283.710413 57.24861 
L 280.431074 57.41379 
L 277.151736 57.610267 
L 273.872397 58.151284 
L 270.593058 58.460562 
L 267.313719 59.109621 
L 264.03438 58.993778 
L 260.755041 59.262812 
L 257.475702 59.390882 
L 254.196364 59.390882 
L 250.917025 59.775353 
L 247.637686 59.997766 
L 244.358347 60.120027 
L 241.079008 60.171769 
L 237.799669 60.299741 
L 234.520331 60.374341 
L 231.240992 60.814732 
L 227.961653 61.469591 
L 224.682314 62.333651 
L 221.402975 63.151036 
L 218.123636 63.318053 
L 214.844298 63.904983 
L 211.564959 64.86049 
L 208.28562 65.389811 
L 205.006281 66.170228 
L 201.726942 66.757324 
L 198.447603 66.75818 
L 195.168264 67.318008 
L 191.888926 68.431917 
L 188.609587 69.333073 
L 185.330248 70.180548 
L 182.050909 70.518414 
L 178.77157 70.685023 
L 175.492231 71.898321 
L 172.212893 73.124195 
L 168.933554 75.286105 
L 165.654215 76.615767 
L 162.374876 77.010935 
L 159.095537 77.586681 
L 155.816198 78.211272 
L 152.53686 79.389666 
L 149.257521 80.452831 
L 145.978182 81.983128 
L 142.698843 84.289059 
L 139.419504 85.919355 
L 136.140165 87.831051 
L 132.860826 89.898115 
L 129.581488 92.273305 
L 126.302149 95.767674 
L 123.02281 98.991649 
L 119.743471 102.758406 
L 116.464132 105.797624 
L 113.184793 108.975071 
L 109.905455 112.851503 
L 106.626116 117.666139 
L 103.346777 122.248625 
L 100.067438 127.234634 
L 96.788099 135.649335 
L 93.50876 141.96486 
L 90.229421 151.26809 
L 86.950083 163.689757 
L 83.670744 175.598905 
L 80.391405 190.741893 
L 77.112066 210.281138 
L 73.832727 240.314054 
z
" style="fill:#ff7f0e;fill-opacity:0.5;"/>
   </g>
   <g id="matplotlib.axis_1">
    <g id="xtick_1">
     <g id="line2d_1">
      <path clip-path="url(#pfcdb4015aa)" d="M 73.832727 307.584 
L 73.832727 41.472 
" style="fill:none;stroke:#b0b0b0;stroke-linecap:square;stroke-width:0.8;"/>
     </g>
     <g id="line2d_2">
      <defs>
       <path d="M 0 0 
L 0 3.5 
" id="mc8f92f02cd" style="stroke:#000000;stroke-width:0.8;"/>
      </defs>
      <g>
       <use style="stroke:#000000;stroke-width:0.8;" x="73.832727" xlink:href="#mc8f92f02cd" y="307.584"/>
      </g>
     </g>
     <g id="text_1">
      <!-- 0 -->
      <g transform="translate(70.651477 322.182437)scale(0.1 -0.1)">
       <defs>
        <path d="M 31.78125 66.40625 
Q 24.171875 66.40625 20.328125 58.90625 
Q 16.5 51.421875 16.5 36.375 
Q 16.5 21.390625 20.328125 13.890625 
Q 24.171875 6.390625 31.78125 6.390625 
Q 39.453125 6.390625 43.28125 13.890625 
Q 47.125 21.390625 47.125 36.375 
Q 47.125 51.421875 43.28125 58.90625 
Q 39.453125 66.40625 31.78125 66.40625 
z
M 31.78125 74.21875 
Q 44.046875 74.21875 50.515625 64.515625 
Q 56.984375 54.828125 56.984375 36.375 
Q 56.984375 17.96875 50.515625 8.265625 
Q 44.046875 -1.421875 31.78125 -1.421875 
Q 19.53125 -1.421875 13.0625 8.265625 
Q 6.59375 17.96875 6.59375 36.375 
Q 6.59375 54.828125 13.0625 64.515625 
Q 19.53125 74.21875 31.78125 74.21875 
z
" id="DejaVuSans-48"/>
       </defs>
       <use xlink:href="#DejaVuSans-48"/>
      </g>
     </g>
    </g>
    <g id="xtick_2">
     <g id="line2d_3">
      <path clip-path="url(#pfcdb4015aa)" d="M 139.419504 307.584 
L 139.419504 41.472 
" style="fill:none;stroke:#b0b0b0;stroke-linecap:square;stroke-width:0.8;"/>
     </g>
     <g id="line2d_4">
      <g>
       <use style="stroke:#000000;stroke-width:0.8;" x="139.419504" xlink:href="#mc8f92f02cd" y="307.584"/>
      </g>
     </g>
     <g id="text_2">
      <!-- 20 -->
      <g transform="translate(133.057004 322.182437)scale(0.1 -0.1)">
       <defs>
        <path d="M 19.1875 8.296875 
L 53.609375 8.296875 
L 53.609375 0 
L 7.328125 0 
L 7.328125 8.296875 
Q 12.9375 14.109375 22.625 23.890625 
Q 32.328125 33.6875 34.8125 36.53125 
Q 39.546875 41.84375 41.421875 45.53125 
Q 43.3125 49.21875 43.3125 52.78125 
Q 43.3125 58.59375 39.234375 62.25 
Q 35.15625 65.921875 28.609375 65.921875 
Q 23.96875 65.921875 18.8125 64.3125 
Q 13.671875 62.703125 7.8125 59.421875 
L 7.8125 69.390625 
Q 13.765625 71.78125 18.9375 73 
Q 24.125 74.21875 28.421875 74.21875 
Q 39.75 74.21875 46.484375 68.546875 
Q 53.21875 62.890625 53.21875 53.421875 
Q 53.21875 48.921875 51.53125 44.890625 
Q 49.859375 40.875 45.40625 35.40625 
Q 44.1875 33.984375 37.640625 27.21875 
Q 31.109375 20.453125 19.1875 8.296875 
z
" id="DejaVuSans-50"/>
       </defs>
       <use xlink:href="#DejaVuSans-50"/>
       <use x="63.623047" xlink:href="#DejaVuSans-48"/>
      </g>
     </g>
    </g>
    <g id="xtick_3">
     <g id="line2d_5">
      <path clip-path="url(#pfcdb4015aa)" d="M 205.006281 307.584 
L 205.006281 41.472 
" style="fill:none;stroke:#b0b0b0;stroke-linecap:square;stroke-width:0.8;"/>
     </g>
     <g id="line2d_6">
      <g>
       <use style="stroke:#000000;stroke-width:0.8;" x="205.006281" xlink:href="#mc8f92f02cd" y="307.584"/>
      </g>
     </g>
     <g id="text_3">
      <!-- 40 -->
      <g transform="translate(198.643781 322.182437)scale(0.1 -0.1)">
       <defs>
        <path d="M 37.796875 64.3125 
L 12.890625 25.390625 
L 37.796875 25.390625 
z
M 35.203125 72.90625 
L 47.609375 72.90625 
L 47.609375 25.390625 
L 58.015625 25.390625 
L 58.015625 17.1875 
L 47.609375 17.1875 
L 47.609375 0 
L 37.796875 0 
L 37.796875 17.1875 
L 4.890625 17.1875 
L 4.890625 26.703125 
z
" id="DejaVuSans-52"/>
       </defs>
       <use xlink:href="#DejaVuSans-52"/>
       <use x="63.623047" xlink:href="#DejaVuSans-48"/>
      </g>
     </g>
    </g>
    <g id="xtick_4">
     <g id="line2d_7">
      <path clip-path="url(#pfcdb4015aa)" d="M 270.593058 307.584 
L 270.593058 41.472 
" style="fill:none;stroke:#b0b0b0;stroke-linecap:square;stroke-width:0.8;"/>
     </g>
     <g id="line2d_8">
      <g>
       <use style="stroke:#000000;stroke-width:0.8;" x="270.593058" xlink:href="#mc8f92f02cd" y="307.584"/>
      </g>
     </g>
     <g id="text_4">
      <!-- 60 -->
      <g transform="translate(264.230558 322.182437)scale(0.1 -0.1)">
       <defs>
        <path d="M 33.015625 40.375 
Q 26.375 40.375 22.484375 35.828125 
Q 18.609375 31.296875 18.609375 23.390625 
Q 18.609375 15.53125 22.484375 10.953125 
Q 26.375 6.390625 33.015625 6.390625 
Q 39.65625 6.390625 43.53125 10.953125 
Q 47.40625 15.53125 47.40625 23.390625 
Q 47.40625 31.296875 43.53125 35.828125 
Q 39.65625 40.375 33.015625 40.375 
z
M 52.59375 71.296875 
L 52.59375 62.3125 
Q 48.875 64.0625 45.09375 64.984375 
Q 41.3125 65.921875 37.59375 65.921875 
Q 27.828125 65.921875 22.671875 59.328125 
Q 17.53125 52.734375 16.796875 39.40625 
Q 19.671875 43.65625 24.015625 45.921875 
Q 28.375 48.1875 33.59375 48.1875 
Q 44.578125 48.1875 50.953125 41.515625 
Q 57.328125 34.859375 57.328125 23.390625 
Q 57.328125 12.15625 50.6875 5.359375 
Q 44.046875 -1.421875 33.015625 -1.421875 
Q 20.359375 -1.421875 13.671875 8.265625 
Q 6.984375 17.96875 6.984375 36.375 
Q 6.984375 53.65625 15.1875 63.9375 
Q 23.390625 74.21875 37.203125 74.21875 
Q 40.921875 74.21875 44.703125 73.484375 
Q 48.484375 72.75 52.59375 71.296875 
z
" id="DejaVuSans-54"/>
       </defs>
       <use xlink:href="#DejaVuSans-54"/>
       <use x="63.623047" xlink:href="#DejaVuSans-48"/>
      </g>
     </g>
    </g>
    <g id="xtick_5">
     <g id="line2d_9">
      <path clip-path="url(#pfcdb4015aa)" d="M 336.179835 307.584 
L 336.179835 41.472 
" style="fill:none;stroke:#b0b0b0;stroke-linecap:square;stroke-width:0.8;"/>
     </g>
     <g id="line2d_10">
      <g>
       <use style="stroke:#000000;stroke-width:0.8;" x="336.179835" xlink:href="#mc8f92f02cd" y="307.584"/>
      </g>
     </g>
     <g id="text_5">
      <!-- 80 -->
      <g transform="translate(329.817335 322.182437)scale(0.1 -0.1)">
       <defs>
        <path d="M 31.78125 34.625 
Q 24.75 34.625 20.71875 30.859375 
Q 16.703125 27.09375 16.703125 20.515625 
Q 16.703125 13.921875 20.71875 10.15625 
Q 24.75 6.390625 31.78125 6.390625 
Q 38.8125 6.390625 42.859375 10.171875 
Q 46.921875 13.96875 46.921875 20.515625 
Q 46.921875 27.09375 42.890625 30.859375 
Q 38.875 34.625 31.78125 34.625 
z
M 21.921875 38.8125 
Q 15.578125 40.375 12.03125 44.71875 
Q 8.5 49.078125 8.5 55.328125 
Q 8.5 64.0625 14.71875 69.140625 
Q 20.953125 74.21875 31.78125 74.21875 
Q 42.671875 74.21875 48.875 69.140625 
Q 55.078125 64.0625 55.078125 55.328125 
Q 55.078125 49.078125 51.53125 44.71875 
Q 48 40.375 41.703125 38.8125 
Q 48.828125 37.15625 52.796875 32.3125 
Q 56.78125 27.484375 56.78125 20.515625 
Q 56.78125 9.90625 50.3125 4.234375 
Q 43.84375 -1.421875 31.78125 -1.421875 
Q 19.734375 -1.421875 13.25 4.234375 
Q 6.78125 9.90625 6.78125 20.515625 
Q 6.78125 27.484375 10.78125 32.3125 
Q 14.796875 37.15625 21.921875 38.8125 
z
M 18.3125 54.390625 
Q 18.3125 48.734375 21.84375 45.5625 
Q 25.390625 42.390625 31.78125 42.390625 
Q 38.140625 42.390625 41.71875 45.5625 
Q 45.3125 48.734375 45.3125 54.390625 
Q 45.3125 60.0625 41.71875 63.234375 
Q 38.140625 66.40625 31.78125 66.40625 
Q 25.390625 66.40625 21.84375 63.234375 
Q 18.3125 60.0625 18.3125 54.390625 
z
" id="DejaVuSans-56"/>
       </defs>
       <use xlink:href="#DejaVuSans-56"/>
       <use x="63.623047" xlink:href="#DejaVuSans-48"/>
      </g>
     </g>
    </g>
    <g id="xtick_6">
     <g id="line2d_11">
      <path clip-path="url(#pfcdb4015aa)" d="M 401.766612 307.584 
L 401.766612 41.472 
" style="fill:none;stroke:#b0b0b0;stroke-linecap:square;stroke-width:0.8;"/>
     </g>
     <g id="line2d_12">
      <g>
       <use style="stroke:#000000;stroke-width:0.8;" x="401.766612" xlink:href="#mc8f92f02cd" y="307.584"/>
      </g>
     </g>
     <g id="text_6">
      <!-- 100 -->
      <g transform="translate(392.222862 322.182437)scale(0.1 -0.1)">
       <defs>
        <path d="M 12.40625 8.296875 
L 28.515625 8.296875 
L 28.515625 63.921875 
L 10.984375 60.40625 
L 10.984375 69.390625 
L 28.421875 72.90625 
L 38.28125 72.90625 
L 38.28125 8.296875 
L 54.390625 8.296875 
L 54.390625 0 
L 12.40625 0 
z
" id="DejaVuSans-49"/>
       </defs>
       <use xlink:href="#DejaVuSans-49"/>
       <use x="63.623047" xlink:href="#DejaVuSans-48"/>
       <use x="127.246094" xlink:href="#DejaVuSans-48"/>
      </g>
     </g>
    </g>
    <g id="text_7">
     <!-- communication rounds -->
     <g transform="translate(178.785781 335.860562)scale(0.1 -0.1)">
      <defs>
       <path d="M 48.78125 52.59375 
L 48.78125 44.1875 
Q 44.96875 46.296875 41.140625 47.34375 
Q 37.3125 48.390625 33.40625 48.390625 
Q 24.65625 48.390625 19.8125 42.84375 
Q 14.984375 37.3125 14.984375 27.296875 
Q 14.984375 17.28125 19.8125 11.734375 
Q 24.65625 6.203125 33.40625 6.203125 
Q 37.3125 6.203125 41.140625 7.25 
Q 44.96875 8.296875 48.78125 10.40625 
L 48.78125 2.09375 
Q 45.015625 0.34375 40.984375 -0.53125 
Q 36.96875 -1.421875 32.421875 -1.421875 
Q 20.0625 -1.421875 12.78125 6.34375 
Q 5.515625 14.109375 5.515625 27.296875 
Q 5.515625 40.671875 12.859375 48.328125 
Q 20.21875 56 33.015625 56 
Q 37.15625 56 41.109375 55.140625 
Q 45.0625 54.296875 48.78125 52.59375 
z
" id="DejaVuSans-99"/>
       <path d="M 30.609375 48.390625 
Q 23.390625 48.390625 19.1875 42.75 
Q 14.984375 37.109375 14.984375 27.296875 
Q 14.984375 17.484375 19.15625 11.84375 
Q 23.34375 6.203125 30.609375 6.203125 
Q 37.796875 6.203125 41.984375 11.859375 
Q 46.1875 17.53125 46.1875 27.296875 
Q 46.1875 37.015625 41.984375 42.703125 
Q 37.796875 48.390625 30.609375 48.390625 
z
M 30.609375 56 
Q 42.328125 56 49.015625 48.375 
Q 55.71875 40.765625 55.71875 27.296875 
Q 55.71875 13.875 49.015625 6.21875 
Q 42.328125 -1.421875 30.609375 -1.421875 
Q 18.84375 -1.421875 12.171875 6.21875 
Q 5.515625 13.875 5.515625 27.296875 
Q 5.515625 40.765625 12.171875 48.375 
Q 18.84375 56 30.609375 56 
z
" id="DejaVuSans-111"/>
       <path d="M 52 44.1875 
Q 55.375 50.25 60.0625 53.125 
Q 64.75 56 71.09375 56 
Q 79.640625 56 84.28125 50.015625 
Q 88.921875 44.046875 88.921875 33.015625 
L 88.921875 0 
L 79.890625 0 
L 79.890625 32.71875 
Q 79.890625 40.578125 77.09375 44.375 
Q 74.3125 48.1875 68.609375 48.1875 
Q 61.625 48.1875 57.5625 43.546875 
Q 53.515625 38.921875 53.515625 30.90625 
L 53.515625 0 
L 44.484375 0 
L 44.484375 32.71875 
Q 44.484375 40.625 41.703125 44.40625 
Q 38.921875 48.1875 33.109375 48.1875 
Q 26.21875 48.1875 22.15625 43.53125 
Q 18.109375 38.875 18.109375 30.90625 
L 18.109375 0 
L 9.078125 0 
L 9.078125 54.6875 
L 18.109375 54.6875 
L 18.109375 46.1875 
Q 21.1875 51.21875 25.484375 53.609375 
Q 29.78125 56 35.6875 56 
Q 41.65625 56 45.828125 52.96875 
Q 50 49.953125 52 44.1875 
z
" id="DejaVuSans-109"/>
       <path d="M 8.5 21.578125 
L 8.5 54.6875 
L 17.484375 54.6875 
L 17.484375 21.921875 
Q 17.484375 14.15625 20.5 10.265625 
Q 23.53125 6.390625 29.59375 6.390625 
Q 36.859375 6.390625 41.078125 11.03125 
Q 45.3125 15.671875 45.3125 23.6875 
L 45.3125 54.6875 
L 54.296875 54.6875 
L 54.296875 0 
L 45.3125 0 
L 45.3125 8.40625 
Q 42.046875 3.421875 37.71875 1 
Q 33.40625 -1.421875 27.6875 -1.421875 
Q 18.265625 -1.421875 13.375 4.4375 
Q 8.5 10.296875 8.5 21.578125 
z
M 31.109375 56 
z
" id="DejaVuSans-117"/>
       <path d="M 54.890625 33.015625 
L 54.890625 0 
L 45.90625 0 
L 45.90625 32.71875 
Q 45.90625 40.484375 42.875 44.328125 
Q 39.84375 48.1875 33.796875 48.1875 
Q 26.515625 48.1875 22.3125 43.546875 
Q 18.109375 38.921875 18.109375 30.90625 
L 18.109375 0 
L 9.078125 0 
L 9.078125 54.6875 
L 18.109375 54.6875 
L 18.109375 46.1875 
Q 21.34375 51.125 25.703125 53.5625 
Q 30.078125 56 35.796875 56 
Q 45.21875 56 50.046875 50.171875 
Q 54.890625 44.34375 54.890625 33.015625 
z
" id="DejaVuSans-110"/>
       <path d="M 9.421875 54.6875 
L 18.40625 54.6875 
L 18.40625 0 
L 9.421875 0 
z
M 9.421875 75.984375 
L 18.40625 75.984375 
L 18.40625 64.59375 
L 9.421875 64.59375 
z
" id="DejaVuSans-105"/>
       <path d="M 34.28125 27.484375 
Q 23.390625 27.484375 19.1875 25 
Q 14.984375 22.515625 14.984375 16.5 
Q 14.984375 11.71875 18.140625 8.90625 
Q 21.296875 6.109375 26.703125 6.109375 
Q 34.1875 6.109375 38.703125 11.40625 
Q 43.21875 16.703125 43.21875 25.484375 
L 43.21875 27.484375 
z
M 52.203125 31.203125 
L 52.203125 0 
L 43.21875 0 
L 43.21875 8.296875 
Q 40.140625 3.328125 35.546875 0.953125 
Q 30.953125 -1.421875 24.3125 -1.421875 
Q 15.921875 -1.421875 10.953125 3.296875 
Q 6 8.015625 6 15.921875 
Q 6 25.140625 12.171875 29.828125 
Q 18.359375 34.515625 30.609375 34.515625 
L 43.21875 34.515625 
L 43.21875 35.40625 
Q 43.21875 41.609375 39.140625 45 
Q 35.0625 48.390625 27.6875 48.390625 
Q 23 48.390625 18.546875 47.265625 
Q 14.109375 46.140625 10.015625 43.890625 
L 10.015625 52.203125 
Q 14.9375 54.109375 19.578125 55.046875 
Q 24.21875 56 28.609375 56 
Q 40.484375 56 46.34375 49.84375 
Q 52.203125 43.703125 52.203125 31.203125 
z
" id="DejaVuSans-97"/>
       <path d="M 18.3125 70.21875 
L 18.3125 54.6875 
L 36.8125 54.6875 
L 36.8125 47.703125 
L 18.3125 47.703125 
L 18.3125 18.015625 
Q 18.3125 11.328125 20.140625 9.421875 
Q 21.96875 7.515625 27.59375 7.515625 
L 36.8125 7.515625 
L 36.8125 0 
L 27.59375 0 
Q 17.1875 0 13.234375 3.875 
Q 9.28125 7.765625 9.28125 18.015625 
L 9.28125 47.703125 
L 2.6875 47.703125 
L 2.6875 54.6875 
L 9.28125 54.6875 
L 9.28125 70.21875 
z
" id="DejaVuSans-116"/>
       <path id="DejaVuSans-32"/>
       <path d="M 41.109375 46.296875 
Q 39.59375 47.171875 37.8125 47.578125 
Q 36.03125 48 33.890625 48 
Q 26.265625 48 22.1875 43.046875 
Q 18.109375 38.09375 18.109375 28.8125 
L 18.109375 0 
L 9.078125 0 
L 9.078125 54.6875 
L 18.109375 54.6875 
L 18.109375 46.1875 
Q 20.953125 51.171875 25.484375 53.578125 
Q 30.03125 56 36.53125 56 
Q 37.453125 56 38.578125 55.875 
Q 39.703125 55.765625 41.0625 55.515625 
z
" id="DejaVuSans-114"/>
       <path d="M 45.40625 46.390625 
L 45.40625 75.984375 
L 54.390625 75.984375 
L 54.390625 0 
L 45.40625 0 
L 45.40625 8.203125 
Q 42.578125 3.328125 38.25 0.953125 
Q 33.9375 -1.421875 27.875 -1.421875 
Q 17.96875 -1.421875 11.734375 6.484375 
Q 5.515625 14.40625 5.515625 27.296875 
Q 5.515625 40.1875 11.734375 48.09375 
Q 17.96875 56 27.875 56 
Q 33.9375 56 38.25 53.625 
Q 42.578125 51.265625 45.40625 46.390625 
z
M 14.796875 27.296875 
Q 14.796875 17.390625 18.875 11.75 
Q 22.953125 6.109375 30.078125 6.109375 
Q 37.203125 6.109375 41.296875 11.75 
Q 45.40625 17.390625 45.40625 27.296875 
Q 45.40625 37.203125 41.296875 42.84375 
Q 37.203125 48.484375 30.078125 48.484375 
Q 22.953125 48.484375 18.875 42.84375 
Q 14.796875 37.203125 14.796875 27.296875 
z
" id="DejaVuSans-100"/>
       <path d="M 44.28125 53.078125 
L 44.28125 44.578125 
Q 40.484375 46.53125 36.375 47.5 
Q 32.28125 48.484375 27.875 48.484375 
Q 21.1875 48.484375 17.84375 46.4375 
Q 14.5 44.390625 14.5 40.28125 
Q 14.5 37.15625 16.890625 35.375 
Q 19.28125 33.59375 26.515625 31.984375 
L 29.59375 31.296875 
Q 39.15625 29.25 43.1875 25.515625 
Q 47.21875 21.78125 47.21875 15.09375 
Q 47.21875 7.46875 41.1875 3.015625 
Q 35.15625 -1.421875 24.609375 -1.421875 
Q 20.21875 -1.421875 15.453125 -0.5625 
Q 10.6875 0.296875 5.421875 2 
L 5.421875 11.28125 
Q 10.40625 8.6875 15.234375 7.390625 
Q 20.0625 6.109375 24.8125 6.109375 
Q 31.15625 6.109375 34.5625 8.28125 
Q 37.984375 10.453125 37.984375 14.40625 
Q 37.984375 18.0625 35.515625 20.015625 
Q 33.0625 21.96875 24.703125 23.78125 
L 21.578125 24.515625 
Q 13.234375 26.265625 9.515625 29.90625 
Q 5.8125 33.546875 5.8125 39.890625 
Q 5.8125 47.609375 11.28125 51.796875 
Q 16.75 56 26.8125 56 
Q 31.78125 56 36.171875 55.265625 
Q 40.578125 54.546875 44.28125 53.078125 
z
" id="DejaVuSans-115"/>
      </defs>
      <use xlink:href="#DejaVuSans-99"/>
      <use x="54.980469" xlink:href="#DejaVuSans-111"/>
      <use x="116.162109" xlink:href="#DejaVuSans-109"/>
      <use x="213.574219" xlink:href="#DejaVuSans-109"/>
      <use x="310.986328" xlink:href="#DejaVuSans-117"/>
      <use x="374.365234" xlink:href="#DejaVuSans-110"/>
      <use x="437.744141" xlink:href="#DejaVuSans-105"/>
      <use x="465.527344" xlink:href="#DejaVuSans-99"/>
      <use x="520.507812" xlink:href="#DejaVuSans-97"/>
      <use x="581.787109" xlink:href="#DejaVuSans-116"/>
      <use x="620.996094" xlink:href="#DejaVuSans-105"/>
      <use x="648.779297" xlink:href="#DejaVuSans-111"/>
      <use x="709.960938" xlink:href="#DejaVuSans-110"/>
      <use x="773.339844" xlink:href="#DejaVuSans-32"/>
      <use x="805.126953" xlink:href="#DejaVuSans-114"/>
      <use x="843.990234" xlink:href="#DejaVuSans-111"/>
      <use x="905.171875" xlink:href="#DejaVuSans-117"/>
      <use x="968.550781" xlink:href="#DejaVuSans-110"/>
      <use x="1031.929688" xlink:href="#DejaVuSans-100"/>
      <use x="1095.40625" xlink:href="#DejaVuSans-115"/>
     </g>
    </g>
   </g>
   <g id="matplotlib.axis_2">
    <g id="ytick_1">
     <g id="line2d_13">
      <path clip-path="url(#pfcdb4015aa)" d="M 57.6 294.730545 
L 414.72 294.730545 
" style="fill:none;stroke:#b0b0b0;stroke-linecap:square;stroke-width:0.8;"/>
     </g>
     <g id="line2d_14">
      <defs>
       <path d="M 0 0 
L -3.5 0 
" id="m3bf2c2e776" style="stroke:#000000;stroke-width:0.8;"/>
      </defs>
      <g>
       <use style="stroke:#000000;stroke-width:0.8;" x="57.6" xlink:href="#m3bf2c2e776" y="294.730545"/>
      </g>
     </g>
     <g id="text_8">
      <!-- 0.60 -->
      <g transform="translate(28.334375 298.529763)scale(0.1 -0.1)">
       <defs>
        <path d="M 10.6875 12.40625 
L 21 12.40625 
L 21 0 
L 10.6875 0 
z
" id="DejaVuSans-46"/>
       </defs>
       <use xlink:href="#DejaVuSans-48"/>
       <use x="63.623047" xlink:href="#DejaVuSans-46"/>
       <use x="95.410156" xlink:href="#DejaVuSans-54"/>
       <use x="159.033203" xlink:href="#DejaVuSans-48"/>
      </g>
     </g>
    </g>
    <g id="ytick_2">
     <g id="line2d_15">
      <path clip-path="url(#pfcdb4015aa)" d="M 57.6 261.287433 
L 414.72 261.287433 
" style="fill:none;stroke:#b0b0b0;stroke-linecap:square;stroke-width:0.8;"/>
     </g>
     <g id="line2d_16">
      <g>
       <use style="stroke:#000000;stroke-width:0.8;" x="57.6" xlink:href="#m3bf2c2e776" y="261.287433"/>
      </g>
     </g>
     <g id="text_9">
      <!-- 0.65 -->
      <g transform="translate(28.334375 265.086651)scale(0.1 -0.1)">
       <defs>
        <path d="M 10.796875 72.90625 
L 49.515625 72.90625 
L 49.515625 64.59375 
L 19.828125 64.59375 
L 19.828125 46.734375 
Q 21.96875 47.46875 24.109375 47.828125 
Q 26.265625 48.1875 28.421875 48.1875 
Q 40.625 48.1875 47.75 41.5 
Q 54.890625 34.8125 54.890625 23.390625 
Q 54.890625 11.625 47.5625 5.09375 
Q 40.234375 -1.421875 26.90625 -1.421875 
Q 22.3125 -1.421875 17.546875 -0.640625 
Q 12.796875 0.140625 7.71875 1.703125 
L 7.71875 11.625 
Q 12.109375 9.234375 16.796875 8.0625 
Q 21.484375 6.890625 26.703125 6.890625 
Q 35.15625 6.890625 40.078125 11.328125 
Q 45.015625 15.765625 45.015625 23.390625 
Q 45.015625 31 40.078125 35.4375 
Q 35.15625 39.890625 26.703125 39.890625 
Q 22.75 39.890625 18.8125 39.015625 
Q 14.890625 38.140625 10.796875 36.28125 
z
" id="DejaVuSans-53"/>
       </defs>
       <use xlink:href="#DejaVuSans-48"/>
       <use x="63.623047" xlink:href="#DejaVuSans-46"/>
       <use x="95.410156" xlink:href="#DejaVuSans-54"/>
       <use x="159.033203" xlink:href="#DejaVuSans-53"/>
      </g>
     </g>
    </g>
    <g id="ytick_3">
     <g id="line2d_17">
      <path clip-path="url(#pfcdb4015aa)" d="M 57.6 227.84432 
L 414.72 227.84432 
" style="fill:none;stroke:#b0b0b0;stroke-linecap:square;stroke-width:0.8;"/>
     </g>
     <g id="line2d_18">
      <g>
       <use style="stroke:#000000;stroke-width:0.8;" x="57.6" xlink:href="#m3bf2c2e776" y="227.84432"/>
      </g>
     </g>
     <g id="text_10">
      <!-- 0.70 -->
      <g transform="translate(28.334375 231.643539)scale(0.1 -0.1)">
       <defs>
        <path d="M 8.203125 72.90625 
L 55.078125 72.90625 
L 55.078125 68.703125 
L 28.609375 0 
L 18.3125 0 
L 43.21875 64.59375 
L 8.203125 64.59375 
z
" id="DejaVuSans-55"/>
       </defs>
       <use xlink:href="#DejaVuSans-48"/>
       <use x="63.623047" xlink:href="#DejaVuSans-46"/>
       <use x="95.410156" xlink:href="#DejaVuSans-55"/>
       <use x="159.033203" xlink:href="#DejaVuSans-48"/>
      </g>
     </g>
    </g>
    <g id="ytick_4">
     <g id="line2d_19">
      <path clip-path="url(#pfcdb4015aa)" d="M 57.6 194.401208 
L 414.72 194.401208 
" style="fill:none;stroke:#b0b0b0;stroke-linecap:square;stroke-width:0.8;"/>
     </g>
     <g id="line2d_20">
      <g>
       <use style="stroke:#000000;stroke-width:0.8;" x="57.6" xlink:href="#m3bf2c2e776" y="194.401208"/>
      </g>
     </g>
     <g id="text_11">
      <!-- 0.75 -->
      <g transform="translate(28.334375 198.200427)scale(0.1 -0.1)">
       <use xlink:href="#DejaVuSans-48"/>
       <use x="63.623047" xlink:href="#DejaVuSans-46"/>
       <use x="95.410156" xlink:href="#DejaVuSans-55"/>
       <use x="159.033203" xlink:href="#DejaVuSans-53"/>
      </g>
     </g>
    </g>
    <g id="ytick_5">
     <g id="line2d_21">
      <path clip-path="url(#pfcdb4015aa)" d="M 57.6 160.958096 
L 414.72 160.958096 
" style="fill:none;stroke:#b0b0b0;stroke-linecap:square;stroke-width:0.8;"/>
     </g>
     <g id="line2d_22">
      <g>
       <use style="stroke:#000000;stroke-width:0.8;" x="57.6" xlink:href="#m3bf2c2e776" y="160.958096"/>
      </g>
     </g>
     <g id="text_12">
      <!-- 0.80 -->
      <g transform="translate(28.334375 164.757315)scale(0.1 -0.1)">
       <use xlink:href="#DejaVuSans-48"/>
       <use x="63.623047" xlink:href="#DejaVuSans-46"/>
       <use x="95.410156" xlink:href="#DejaVuSans-56"/>
       <use x="159.033203" xlink:href="#DejaVuSans-48"/>
      </g>
     </g>
    </g>
    <g id="ytick_6">
     <g id="line2d_23">
      <path clip-path="url(#pfcdb4015aa)" d="M 57.6 127.514984 
L 414.72 127.514984 
" style="fill:none;stroke:#b0b0b0;stroke-linecap:square;stroke-width:0.8;"/>
     </g>
     <g id="line2d_24">
      <g>
       <use style="stroke:#000000;stroke-width:0.8;" x="57.6" xlink:href="#m3bf2c2e776" y="127.514984"/>
      </g>
     </g>
     <g id="text_13">
      <!-- 0.85 -->
      <g transform="translate(28.334375 131.314203)scale(0.1 -0.1)">
       <use xlink:href="#DejaVuSans-48"/>
       <use x="63.623047" xlink:href="#DejaVuSans-46"/>
       <use x="95.410156" xlink:href="#DejaVuSans-56"/>
       <use x="159.033203" xlink:href="#DejaVuSans-53"/>
      </g>
     </g>
    </g>
    <g id="ytick_7">
     <g id="line2d_25">
      <path clip-path="url(#pfcdb4015aa)" d="M 57.6 94.071872 
L 414.72 94.071872 
" style="fill:none;stroke:#b0b0b0;stroke-linecap:square;stroke-width:0.8;"/>
     </g>
     <g id="line2d_26">
      <g>
       <use style="stroke:#000000;stroke-width:0.8;" x="57.6" xlink:href="#m3bf2c2e776" y="94.071872"/>
      </g>
     </g>
     <g id="text_14">
      <!-- 0.90 -->
      <g transform="translate(28.334375 97.87109)scale(0.1 -0.1)">
       <defs>
        <path d="M 10.984375 1.515625 
L 10.984375 10.5 
Q 14.703125 8.734375 18.5 7.8125 
Q 22.3125 6.890625 25.984375 6.890625 
Q 35.75 6.890625 40.890625 13.453125 
Q 46.046875 20.015625 46.78125 33.40625 
Q 43.953125 29.203125 39.59375 26.953125 
Q 35.25 24.703125 29.984375 24.703125 
Q 19.046875 24.703125 12.671875 31.3125 
Q 6.296875 37.9375 6.296875 49.421875 
Q 6.296875 60.640625 12.9375 67.421875 
Q 19.578125 74.21875 30.609375 74.21875 
Q 43.265625 74.21875 49.921875 64.515625 
Q 56.59375 54.828125 56.59375 36.375 
Q 56.59375 19.140625 48.40625 8.859375 
Q 40.234375 -1.421875 26.421875 -1.421875 
Q 22.703125 -1.421875 18.890625 -0.6875 
Q 15.09375 0.046875 10.984375 1.515625 
z
M 30.609375 32.421875 
Q 37.25 32.421875 41.125 36.953125 
Q 45.015625 41.5 45.015625 49.421875 
Q 45.015625 57.28125 41.125 61.84375 
Q 37.25 66.40625 30.609375 66.40625 
Q 23.96875 66.40625 20.09375 61.84375 
Q 16.21875 57.28125 16.21875 49.421875 
Q 16.21875 41.5 20.09375 36.953125 
Q 23.96875 32.421875 30.609375 32.421875 
z
" id="DejaVuSans-57"/>
       </defs>
       <use xlink:href="#DejaVuSans-48"/>
       <use x="63.623047" xlink:href="#DejaVuSans-46"/>
       <use x="95.410156" xlink:href="#DejaVuSans-57"/>
       <use x="159.033203" xlink:href="#DejaVuSans-48"/>
      </g>
     </g>
    </g>
    <g id="ytick_8">
     <g id="line2d_27">
      <path clip-path="url(#pfcdb4015aa)" d="M 57.6 60.628759 
L 414.72 60.628759 
" style="fill:none;stroke:#b0b0b0;stroke-linecap:square;stroke-width:0.8;"/>
     </g>
     <g id="line2d_28">
      <g>
       <use style="stroke:#000000;stroke-width:0.8;" x="57.6" xlink:href="#m3bf2c2e776" y="60.628759"/>
      </g>
     </g>
     <g id="text_15">
      <!-- 0.95 -->
      <g transform="translate(28.334375 64.427978)scale(0.1 -0.1)">
       <use xlink:href="#DejaVuSans-48"/>
       <use x="63.623047" xlink:href="#DejaVuSans-46"/>
       <use x="95.410156" xlink:href="#DejaVuSans-57"/>
       <use x="159.033203" xlink:href="#DejaVuSans-53"/>
      </g>
     </g>
    </g>
    <g id="text_16">
     <!-- accuracy -->
     <g transform="translate(22.254687 197.087375)rotate(-90)scale(0.1 -0.1)">
      <defs>
       <path d="M 32.171875 -5.078125 
Q 28.375 -14.84375 24.75 -17.8125 
Q 21.140625 -20.796875 15.09375 -20.796875 
L 7.90625 -20.796875 
L 7.90625 -13.28125 
L 13.1875 -13.28125 
Q 16.890625 -13.28125 18.9375 -11.515625 
Q 21 -9.765625 23.484375 -3.21875 
L 25.09375 0.875 
L 2.984375 54.6875 
L 12.5 54.6875 
L 29.59375 11.921875 
L 46.6875 54.6875 
L 56.203125 54.6875 
z
" id="DejaVuSans-121"/>
      </defs>
      <use xlink:href="#DejaVuSans-97"/>
      <use x="61.279297" xlink:href="#DejaVuSans-99"/>
      <use x="116.259766" xlink:href="#DejaVuSans-99"/>
      <use x="171.240234" xlink:href="#DejaVuSans-117"/>
      <use x="234.619141" xlink:href="#DejaVuSans-114"/>
      <use x="275.732422" xlink:href="#DejaVuSans-97"/>
      <use x="337.011719" xlink:href="#DejaVuSans-99"/>
      <use x="391.992188" xlink:href="#DejaVuSans-121"/>
     </g>
    </g>
   </g>
   <g id="line2d_29">
    <path clip-path="url(#pfcdb4015aa)" d="M 73.832727 244.350518 
L 77.112066 217.882247 
L 80.391405 201.139849 
L 83.670744 184.466923 
L 86.950083 172.795874 
L 90.229421 163.208941 
L 93.50876 153.83042 
L 96.788099 146.605485 
L 100.067438 139.936314 
L 103.346777 134.10079 
L 106.626116 128.959971 
L 109.905455 123.958093 
L 113.184793 120.415096 
L 116.464132 117.08051 
L 119.743471 113.537514 
L 123.02281 110.689222 
L 126.302149 108.605106 
L 129.581488 106.382049 
L 132.860826 104.784227 
L 136.140165 102.769582 
L 139.419504 100.754936 
L 142.698843 98.809762 
L 145.978182 97.976115 
L 149.257521 96.517234 
L 152.53686 95.266765 
L 155.816198 93.946825 
L 159.095537 92.418473 
L 162.374876 91.168004 
L 165.654215 90.473298 
L 168.933554 89.570181 
L 172.212893 88.736535 
L 175.492231 87.694477 
L 178.77157 87.277654 
L 182.050909 86.374537 
L 185.330248 85.47142 
L 188.609587 84.846185 
L 191.888926 83.943069 
L 195.168264 83.387304 
L 198.447603 82.901011 
L 201.726942 82.275776 
L 205.006281 81.720012 
L 208.28562 81.164248 
L 211.564959 80.330601 
L 214.844298 79.635896 
L 218.123636 79.010661 
L 221.402975 78.246485 
L 224.682314 78.107544 
L 227.961653 77.690721 
L 231.240992 77.343368 
L 234.520331 76.787604 
L 237.799669 76.648663 
L 241.079008 76.023428 
L 244.358347 75.676076 
L 247.637686 75.328723 
L 250.917025 74.564547 
L 254.196364 74.078254 
L 257.475702 73.383548 
L 260.755041 73.175137 
L 264.03438 72.758314 
L 267.313719 72.619373 
L 270.593058 72.34149 
L 273.872397 72.063608 
L 277.151736 71.855197 
L 280.431074 71.577315 
L 283.710413 71.299433 
L 286.989752 71.02155 
L 290.269091 70.396316 
L 293.54843 70.187904 
L 296.827769 69.979492 
L 300.107107 69.840551 
L 303.386446 69.70161 
L 306.665785 69.354258 
L 309.945124 69.145846 
L 313.224463 68.798494 
L 316.503802 68.659552 
L 319.78314 68.451141 
L 323.062479 68.3122 
L 326.341818 68.242729 
L 329.621157 68.034318 
L 332.900496 67.756436 
L 336.179835 67.339612 
L 339.459174 67.06173 
L 342.738512 66.99226 
L 346.017851 66.783848 
L 349.29719 66.436496 
L 352.576529 66.158613 
L 355.855868 65.67232 
L 359.135207 65.394438 
L 362.414545 65.324967 
L 365.693884 65.255497 
L 368.973223 65.186026 
L 372.252562 64.491321 
L 375.531901 64.42185 
L 378.81124 64.213439 
L 382.090579 64.074498 
L 385.369917 63.935557 
L 388.649256 63.935557 
L 391.928595 63.657674 
L 395.207934 63.588204 
L 398.487273 63.449263 
" style="fill:none;stroke:#1f77b4;stroke-linecap:square;stroke-width:1.5;"/>
   </g>
   <g id="line2d_30">
    <path clip-path="url(#pfcdb4015aa)" d="M 73.832727 267.901027 
L 77.112066 242.613755 
L 80.391405 220.383186 
L 83.670744 200.306203 
L 86.950083 184.397452 
L 90.229421 169.183406 
L 93.50876 157.234476 
L 96.788099 147.23072 
L 100.067438 137.365905 
L 103.346777 129.307323 
L 106.626116 122.499212 
L 109.905455 116.455276 
L 113.184793 112.912279 
L 116.464132 108.674577 
L 119.743471 104.923168 
L 123.02281 100.824407 
L 126.302149 97.906645 
L 129.581488 94.988883 
L 132.860826 92.765826 
L 136.140165 90.890121 
L 139.419504 89.083888 
L 142.698843 87.833418 
L 145.978182 85.749302 
L 149.257521 84.359892 
L 152.53686 83.109422 
L 155.816198 81.997894 
L 159.095537 81.233718 
L 162.374876 80.400072 
L 165.654215 79.566425 
L 168.933554 77.968603 
L 172.212893 76.370781 
L 175.492231 74.842429 
L 178.77157 73.800372 
L 182.050909 73.105666 
L 185.330248 72.480431 
L 188.609587 71.507844 
L 191.888926 70.95208 
L 195.168264 69.562669 
L 198.447603 69.215317 
L 201.726942 68.590082 
L 205.006281 68.034318 
L 208.28562 67.478553 
L 211.564959 67.06173 
L 214.844298 66.367025 
L 218.123636 65.811261 
L 221.402975 65.533379 
L 224.682314 64.699732 
L 227.961653 64.005027 
L 231.240992 63.518733 
L 234.520331 63.03244 
L 237.799669 63.10191 
L 241.079008 63.10191 
L 244.358347 62.824028 
L 247.637686 62.615617 
L 250.917025 62.476675 
L 254.196364 62.059852 
L 257.475702 62.059852 
L 260.755041 61.920911 
L 264.03438 61.573559 
L 267.313719 61.504088 
L 270.593058 61.017794 
L 273.872397 60.809383 
L 277.151736 60.39256 
L 280.431074 59.975736 
L 283.710413 59.836795 
L 286.989752 59.628384 
L 290.269091 59.350502 
L 293.54843 59.07262 
L 296.827769 58.864208 
L 300.107107 58.655796 
L 303.386446 58.586326 
L 306.665785 58.308444 
L 309.945124 58.238973 
L 313.224463 58.169503 
L 316.503802 57.961091 
L 319.78314 57.961091 
L 323.062479 57.891621 
L 326.341818 57.75268 
L 329.621157 57.474797 
L 332.900496 57.127445 
L 336.179835 57.057974 
L 339.459174 56.988504 
L 342.738512 56.780092 
L 346.017851 56.641151 
L 349.29719 56.571681 
L 352.576529 56.43274 
L 355.855868 56.293798 
L 359.135207 56.085387 
L 362.414545 56.015916 
L 365.693884 55.946446 
L 368.973223 55.876975 
L 372.252562 55.876975 
L 375.531901 55.668564 
L 378.81124 55.668564 
L 382.090579 55.529623 
L 385.369917 55.251741 
L 388.649256 55.321211 
L 391.928595 55.251741 
L 395.207934 55.043329 
L 398.487273 55.043329 
" style="fill:none;stroke:#ff7f0e;stroke-linecap:square;stroke-width:1.5;"/>
   </g>
   <g id="patch_3">
    <path d="M 57.6 307.584 
L 57.6 41.472 
" style="fill:none;stroke:#000000;stroke-linecap:square;stroke-linejoin:miter;stroke-width:0.8;"/>
   </g>
   <g id="patch_4">
    <path d="M 414.72 307.584 
L 414.72 41.472 
" style="fill:none;stroke:#000000;stroke-linecap:square;stroke-linejoin:miter;stroke-width:0.8;"/>
   </g>
   <g id="patch_5">
    <path d="M 57.6 307.584 
L 414.72 307.584 
" style="fill:none;stroke:#000000;stroke-linecap:square;stroke-linejoin:miter;stroke-width:0.8;"/>
   </g>
   <g id="patch_6">
    <path d="M 57.6 41.472 
L 414.72 41.472 
" style="fill:none;stroke:#000000;stroke-linecap:square;stroke-linejoin:miter;stroke-width:0.8;"/>
   </g>
   <g id="text_17">
    <!-- FNN on AML -->
    <g transform="translate(199.819687 35.472)scale(0.12 -0.12)">
     <defs>
      <path d="M 9.8125 72.90625 
L 51.703125 72.90625 
L 51.703125 64.59375 
L 19.671875 64.59375 
L 19.671875 43.109375 
L 48.578125 43.109375 
L 48.578125 34.8125 
L 19.671875 34.8125 
L 19.671875 0 
L 9.8125 0 
z
" id="DejaVuSans-70"/>
      <path d="M 9.8125 72.90625 
L 23.09375 72.90625 
L 55.421875 11.921875 
L 55.421875 72.90625 
L 64.984375 72.90625 
L 64.984375 0 
L 51.703125 0 
L 19.390625 60.984375 
L 19.390625 0 
L 9.8125 0 
z
" id="DejaVuSans-78"/>
      <path d="M 34.1875 63.1875 
L 20.796875 26.90625 
L 47.609375 26.90625 
z
M 28.609375 72.90625 
L 39.796875 72.90625 
L 67.578125 0 
L 57.328125 0 
L 50.6875 18.703125 
L 17.828125 18.703125 
L 11.1875 0 
L 0.78125 0 
z
" id="DejaVuSans-65"/>
      <path d="M 9.8125 72.90625 
L 24.515625 72.90625 
L 43.109375 23.296875 
L 61.8125 72.90625 
L 76.515625 72.90625 
L 76.515625 0 
L 66.890625 0 
L 66.890625 64.015625 
L 48.09375 14.015625 
L 38.1875 14.015625 
L 19.390625 64.015625 
L 19.390625 0 
L 9.8125 0 
z
" id="DejaVuSans-77"/>
      <path d="M 9.8125 72.90625 
L 19.671875 72.90625 
L 19.671875 8.296875 
L 55.171875 8.296875 
L 55.171875 0 
L 9.8125 0 
z
" id="DejaVuSans-76"/>
     </defs>
     <use xlink:href="#DejaVuSans-70"/>
     <use x="57.519531" xlink:href="#DejaVuSans-78"/>
     <use x="132.324219" xlink:href="#DejaVuSans-78"/>
     <use x="207.128906" xlink:href="#DejaVuSans-32"/>
     <use x="238.916016" xlink:href="#DejaVuSans-111"/>
     <use x="300.097656" xlink:href="#DejaVuSans-110"/>
     <use x="363.476562" xlink:href="#DejaVuSans-32"/>
     <use x="395.263672" xlink:href="#DejaVuSans-65"/>
     <use x="463.671875" xlink:href="#DejaVuSans-77"/>
     <use x="549.951172" xlink:href="#DejaVuSans-76"/>
    </g>
   </g>
   <g id="legend_1">
    <g id="patch_7">
     <path d="M 64.6 78.82825 
L 145.435937 78.82825 
Q 147.435937 78.82825 147.435937 76.82825 
L 147.435937 48.472 
Q 147.435937 46.472 145.435937 46.472 
L 64.6 46.472 
Q 62.6 46.472 62.6 48.472 
L 62.6 76.82825 
Q 62.6 78.82825 64.6 78.82825 
z
" style="fill:#ffffff;opacity:0.8;stroke:#cccccc;stroke-linejoin:miter;"/>
    </g>
    <g id="line2d_31">
     <path d="M 66.6 54.570437 
L 86.6 54.570437 
" style="fill:none;stroke:#1f77b4;stroke-linecap:square;stroke-width:1.5;"/>
    </g>
    <g id="line2d_32"/>
    <g id="text_18">
     <!-- federated -->
     <g transform="translate(94.6 58.070437)scale(0.1 -0.1)">
      <defs>
       <path d="M 37.109375 75.984375 
L 37.109375 68.5 
L 28.515625 68.5 
Q 23.6875 68.5 21.796875 66.546875 
Q 19.921875 64.59375 19.921875 59.515625 
L 19.921875 54.6875 
L 34.71875 54.6875 
L 34.71875 47.703125 
L 19.921875 47.703125 
L 19.921875 0 
L 10.890625 0 
L 10.890625 47.703125 
L 2.296875 47.703125 
L 2.296875 54.6875 
L 10.890625 54.6875 
L 10.890625 58.5 
Q 10.890625 67.625 15.140625 71.796875 
Q 19.390625 75.984375 28.609375 75.984375 
z
" id="DejaVuSans-102"/>
       <path d="M 56.203125 29.59375 
L 56.203125 25.203125 
L 14.890625 25.203125 
Q 15.484375 15.921875 20.484375 11.0625 
Q 25.484375 6.203125 34.421875 6.203125 
Q 39.59375 6.203125 44.453125 7.46875 
Q 49.3125 8.734375 54.109375 11.28125 
L 54.109375 2.78125 
Q 49.265625 0.734375 44.1875 -0.34375 
Q 39.109375 -1.421875 33.890625 -1.421875 
Q 20.796875 -1.421875 13.15625 6.1875 
Q 5.515625 13.8125 5.515625 26.8125 
Q 5.515625 40.234375 12.765625 48.109375 
Q 20.015625 56 32.328125 56 
Q 43.359375 56 49.78125 48.890625 
Q 56.203125 41.796875 56.203125 29.59375 
z
M 47.21875 32.234375 
Q 47.125 39.59375 43.09375 43.984375 
Q 39.0625 48.390625 32.421875 48.390625 
Q 24.90625 48.390625 20.390625 44.140625 
Q 15.875 39.890625 15.1875 32.171875 
z
" id="DejaVuSans-101"/>
      </defs>
      <use xlink:href="#DejaVuSans-102"/>
      <use x="35.205078" xlink:href="#DejaVuSans-101"/>
      <use x="96.728516" xlink:href="#DejaVuSans-100"/>
      <use x="160.205078" xlink:href="#DejaVuSans-101"/>
      <use x="221.728516" xlink:href="#DejaVuSans-114"/>
      <use x="262.841797" xlink:href="#DejaVuSans-97"/>
      <use x="324.121094" xlink:href="#DejaVuSans-116"/>
      <use x="363.330078" xlink:href="#DejaVuSans-101"/>
      <use x="424.853516" xlink:href="#DejaVuSans-100"/>
     </g>
    </g>
    <g id="line2d_33">
     <path d="M 66.6 69.248562 
L 86.6 69.248562 
" style="fill:none;stroke:#ff7f0e;stroke-linecap:square;stroke-width:1.5;"/>
    </g>
    <g id="line2d_34"/>
    <g id="text_19">
     <!-- central -->
     <g transform="translate(94.6 72.748562)scale(0.1 -0.1)">
      <defs>
       <path d="M 9.421875 75.984375 
L 18.40625 75.984375 
L 18.40625 0 
L 9.421875 0 
z
" id="DejaVuSans-108"/>
      </defs>
      <use xlink:href="#DejaVuSans-99"/>
      <use x="54.980469" xlink:href="#DejaVuSans-101"/>
      <use x="116.503906" xlink:href="#DejaVuSans-110"/>
      <use x="179.882812" xlink:href="#DejaVuSans-116"/>
      <use x="219.091797" xlink:href="#DejaVuSans-114"/>
      <use x="260.205078" xlink:href="#DejaVuSans-97"/>
      <use x="321.484375" xlink:href="#DejaVuSans-108"/>
     </g>
    </g>
   </g>
  </g>
 </g>
 <defs>
  <clipPath id="pfcdb4015aa">
   <rect height="266.112" width="357.12" x="57.6" y="41.472"/>
  </clipPath>
 </defs>
</svg>
