<?xml version="1.0" encoding="utf-8" standalone="no"?>
<!DOCTYPE svg PUBLIC "-//W3C//DTD SVG 1.1//EN"
  "http://www.w3.org/Graphics/SVG/1.1/DTD/svg11.dtd">
<!-- Created with matplotlib (https://matplotlib.org/) -->
<svg height="345.6pt" version="1.1" viewBox="0 0 460.8 345.6" width="460.8pt" xmlns="http://www.w3.org/2000/svg" xmlns:xlink="http://www.w3.org/1999/xlink">
 <metadata>
  <rdf:RDF xmlns:cc="http://creativecommons.org/ns#" xmlns:dc="http://purl.org/dc/elements/1.1/" xmlns:rdf="http://www.w3.org/1999/02/22-rdf-syntax-ns#">
   <cc:Work>
    <dc:type rdf:resource="http://purl.org/dc/dcmitype/StillImage"/>
    <dc:date>2023-02-23T11:14:06.823584</dc:date>
    <dc:format>image/svg+xml</dc:format>
    <dc:creator>
     <cc:Agent>
      <dc:title>Matplotlib v3.3.4, https://matplotlib.org/</dc:title>
     </cc:Agent>
    </dc:creator>
   </cc:Work>
  </rdf:RDF>
 </metadata>
 <defs>
  <style type="text/css">*{stroke-linecap:butt;stroke-linejoin:round;}</style>
 </defs>
 <g id="figure_1">
  <g id="patch_1">
   <path d="M 0 345.6 
L 460.8 345.6 
L 460.8 0 
L 0 0 
z
" style="fill:#ffffff;"/>
  </g>
  <g id="axes_1">
   <g id="patch_2">
    <path d="M 57.6 307.584 
L 414.72 307.584 
L 414.72 41.472 
L 57.6 41.472 
z
" style="fill:#ffffff;"/>
   </g>
   <g id="PolyCollection_1">
    <path clip-path="url(#p6e750d5150)" d="M 73.832727 177.745829 
L 73.832727 204.523307 
L 74.646398 180.884124 
L 75.460068 151.251285 
L 76.273739 140.910357 
L 77.087409 136.019001 
L 77.90108 132.537773 
L 78.714751 130.573033 
L 79.528421 134.179789 
L 80.342092 138.503543 
L 81.155762 135.839816 
L 81.969433 129.610019 
L 82.783103 124.89496 
L 83.596774 123.237439 
L 84.410444 123.214337 
L 85.224115 124.34654 
L 86.037785 126.138667 
L 86.851456 127.257128 
L 87.665126 126.871386 
L 88.478797 125.449009 
L 89.292468 122.611695 
L 90.106138 120.813694 
L 90.919809 121.0132 
L 91.733479 121.536793 
L 92.54715 121.601213 
L 93.36082 121.231152 
L 94.174491 119.967914 
L 94.988161 117.132803 
L 95.801832 114.466671 
L 96.615502 113.490313 
L 97.429173 112.513666 
L 98.242843 111.608512 
L 99.056514 110.604947 
L 99.870185 108.079495 
L 100.683855 105.242771 
L 101.497526 103.3507 
L 102.311196 101.507846 
L 103.124867 99.974591 
L 103.938537 98.163306 
L 104.752208 96.285779 
L 105.565878 93.981829 
L 106.379549 92.269959 
L 107.193219 90.788069 
L 108.00689 89.271773 
L 108.82056 88.412395 
L 109.634231 87.498315 
L 110.447902 85.860954 
L 111.261572 85.229888 
L 112.075243 84.377247 
L 112.888913 83.770757 
L 113.702584 84.19327 
L 114.516254 83.412568 
L 115.329925 83.111608 
L 116.143595 82.702792 
L 116.957266 82.094368 
L 117.770936 82.498386 
L 118.584607 81.968633 
L 119.398278 81.40351 
L 120.211948 80.899861 
L 121.025619 80.636094 
L 121.839289 80.941921 
L 122.65296 79.964761 
L 123.46663 80.300639 
L 124.280301 80.024263 
L 125.093971 79.724988 
L 125.907642 79.463151 
L 126.721312 78.796464 
L 127.534983 78.863976 
L 128.348653 78.456437 
L 129.162324 78.085464 
L 129.975995 77.614019 
L 130.789665 77.532908 
L 131.603336 77.54234 
L 132.417006 77.14145 
L 133.230677 77.042442 
L 134.044347 76.610947 
L 134.858018 76.423444 
L 135.671688 76.700542 
L 136.485359 76.20759 
L 137.299029 75.584401 
L 138.1127 75.472181 
L 138.92637 75.603579 
L 139.740041 74.994431 
L 140.553712 74.576595 
L 141.367382 74.122413 
L 142.181053 74.292002 
L 142.994723 73.817609 
L 143.808394 73.710839 
L 144.622064 73.160084 
L 145.435735 73.179051 
L 146.249405 72.773444 
L 147.063076 72.590965 
L 147.876746 72.37905 
L 148.690417 72.372631 
L 149.504087 71.803727 
L 150.317758 71.455526 
L 151.131429 71.369462 
L 151.945099 70.749129 
L 152.75877 70.55572 
L 153.57244 70.376048 
L 154.386111 70.195937 
L 155.199781 69.707799 
L 156.013452 69.52387 
L 156.827122 69.418785 
L 157.640793 69.10263 
L 158.454463 69.04294 
L 159.268134 68.781434 
L 160.081805 68.797165 
L 160.895475 68.620342 
L 161.709146 68.079482 
L 162.522816 67.818156 
L 163.336487 68.293549 
L 164.150157 67.909353 
L 164.963828 67.587006 
L 165.777498 68.16071 
L 166.591169 68.124161 
L 167.404839 67.759913 
L 168.21851 68.141609 
L 169.03218 67.771882 
L 169.845851 68.13619 
L 170.659522 68.256369 
L 171.473192 68.254165 
L 172.286863 67.926779 
L 173.100533 68.639603 
L 173.914204 68.676331 
L 174.727874 68.28592 
L 175.541545 68.928717 
L 176.355215 68.864115 
L 177.168886 68.236352 
L 177.982556 68.505138 
L 178.796227 68.927889 
L 179.609897 68.11471 
L 180.423568 68.145192 
L 181.237239 68.311358 
L 182.050909 68.128885 
L 182.86458 67.659205 
L 183.67825 67.640975 
L 184.491921 67.88893 
L 185.305591 67.275373 
L 186.119262 66.912986 
L 186.932932 66.932587 
L 187.746603 66.759039 
L 188.560273 66.734194 
L 189.373944 66.549554 
L 190.187614 66.338805 
L 191.001285 66.238492 
L 191.814956 66.2035 
L 192.628626 66.231223 
L 193.442297 66.167673 
L 194.255967 65.921532 
L 195.069638 65.985416 
L 195.883308 66.010182 
L 196.696979 66.038653 
L 197.510649 66.011146 
L 198.32432 65.980321 
L 199.13799 65.906642 
L 199.951661 66.221516 
L 200.765332 66.047075 
L 201.579002 66.287545 
L 202.392673 66.415742 
L 203.206343 66.333262 
L 204.020014 66.456851 
L 204.833684 66.741584 
L 205.647355 66.542083 
L 206.461025 66.679628 
L 207.274696 67.11231 
L 208.088366 66.799997 
L 208.902037 66.901052 
L 209.715707 67.333401 
L 210.529378 66.965228 
L 211.343049 66.869914 
L 212.156719 67.339379 
L 212.97039 67.268098 
L 213.78406 67.18747 
L 214.597731 67.283363 
L 215.411401 67.392849 
L 216.225072 67.505614 
L 217.038742 67.571133 
L 217.852413 67.57922 
L 218.666083 67.492166 
L 219.479754 67.81086 
L 220.293424 67.835315 
L 221.107095 67.754399 
L 221.920766 67.715864 
L 222.734436 67.883229 
L 223.548107 67.784543 
L 224.361777 67.64866 
L 225.175448 67.6686 
L 225.989118 67.733317 
L 226.802789 67.664877 
L 227.616459 67.671894 
L 228.43013 67.459309 
L 229.2438 67.523294 
L 230.057471 67.379113 
L 230.871141 67.289443 
L 231.684812 67.3009 
L 232.498483 67.361523 
L 233.312153 67.280822 
L 234.125824 67.223301 
L 234.939494 66.993958 
L 235.753165 66.836889 
L 236.566835 66.933382 
L 237.380506 66.802166 
L 238.194176 66.65352 
L 239.007847 66.696064 
L 239.821517 66.646874 
L 240.635188 66.574624 
L 241.448859 66.539167 
L 242.262529 66.61756 
L 243.0762 66.585972 
L 243.88987 66.532156 
L 244.703541 66.335359 
L 245.517211 66.480055 
L 246.330882 66.478939 
L 247.144552 66.478866 
L 247.958223 66.406891 
L 248.771893 66.471109 
L 249.585564 66.467273 
L 250.399234 66.456911 
L 251.212905 66.487265 
L 252.026576 66.499971 
L 252.840246 66.485187 
L 253.653917 66.480038 
L 254.467587 66.437416 
L 255.281258 66.516467 
L 256.094928 66.530782 
L 256.908599 66.593264 
L 257.722269 66.697088 
L 258.53594 66.551896 
L 259.34961 66.643874 
L 260.163281 66.776885 
L 260.976951 66.683233 
L 261.790622 66.706731 
L 262.604293 66.686845 
L 263.417963 66.831644 
L 264.231634 66.662258 
L 265.045304 66.813121 
L 265.858975 66.83799 
L 266.672645 66.842256 
L 267.486316 66.69646 
L 268.299986 66.625023 
L 269.113657 66.621242 
L 269.927327 66.763116 
L 270.740998 66.635316 
L 271.554668 66.606133 
L 272.368339 66.599831 
L 273.18201 66.581935 
L 273.99568 66.516745 
L 274.809351 66.457058 
L 275.623021 66.362432 
L 276.436692 66.365889 
L 277.250362 66.265299 
L 278.064033 66.386374 
L 278.877703 66.389813 
L 279.691374 66.322674 
L 280.505044 66.328625 
L 281.318715 66.251522 
L 282.132386 66.374395 
L 282.946056 66.391125 
L 283.759727 66.455182 
L 284.573397 66.347257 
L 285.387068 66.39026 
L 286.200738 66.48832 
L 287.014409 66.523759 
L 287.828079 66.313591 
L 288.64175 66.30981 
L 289.45542 66.31125 
L 290.269091 66.412269 
L 291.082761 66.382359 
L 291.896432 66.305914 
L 292.710103 66.272158 
L 293.523773 66.268047 
L 294.337444 66.407992 
L 295.151114 66.345744 
L 295.964785 66.273037 
L 296.778455 66.286827 
L 297.592126 66.274458 
L 298.405796 66.464239 
L 299.219467 66.355897 
L 300.033137 66.323091 
L 300.846808 66.239027 
L 301.660478 66.214955 
L 302.474149 66.322793 
L 303.28782 66.138074 
L 304.10149 66.2031 
L 304.915161 66.124287 
L 305.728831 66.20329 
L 306.542502 66.187752 
L 307.356172 66.164473 
L 308.169843 66.280686 
L 308.983513 66.218392 
L 309.797184 66.398225 
L 310.610854 66.389054 
L 311.424525 66.335869 
L 312.238195 66.261058 
L 313.051866 66.28084 
L 313.865537 66.234845 
L 314.679207 66.352988 
L 315.492878 66.446431 
L 316.306548 66.281054 
L 317.120219 66.249935 
L 317.933889 66.349977 
L 318.74756 66.163868 
L 319.56123 66.358421 
L 320.374901 66.243653 
L 321.188571 66.299481 
L 322.002242 66.339869 
L 322.815913 66.359207 
L 323.629583 66.320053 
L 324.443254 66.322018 
L 325.256924 66.419203 
L 326.070595 66.41065 
L 326.884265 66.322608 
L 327.697936 66.361684 
L 328.511606 66.379792 
L 329.325277 66.296954 
L 330.138947 66.558218 
L 330.952618 66.578166 
L 331.766288 66.562321 
L 332.579959 66.332008 
L 333.39363 66.314282 
L 334.2073 66.332584 
L 335.020971 66.308029 
L 335.834641 66.312622 
L 336.648312 66.452479 
L 337.461982 66.451079 
L 338.275653 66.451248 
L 339.089323 66.426599 
L 339.902994 66.294564 
L 340.716664 66.263271 
L 341.530335 66.353798 
L 342.344005 66.283261 
L 343.157676 66.440853 
L 343.971347 66.344033 
L 344.785017 66.415618 
L 345.598688 66.325635 
L 346.412358 66.340753 
L 347.226029 66.357162 
L 348.039699 66.316647 
L 348.85337 66.343585 
L 349.66704 66.400564 
L 350.480711 66.451057 
L 351.294381 66.385273 
L 352.108052 66.301824 
L 352.921722 66.428931 
L 353.735393 66.551334 
L 354.549064 66.615107 
L 355.362734 66.681156 
L 356.176405 66.808737 
L 356.990075 66.704818 
L 357.803746 66.537778 
L 358.617416 66.633822 
L 359.431087 66.638065 
L 360.244757 66.756624 
L 361.058428 66.780016 
L 361.872098 66.850694 
L 362.685769 66.893341 
L 363.49944 66.85827 
L 364.31311 66.749076 
L 365.126781 66.620289 
L 365.940451 66.650206 
L 366.754122 66.681054 
L 367.567792 66.68177 
L 368.381463 66.767165 
L 369.195133 66.864729 
L 370.008804 66.981913 
L 370.822474 66.947114 
L 371.636145 66.888227 
L 372.449815 66.802649 
L 373.263486 66.809838 
L 374.077157 66.772488 
L 374.890827 66.749476 
L 375.704498 66.856072 
L 376.518168 66.901287 
L 377.331839 66.950309 
L 378.145509 66.924861 
L 378.95918 66.865865 
L 379.77285 66.782878 
L 380.586521 66.773553 
L 381.400191 66.740712 
L 382.213862 66.702761 
L 383.027532 66.777296 
L 383.841203 66.820743 
L 384.654874 66.889315 
L 385.468544 66.908816 
L 386.282215 66.934906 
L 387.095885 66.993481 
L 387.909556 66.950983 
L 388.723226 66.989573 
L 389.536897 66.924171 
L 390.350567 66.907552 
L 391.164238 66.941006 
L 391.977908 66.978309 
L 392.791579 66.999243 
L 393.605249 67.078626 
L 394.41892 67.112223 
L 395.232591 67.103686 
L 396.046261 66.995176 
L 396.859932 66.893918 
L 397.673602 66.884869 
L 398.487273 66.871538 
L 398.487273 66.239092 
L 398.487273 66.239092 
L 397.673602 66.178262 
L 396.859932 66.157324 
L 396.046261 66.073362 
L 395.232591 65.989166 
L 394.41892 65.914529 
L 393.605249 65.840904 
L 392.791579 65.852261 
L 391.977908 65.865536 
L 391.164238 65.853193 
L 390.350567 65.946232 
L 389.536897 65.996758 
L 388.723226 66.114931 
L 387.909556 66.11867 
L 387.095885 65.981741 
L 386.282215 65.868862 
L 385.468544 65.846529 
L 384.654874 65.703652 
L 383.841203 65.631115 
L 383.027532 65.598471 
L 382.213862 65.663372 
L 381.400191 65.807146 
L 380.586521 65.887302 
L 379.77285 65.888256 
L 378.95918 65.830283 
L 378.145509 65.767285 
L 377.331839 65.782828 
L 376.518168 65.836897 
L 375.704498 65.875339 
L 374.890827 65.902784 
L 374.077157 65.731625 
L 373.263486 65.640623 
L 372.449815 65.609384 
L 371.636145 65.672116 
L 370.822474 65.761795 
L 370.008804 65.80707 
L 369.195133 65.797665 
L 368.381463 65.79695 
L 367.567792 65.854716 
L 366.754122 65.803893 
L 365.940451 65.819502 
L 365.126781 65.739622 
L 364.31311 65.719222 
L 363.49944 65.565952 
L 362.685769 65.64993 
L 361.872098 65.733881 
L 361.058428 65.906879 
L 360.244757 65.963638 
L 359.431087 65.977491 
L 358.617416 65.998447 
L 357.803746 65.938965 
L 356.990075 65.896645 
L 356.176405 65.885286 
L 355.362734 65.579869 
L 354.549064 65.599908 
L 353.735393 65.633181 
L 352.921722 65.727856 
L 352.108052 65.809618 
L 351.294381 65.995695 
L 350.480711 65.893714 
L 349.66704 65.885565 
L 348.85337 65.796268 
L 348.039699 65.712794 
L 347.226029 65.610049 
L 346.412358 65.628206 
L 345.598688 65.676927 
L 344.785017 65.746876 
L 343.971347 65.847781 
L 343.157676 65.882982 
L 342.344005 65.81736 
L 341.530335 65.808023 
L 340.716664 65.784426 
L 339.902994 65.884932 
L 339.089323 65.705562 
L 338.275653 65.551887 
L 337.461982 65.539168 
L 336.648312 65.68483 
L 335.834641 65.695061 
L 335.020971 65.71709 
L 334.2073 65.738244 
L 333.39363 65.774566 
L 332.579959 65.731787 
L 331.766288 65.665488 
L 330.952618 65.511695 
L 330.138947 65.523379 
L 329.325277 65.687335 
L 328.511606 65.763041 
L 327.697936 65.854852 
L 326.884265 65.77108 
L 326.070595 65.599746 
L 325.256924 65.514049 
L 324.443254 65.533412 
L 323.629583 65.416835 
L 322.815913 65.486776 
L 322.002242 65.496421 
L 321.188571 65.485064 
L 320.374901 65.430147 
L 319.56123 65.429379 
L 318.74756 65.476086 
L 317.933889 65.596015 
L 317.120219 65.480062 
L 316.306548 65.515225 
L 315.492878 65.420685 
L 314.679207 65.349871 
L 313.865537 65.407351 
L 313.051866 65.470533 
L 312.238195 65.403966 
L 311.424525 65.486731 
L 310.610854 65.476458 
L 309.797184 65.51159 
L 308.983513 65.484977 
L 308.169843 65.558905 
L 307.356172 65.747853 
L 306.542502 65.761176 
L 305.728831 65.589226 
L 304.915161 65.560085 
L 304.10149 65.595897 
L 303.28782 65.648254 
L 302.474149 65.655822 
L 301.660478 65.66611 
L 300.846808 65.691935 
L 300.033137 65.737378 
L 299.219467 65.606318 
L 298.405796 65.601483 
L 297.592126 65.561351 
L 296.778455 65.603843 
L 295.964785 65.639388 
L 295.151114 65.820904 
L 294.337444 65.861353 
L 293.523773 65.638849 
L 292.710103 65.548569 
L 291.896432 65.479721 
L 291.082761 65.663453 
L 290.269091 65.633783 
L 289.45542 65.482833 
L 288.64175 65.487813 
L 287.828079 65.51448 
L 287.014409 65.61408 
L 286.200738 65.461601 
L 285.387068 65.440292 
L 284.573397 65.39059 
L 283.759727 65.591924 
L 282.946056 65.459206 
L 282.132386 65.506368 
L 281.318715 65.442128 
L 280.505044 65.498429 
L 279.691374 65.608908 
L 278.877703 65.609538 
L 278.064033 65.74285 
L 277.250362 65.744274 
L 276.436692 65.766654 
L 275.623021 65.754328 
L 274.809351 65.859529 
L 273.99568 65.858018 
L 273.18201 66.035245 
L 272.368339 66.07404 
L 271.554668 65.973605 
L 270.740998 66.017119 
L 269.927327 66.135293 
L 269.113657 66.035493 
L 268.299986 66.08478 
L 267.486316 66.121448 
L 266.672645 66.09377 
L 265.858975 66.148673 
L 265.045304 66.150784 
L 264.231634 66.06584 
L 263.417963 66.116921 
L 262.604293 66.058377 
L 261.790622 66.09364 
L 260.976951 66.088869 
L 260.163281 66.022799 
L 259.34961 65.947147 
L 258.53594 66.164971 
L 257.722269 66.101481 
L 256.908599 65.948004 
L 256.094928 65.86041 
L 255.281258 65.814157 
L 254.467587 65.749599 
L 253.653917 65.826643 
L 252.840246 65.714415 
L 252.026576 65.82853 
L 251.212905 65.742799 
L 250.399234 65.921861 
L 249.585564 65.891769 
L 248.771893 65.98397 
L 247.958223 65.861928 
L 247.144552 65.925643 
L 246.330882 65.900812 
L 245.517211 65.920702 
L 244.703541 65.833931 
L 243.88987 65.806125 
L 243.0762 65.805933 
L 242.262529 65.942421 
L 241.448859 65.85092 
L 240.635188 65.752231 
L 239.821517 66.094271 
L 239.007847 65.863179 
L 238.194176 65.898714 
L 237.380506 65.942633 
L 236.566835 65.877202 
L 235.753165 66.236466 
L 234.939494 66.282021 
L 234.125824 66.049768 
L 233.312153 66.07693 
L 232.498483 66.133075 
L 231.684812 66.248235 
L 230.871141 66.352881 
L 230.057471 66.434039 
L 229.2438 66.307195 
L 228.43013 66.360358 
L 227.616459 66.644698 
L 226.802789 66.687512 
L 225.989118 66.677174 
L 225.175448 66.639751 
L 224.361777 66.575176 
L 223.548107 66.630054 
L 222.734436 66.667226 
L 221.920766 66.650994 
L 221.107095 66.522046 
L 220.293424 66.352551 
L 219.479754 66.270449 
L 218.666083 66.341431 
L 217.852413 66.231947 
L 217.038742 66.228999 
L 216.225072 65.981112 
L 215.411401 66.113928 
L 214.597731 65.828198 
L 213.78406 66.065582 
L 212.97039 66.021749 
L 212.156719 65.913981 
L 211.343049 65.783469 
L 210.529378 66.026347 
L 209.715707 66.128037 
L 208.902037 65.946272 
L 208.088366 65.741676 
L 207.274696 65.772966 
L 206.461025 65.998719 
L 205.647355 65.82937 
L 204.833684 65.797436 
L 204.020014 65.748879 
L 203.206343 65.838397 
L 202.392673 65.698299 
L 201.579002 65.585485 
L 200.765332 65.632937 
L 199.951661 65.780783 
L 199.13799 65.660451 
L 198.32432 65.706687 
L 197.510649 65.644274 
L 196.696979 65.991219 
L 195.883308 65.736512 
L 195.069638 65.75381 
L 194.255967 65.660849 
L 193.442297 65.569448 
L 192.628626 65.752778 
L 191.814956 65.572512 
L 191.001285 65.459891 
L 190.187614 65.656019 
L 189.373944 65.698448 
L 188.560273 65.652747 
L 187.746603 66.005017 
L 186.932932 65.904346 
L 186.119262 65.982251 
L 185.305591 66.557165 
L 184.491921 66.211325 
L 183.67825 66.62196 
L 182.86458 66.79222 
L 182.050909 66.504293 
L 181.237239 67.369952 
L 180.423568 67.631681 
L 179.609897 67.066163 
L 178.796227 67.086819 
L 177.982556 67.453753 
L 177.168886 67.822571 
L 176.355215 67.431911 
L 175.541545 67.384996 
L 174.727874 67.393847 
L 173.914204 67.414157 
L 173.100533 67.416777 
L 172.286863 67.329134 
L 171.473192 67.298235 
L 170.659522 67.272808 
L 169.845851 67.2011 
L 169.03218 67.241503 
L 168.21851 67.228673 
L 167.404839 67.054825 
L 166.591169 67.142014 
L 165.777498 66.940882 
L 164.963828 66.885673 
L 164.150157 66.917169 
L 163.336487 67.235722 
L 162.522816 66.69139 
L 161.709146 66.99609 
L 160.895475 67.54832 
L 160.081805 67.005413 
L 159.268134 67.090998 
L 158.454463 67.91699 
L 157.640793 67.572234 
L 156.827122 67.820153 
L 156.013452 68.397973 
L 155.199781 68.25493 
L 154.386111 68.600194 
L 153.57244 68.973635 
L 152.75877 69.205267 
L 151.945099 69.406691 
L 151.131429 69.712922 
L 150.317758 70.323558 
L 149.504087 70.264055 
L 148.690417 70.725666 
L 147.876746 71.415279 
L 147.063076 71.605221 
L 146.249405 71.348767 
L 145.435735 71.706961 
L 144.622064 72.432715 
L 143.808394 72.030578 
L 142.994723 72.266503 
L 142.181053 73.185563 
L 141.367382 72.999959 
L 140.553712 73.111557 
L 139.740041 74.195994 
L 138.92637 74.358843 
L 138.1127 74.209126 
L 137.299029 74.928949 
L 136.485359 76.018619 
L 135.671688 75.230168 
L 134.858018 75.490603 
L 134.044347 76.175329 
L 133.230677 76.248229 
L 132.417006 75.880217 
L 131.603336 76.488391 
L 130.789665 76.832278 
L 129.975995 77.004641 
L 129.162324 77.290051 
L 128.348653 77.659031 
L 127.534983 77.681225 
L 126.721312 77.833494 
L 125.907642 77.893411 
L 125.093971 78.577813 
L 124.280301 78.947805 
L 123.46663 79.002971 
L 122.65296 79.214628 
L 121.839289 79.454474 
L 121.025619 79.72031 
L 120.211948 79.517046 
L 119.398278 80.05632 
L 118.584607 80.48052 
L 117.770936 80.323848 
L 116.957266 80.560622 
L 116.143595 81.224805 
L 115.329925 81.716321 
L 114.516254 81.815414 
L 113.702584 81.591562 
L 112.888913 81.970613 
L 112.075243 83.062955 
L 111.261572 83.623478 
L 110.447902 83.759403 
L 109.634231 83.630647 
L 108.82056 84.753064 
L 108.00689 86.618509 
L 107.193219 88.197226 
L 106.379549 88.572018 
L 105.565878 89.833349 
L 104.752208 91.287586 
L 103.938537 94.087955 
L 103.124867 96.9108 
L 102.311196 98.793371 
L 101.497526 100.192217 
L 100.683855 102.041659 
L 99.870185 103.832823 
L 99.056514 106.78002 
L 98.242843 109.863008 
L 97.429173 111.328218 
L 96.615502 111.812483 
L 95.801832 112.638018 
L 94.988161 114.310472 
L 94.174491 117.213224 
L 93.36082 119.369903 
L 92.54715 120.185027 
L 91.733479 118.893244 
L 90.919809 118.360265 
L 90.106138 118.949521 
L 89.292468 120.93973 
L 88.478797 123.195928 
L 87.665126 125.419571 
L 86.851456 125.810232 
L 86.037785 123.557662 
L 85.224115 121.625987 
L 84.410444 121.170309 
L 83.596774 122.000146 
L 82.783103 123.99501 
L 81.969433 127.378998 
L 81.155762 129.918676 
L 80.342092 131.446478 
L 79.528421 130.040305 
L 78.714751 127.065341 
L 77.90108 127.17815 
L 77.087409 128.962862 
L 76.273739 131.421567 
L 75.460068 137.644041 
L 74.646398 158.072708 
L 73.832727 177.745829 
z
" style="fill:#1f77b4;fill-opacity:0.5;"/>
   </g>
   <g id="PolyCollection_2">
    <path clip-path="url(#p6e750d5150)" d="M 73.832727 163.275462 
L 73.832727 174.587735 
L 74.646398 175.442203 
L 75.460068 175.218862 
L 76.273739 174.911558 
L 77.087409 174.658585 
L 77.90108 174.336205 
L 78.714751 174.370114 
L 79.528421 174.472343 
L 80.342092 173.853067 
L 81.155762 173.554692 
L 81.969433 172.532245 
L 82.783103 172.626997 
L 83.596774 171.774846 
L 84.410444 170.998443 
L 85.224115 169.564334 
L 86.037785 167.438824 
L 86.851456 167.05748 
L 87.665126 166.415464 
L 88.478797 165.616311 
L 89.292468 164.277663 
L 90.106138 162.714871 
L 90.919809 161.88041 
L 91.733479 160.661205 
L 92.54715 159.549742 
L 93.36082 158.738734 
L 94.174491 157.212858 
L 94.988161 156.470472 
L 95.801832 155.012814 
L 96.615502 153.728661 
L 97.429173 152.719451 
L 98.242843 151.93523 
L 99.056514 152.068134 
L 99.870185 151.247813 
L 100.683855 150.973854 
L 101.497526 149.669301 
L 102.311196 149.084421 
L 103.124867 148.63003 
L 103.938537 148.206412 
L 104.752208 148.253286 
L 105.565878 146.670261 
L 106.379549 146.650232 
L 107.193219 146.041582 
L 108.00689 145.360905 
L 108.82056 144.825154 
L 109.634231 143.891454 
L 110.447902 143.45217 
L 111.261572 142.970721 
L 112.075243 142.332975 
L 112.888913 142.011063 
L 113.702584 141.896733 
L 114.516254 141.590931 
L 115.329925 140.781315 
L 116.143595 140.261831 
L 116.957266 139.663094 
L 117.770936 139.158538 
L 118.584607 139.004213 
L 119.398278 138.668626 
L 120.211948 138.089861 
L 121.025619 137.402051 
L 121.839289 137.320839 
L 122.65296 137.022677 
L 123.46663 136.600939 
L 124.280301 136.475177 
L 125.093971 136.213077 
L 125.907642 135.811147 
L 126.721312 135.953534 
L 127.534983 135.700386 
L 128.348653 135.518779 
L 129.162324 135.118846 
L 129.975995 134.664811 
L 130.789665 134.162151 
L 131.603336 133.572081 
L 132.417006 133.394858 
L 133.230677 132.919177 
L 134.044347 132.889685 
L 134.858018 132.683727 
L 135.671688 132.164606 
L 136.485359 131.979014 
L 137.299029 132.109291 
L 138.1127 132.152541 
L 138.92637 131.95597 
L 139.740041 131.838131 
L 140.553712 132.009352 
L 141.367382 131.78732 
L 142.181053 131.39588 
L 142.994723 131.092875 
L 143.808394 130.68095 
L 144.622064 130.895615 
L 145.435735 130.762888 
L 146.249405 130.800066 
L 147.063076 130.643399 
L 147.876746 130.234432 
L 148.690417 130.011622 
L 149.504087 129.686027 
L 150.317758 129.237902 
L 151.131429 129.070982 
L 151.945099 128.937245 
L 152.75877 128.937245 
L 153.57244 128.852597 
L 154.386111 128.629761 
L 155.199781 128.40143 
L 156.013452 128.275668 
L 156.827122 128.080646 
L 157.640793 127.535913 
L 158.454463 127.379654 
L 159.268134 127.145485 
L 160.081805 127.047638 
L 160.895475 127.046563 
L 161.709146 127.136205 
L 162.522816 126.957545 
L 163.336487 126.968671 
L 164.150157 126.909408 
L 164.963828 126.738511 
L 165.777498 126.695356 
L 166.591169 126.602195 
L 167.404839 126.445742 
L 168.21851 125.95145 
L 169.03218 126.026771 
L 169.845851 126.032378 
L 170.659522 125.73936 
L 171.473192 125.414859 
L 172.286863 125.383145 
L 173.100533 125.381679 
L 173.914204 125.194777 
L 174.727874 125.194777 
L 175.541545 124.864535 
L 176.355215 124.733265 
L 177.168886 124.732014 
L 177.982556 124.862491 
L 178.796227 124.750989 
L 179.609897 124.422301 
L 180.423568 124.232166 
L 181.237239 124.361488 
L 182.050909 124.01458 
L 182.86458 124.172047 
L 183.67825 124.020189 
L 184.491921 123.896686 
L 185.305591 123.720226 
L 186.119262 123.416207 
L 186.932932 123.48938 
L 187.746603 123.638289 
L 188.560273 123.707566 
L 189.373944 123.641515 
L 190.187614 123.484302 
L 191.001285 123.316728 
L 191.814956 123.160176 
L 192.628626 123.109754 
L 193.442297 122.954501 
L 194.255967 122.886944 
L 195.069638 122.541073 
L 195.883308 122.387546 
L 196.696979 122.271545 
L 197.510649 122.271545 
L 198.32432 122.136022 
L 199.13799 121.987577 
L 199.951661 122.176495 
L 200.765332 122.030263 
L 201.579002 122.020195 
L 202.392673 122.020195 
L 203.206343 122.006612 
L 204.020014 121.681825 
L 204.833684 121.472114 
L 205.647355 121.456515 
L 206.461025 121.22059 
L 207.274696 121.117791 
L 208.088366 120.770702 
L 208.902037 120.636964 
L 209.715707 120.437759 
L 210.529378 120.437759 
L 211.343049 120.408927 
L 212.156719 120.424206 
L 212.97039 120.427024 
L 213.78406 120.141549 
L 214.597731 120.116958 
L 215.411401 119.910676 
L 216.225072 119.910676 
L 217.038742 119.681206 
L 217.852413 119.449148 
L 218.666083 119.431664 
L 219.479754 119.513083 
L 220.293424 119.253433 
L 221.107095 119.032448 
L 221.920766 119.137143 
L 222.734436 119.075976 
L 223.548107 119.352973 
L 224.361777 119.352973 
L 225.175448 119.299555 
L 225.989118 119.254184 
L 226.802789 119.254184 
L 227.616459 119.095332 
L 228.43013 119.227916 
L 229.2438 118.870889 
L 230.057471 118.651441 
L 230.871141 118.438229 
L 231.684812 118.483229 
L 232.498483 118.362426 
L 233.312153 118.326073 
L 234.125824 118.17619 
L 234.939494 118.217826 
L 235.753165 118.267627 
L 236.566835 118.147541 
L 237.380506 118.063272 
L 238.194176 118.063272 
L 239.007847 117.775204 
L 239.821517 117.665952 
L 240.635188 117.630315 
L 241.448859 117.513083 
L 242.262529 117.389409 
L 243.0762 117.389409 
L 243.88987 117.198949 
L 244.703541 117.154399 
L 245.517211 117.154399 
L 246.330882 117.030989 
L 247.144552 116.856336 
L 247.958223 116.960054 
L 248.771893 117.073189 
L 249.585564 116.983668 
L 250.399234 116.878371 
L 251.212905 116.732145 
L 252.026576 116.501792 
L 252.840246 116.211522 
L 253.653917 116.174519 
L 254.467587 116.109982 
L 255.281258 116.042453 
L 256.094928 115.76835 
L 256.908599 115.674462 
L 257.722269 115.641079 
L 258.53594 115.300458 
L 259.34961 115.265302 
L 260.163281 115.048935 
L 260.976951 114.959176 
L 261.790622 114.614657 
L 262.604293 114.614657 
L 263.417963 114.518457 
L 264.231634 114.149668 
L 265.045304 114.106672 
L 265.858975 113.893438 
L 266.672645 113.84506 
L 267.486316 113.795452 
L 268.299986 113.68395 
L 269.113657 113.708946 
L 269.927327 113.428435 
L 270.740998 113.407758 
L 271.554668 113.594652 
L 272.368339 113.551856 
L 273.18201 113.734323 
L 273.99568 113.927239 
L 274.809351 113.819454 
L 275.623021 113.423357 
L 276.436692 113.423357 
L 277.250362 113.241896 
L 278.064033 113.241896 
L 278.877703 113.241896 
L 279.691374 112.965342 
L 280.505044 112.892049 
L 281.318715 112.657369 
L 282.132386 112.657369 
L 282.946056 112.346005 
L 283.759727 112.280723 
L 284.573397 111.94828 
L 285.387068 111.94828 
L 286.200738 111.83287 
L 287.014409 111.83287 
L 287.828079 111.919292 
L 288.64175 111.67176 
L 289.45542 111.594596 
L 290.269091 111.435387 
L 291.082761 111.404461 
L 291.896432 111.395568 
L 292.710103 111.32741 
L 293.523773 111.32741 
L 294.337444 110.996706 
L 295.151114 110.697528 
L 295.964785 110.544926 
L 296.778455 110.435508 
L 297.592126 110.315806 
L 298.405796 110.183984 
L 299.219467 110.137952 
L 300.033137 110.283623 
L 300.846808 110.230016 
L 301.660478 110.223401 
L 302.474149 110.058222 
L 303.28782 110.064282 
L 304.10149 109.93246 
L 304.915161 109.906338 
L 305.728831 109.846115 
L 306.542502 109.812758 
L 307.356172 109.971877 
L 308.169843 109.81827 
L 308.983513 109.946157 
L 309.797184 109.677735 
L 310.610854 109.602415 
L 311.424525 109.602415 
L 312.238195 109.776148 
L 313.051866 109.719421 
L 313.865537 109.516087 
L 314.679207 109.516087 
L 315.492878 109.191234 
L 316.306548 109.131857 
L 317.120219 108.984731 
L 317.933889 108.995541 
L 318.74756 108.995541 
L 319.56123 108.713326 
L 320.374901 108.453441 
L 321.188571 108.481684 
L 322.002242 108.481684 
L 322.815913 108.411203 
L 323.629583 108.32479 
L 324.443254 108.311541 
L 325.256924 108.159679 
L 326.070595 108.059729 
L 326.884265 108.059729 
L 327.697936 108.059729 
L 328.511606 108.059729 
L 329.325277 107.908156 
L 330.138947 107.933615 
L 330.952618 108.004823 
L 331.766288 107.484248 
L 332.579959 107.43092 
L 333.39363 107.556969 
L 334.2073 107.279346 
L 335.020971 107.162498 
L 335.834641 107.179044 
L 336.648312 107.000849 
L 337.461982 106.892812 
L 338.275653 106.892812 
L 339.089323 106.721018 
L 339.902994 106.4227 
L 340.716664 106.50634 
L 341.530335 106.497802 
L 342.344005 106.50331 
L 343.157676 106.343732 
L 343.971347 106.246278 
L 344.785017 106.226629 
L 345.598688 106.226629 
L 346.412358 106.226629 
L 347.226029 106.062346 
L 348.039699 106.047539 
L 348.85337 105.975106 
L 349.66704 105.948876 
L 350.480711 105.948876 
L 351.294381 105.921778 
L 352.108052 105.921778 
L 352.921722 105.921778 
L 353.735393 105.946565 
L 354.549064 105.867742 
L 355.362734 105.867742 
L 356.176405 105.697353 
L 356.990075 105.631202 
L 357.803746 105.575935 
L 358.617416 105.631202 
L 359.431087 105.614708 
L 360.244757 105.597864 
L 361.058428 105.437465 
L 361.872098 105.437465 
L 362.685769 105.53777 
L 363.49944 105.376787 
L 364.31311 105.376787 
L 365.126781 105.238062 
L 365.940451 105.242176 
L 366.754122 105.125264 
L 367.567792 105.024148 
L 368.381463 104.986539 
L 369.195133 104.986539 
L 370.008804 105.005554 
L 370.822474 104.896771 
L 371.636145 104.916587 
L 372.449815 104.684071 
L 373.263486 104.753504 
L 374.077157 104.753504 
L 374.890827 104.641435 
L 375.704498 104.709036 
L 376.518168 104.578219 
L 377.331839 104.622769 
L 378.145509 104.622769 
L 378.95918 104.622769 
L 379.77285 104.65901 
L 380.586521 104.607737 
L 381.400191 104.607737 
L 382.213862 104.607737 
L 383.027532 104.607737 
L 383.841203 104.485636 
L 384.654874 104.607737 
L 385.468544 104.72389 
L 386.282215 104.607737 
L 387.095885 104.517232 
L 387.909556 104.389911 
L 388.723226 104.385696 
L 389.536897 104.385696 
L 390.350567 104.368508 
L 391.164238 104.385696 
L 391.977908 104.247879 
L 392.791579 104.234976 
L 393.605249 104.247879 
L 394.41892 104.383872 
L 395.232591 104.280154 
L 396.046261 104.122117 
L 396.859932 104.265708 
L 397.673602 104.122117 
L 398.487273 104.116984 
L 398.487273 102.073595 
L 398.487273 102.073595 
L 397.673602 102.194224 
L 396.859932 102.176395 
L 396.046261 102.194224 
L 395.232591 102.287711 
L 394.41892 102.309755 
L 393.605249 102.319986 
L 392.791579 102.207127 
L 391.977908 102.319986 
L 391.164238 102.18217 
L 390.350567 102.325119 
L 389.536897 102.18217 
L 388.723226 102.18217 
L 387.909556 102.429478 
L 387.095885 102.427919 
L 386.282215 102.211652 
L 385.468544 102.221261 
L 384.654874 102.211652 
L 383.841203 102.207991 
L 383.027532 102.211652 
L 382.213862 102.211652 
L 381.400191 102.211652 
L 380.586521 102.211652 
L 379.77285 102.28614 
L 378.95918 102.448143 
L 378.145509 102.448143 
L 377.331839 102.448143 
L 376.518168 102.492694 
L 375.704498 102.487638 
L 374.890827 102.681001 
L 374.077157 102.694694 
L 373.263486 102.694694 
L 372.449815 103.015651 
L 371.636145 103.160419 
L 370.822474 103.305997 
L 370.008804 103.322976 
L 369.195133 103.341991 
L 368.381463 103.341991 
L 367.567792 103.304382 
L 366.754122 103.329027 
L 365.940451 103.463638 
L 365.126781 103.593514 
L 364.31311 103.580551 
L 363.49944 103.580551 
L 362.685769 103.54533 
L 361.872098 103.645636 
L 361.058428 103.645636 
L 360.244757 103.736761 
L 359.431087 103.719917 
L 358.617416 104.080708 
L 357.803746 104.010214 
L 356.990075 104.080708 
L 356.176405 104.517605 
L 355.362734 104.472978 
L 354.549064 104.472978 
L 353.735393 104.645676 
L 352.921722 104.670465 
L 352.108052 104.670465 
L 351.294381 104.670465 
L 350.480711 104.769127 
L 349.66704 104.769127 
L 348.85337 104.742898 
L 348.039699 104.796227 
L 347.226029 105.032941 
L 346.412358 104.99442 
L 345.598688 104.99442 
L 344.785017 104.99442 
L 343.971347 105.100533 
L 343.157676 105.254602 
L 342.344005 105.220786 
L 341.530335 105.352057 
L 340.716664 105.469281 
L 339.902994 105.678682 
L 339.089323 105.631888 
L 338.275653 105.585856 
L 337.461982 105.585856 
L 336.648312 105.855104 
L 335.834641 106.054195 
L 335.020971 106.196503 
L 334.2073 106.079654 
L 333.39363 106.179317 
L 332.579959 106.179605 
L 331.766288 106.252038 
L 330.952618 106.360273 
L 330.138947 106.808766 
L 329.325277 106.708464 
L 328.511606 106.808414 
L 327.697936 106.808414 
L 326.884265 106.808414 
L 326.070595 106.808414 
L 325.256924 106.959988 
L 324.443254 106.933888 
L 323.629583 107.172163 
L 322.815913 107.211511 
L 322.002242 107.392554 
L 321.188571 107.392554 
L 320.374901 107.546559 
L 319.56123 107.412435 
L 318.74756 107.507506 
L 317.933889 107.507506 
L 317.120219 107.895602 
L 316.306548 107.874238 
L 315.492878 108.066385 
L 314.679207 108.370341 
L 313.865537 108.370341 
L 313.051866 108.41853 
L 312.238195 108.739089 
L 311.424525 108.661299 
L 310.610854 108.661299 
L 309.797184 108.71174 
L 308.983513 108.694842 
L 308.169843 109.074253 
L 307.356172 109.423694 
L 306.542502 109.45705 
L 305.728831 109.297932 
L 304.915161 109.489233 
L 304.10149 109.714634 
L 303.28782 109.708574 
L 302.474149 109.840396 
L 301.660478 109.675217 
L 300.846808 109.794364 
L 300.033137 109.866518 
L 299.219467 109.886428 
L 298.405796 109.966158 
L 297.592126 109.960098 
L 296.778455 110.217682 
L 295.964785 109.982502 
L 295.151114 110.081423 
L 294.337444 110.285291 
L 293.523773 110.583395 
L 292.710103 110.583395 
L 291.896432 110.640999 
L 291.082761 110.506344 
L 290.269091 110.60118 
L 289.45542 110.441971 
L 288.64175 110.364807 
L 287.828079 110.368798 
L 287.014409 110.455221 
L 286.200738 110.455221 
L 285.387068 110.465572 
L 284.573397 110.465572 
L 283.759727 110.636176 
L 282.946056 110.696656 
L 282.132386 110.762577 
L 281.318715 110.762577 
L 280.505044 111.030945 
L 279.691374 111.209175 
L 278.877703 111.309907 
L 278.064033 111.309907 
L 277.250362 111.309907 
L 276.436692 111.37997 
L 275.623021 111.37997 
L 274.809351 111.486921 
L 273.99568 111.504897 
L 273.18201 111.446289 
L 272.368339 111.377232 
L 271.554668 111.334437 
L 270.740998 111.647092 
L 269.927327 111.877938 
L 269.113657 112.226236 
L 268.299986 112.376994 
L 267.486316 112.265493 
L 266.672645 112.467408 
L 265.858975 112.544792 
L 265.045304 112.45732 
L 264.231634 112.288562 
L 263.417963 112.297059 
L 262.604293 112.32662 
L 261.790622 112.32662 
L 260.976951 112.485149 
L 260.163281 112.521152 
L 259.34961 112.556308 
L 258.53594 112.772676 
L 257.722269 112.809341 
L 256.908599 113.027481 
L 256.094928 113.059356 
L 255.281258 113.539824 
L 254.467587 113.723818 
L 253.653917 113.910805 
L 252.840246 114.251088 
L 252.026576 114.338103 
L 251.212905 114.359274 
L 250.399234 114.590334 
L 249.585564 114.610798 
L 248.771893 114.898563 
L 247.958223 114.885936 
L 247.144552 114.863893 
L 246.330882 115.066525 
L 245.517211 115.068876 
L 244.703541 115.068876 
L 243.88987 115.024325 
L 243.0762 115.211151 
L 242.262529 115.211151 
L 241.448859 115.087477 
L 240.635188 114.71872 
L 239.821517 114.557321 
L 239.007847 114.573831 
L 238.194176 114.663049 
L 237.380506 114.663049 
L 236.566835 114.956065 
L 235.753165 114.961742 
L 234.939494 115.137304 
L 234.125824 115.17894 
L 233.312153 115.406341 
L 232.498483 115.621512 
L 231.684812 115.626471 
L 230.871141 116.174518 
L 230.057471 116.21283 
L 229.2438 116.244906 
L 228.43013 116.265165 
L 227.616459 116.271987 
L 226.802789 116.616183 
L 225.989118 116.616183 
L 225.175448 116.822335 
L 224.361777 117.02044 
L 223.548107 117.02044 
L 222.734436 117.297437 
L 221.920766 117.487794 
L 221.107095 117.466728 
L 220.293424 117.497266 
L 219.479754 117.48914 
L 218.666083 117.570558 
L 217.852413 117.804598 
L 217.038742 118.075586 
L 216.225072 118.223403 
L 215.411401 118.223403 
L 214.597731 118.268644 
L 213.78406 117.992529 
L 212.97039 118.08434 
L 212.156719 118.338682 
L 211.343049 118.353961 
L 210.529378 118.576653 
L 209.715707 118.576653 
L 208.902037 118.754733 
L 208.088366 118.746757 
L 207.274696 119.028478 
L 206.461025 119.177202 
L 205.647355 119.192801 
L 204.833684 119.428726 
L 204.020014 119.5963 
L 203.206343 119.77456 
L 202.392673 120.264026 
L 201.579002 120.264026 
L 200.765332 120.505481 
L 199.951661 120.610773 
L 199.13799 120.548167 
L 198.32432 120.525484 
L 197.510649 120.641485 
L 196.696979 120.641485 
L 195.883308 120.777008 
L 195.069638 120.749242 
L 194.255967 120.654894 
L 193.442297 120.838861 
L 192.628626 120.935131 
L 191.814956 121.136233 
L 191.001285 121.231205 
L 190.187614 121.440916 
L 189.373944 121.409465 
L 188.560273 121.846462 
L 187.746603 121.789977 
L 186.932932 121.938886 
L 186.119262 122.263582 
L 185.305591 122.462609 
L 184.491921 122.28615 
L 183.67825 122.665694 
L 182.86458 123.142642 
L 182.050909 123.048587 
L 181.237239 123.078965 
L 180.423568 123.334047 
L 179.609897 123.269674 
L 178.796227 123.444034 
L 177.982556 123.332532 
L 177.168886 123.337247 
L 176.355215 123.58752 
L 175.541545 123.582011 
L 174.727874 123.629055 
L 173.914204 123.629055 
L 173.100533 123.567915 
L 172.286863 123.943735 
L 171.473192 124.163544 
L 170.659522 124.593615 
L 169.845851 124.677882 
L 169.03218 125.060775 
L 168.21851 125.010334 
L 167.404839 125.144851 
L 166.591169 125.11416 
L 165.777498 125.272523 
L 164.963828 125.480892 
L 164.150157 125.813042 
L 163.336487 125.879541 
L 162.522816 126.016429 
L 161.709146 126.340817 
L 160.895475 126.430458 
L 160.081805 126.303621 
L 159.268134 126.58306 
L 158.454463 126.726176 
L 157.640793 126.569918 
L 156.827122 126.779755 
L 156.013452 126.836258 
L 155.199781 126.962019 
L 154.386111 126.985212 
L 153.57244 126.888136 
L 152.75877 127.055014 
L 151.945099 127.055014 
L 151.131429 127.047038 
L 150.317758 127.257403 
L 149.504087 127.186562 
L 148.690417 127.615539 
L 147.876746 127.770014 
L 147.063076 128.115619 
L 146.249405 128.210473 
L 145.435735 128.499176 
L 144.622064 128.617972 
L 143.808394 128.832637 
L 142.994723 129.301044 
L 142.181053 129.501086 
L 141.367382 129.612694 
L 140.553712 129.89371 
L 139.740041 129.939168 
L 138.92637 129.569806 
L 138.1127 129.62476 
L 137.299029 129.79377 
L 136.485359 129.924048 
L 135.671688 129.98998 
L 134.858018 130.351191 
L 134.044347 130.774043 
L 133.230677 130.744551 
L 132.417006 131.65225 
L 131.603336 131.852313 
L 130.789665 132.016814 
L 129.975995 132.268725 
L 129.162324 132.56926 
L 128.348653 132.798136 
L 127.534983 133.496862 
L 126.721312 133.621 
L 125.907642 134.01491 
L 125.093971 134.493312 
L 124.280301 134.482737 
L 123.46663 134.608498 
L 122.65296 134.815568 
L 121.839289 135.146215 
L 121.025619 135.316528 
L 120.211948 135.886335 
L 119.398278 135.936379 
L 118.584607 135.978078 
L 117.770936 136.3268 
L 116.957266 136.954101 
L 116.143595 137.235697 
L 115.329925 137.84807 
L 114.516254 138.421833 
L 113.702584 138.8706 
L 112.888913 139.38508 
L 112.075243 140.069263 
L 111.261572 141.192182 
L 110.447902 141.591066 
L 109.634231 141.277544 
L 108.82056 142.104509 
L 108.00689 142.071805 
L 107.193219 143.151794 
L 106.379549 143.549239 
L 105.565878 144.032258 
L 104.752208 144.084135 
L 103.938537 143.376438 
L 103.124867 144.210438 
L 102.311196 145.139428 
L 101.497526 145.686403 
L 100.683855 146.268278 
L 99.870185 147.377699 
L 99.056514 147.563473 
L 98.242843 148.325185 
L 97.429173 148.798584 
L 96.615502 149.550037 
L 95.801832 150.026552 
L 94.988161 150.203797 
L 94.174491 150.844791 
L 93.36082 152.966007 
L 92.54715 153.286854 
L 91.733479 154.942152 
L 90.919809 155.860897 
L 90.106138 158.04472 
L 89.292468 158.997166 
L 88.478797 161.054085 
L 87.665126 162.015598 
L 86.851456 163.511533 
L 86.037785 164.765092 
L 85.224115 166.538199 
L 84.410444 168.122373 
L 83.596774 168.855113 
L 82.783103 169.386342 
L 81.969433 170.109902 
L 81.155762 171.351168 
L 80.342092 172.184648 
L 79.528421 172.822991 
L 78.714751 172.92522 
L 77.90108 173.08489 
L 77.087409 173.014035 
L 76.273739 172.383776 
L 75.460068 170.441569 
L 74.646398 169.337895 
L 73.832727 163.275462 
z
" style="fill:#ff7f0e;fill-opacity:0.5;"/>
   </g>
   <g id="matplotlib.axis_1">
    <g id="xtick_1">
     <g id="line2d_1">
      <path clip-path="url(#p6e750d5150)" d="M 73.832727 307.584 
L 73.832727 41.472 
" style="fill:none;stroke:#b0b0b0;stroke-linecap:square;stroke-width:0.8;"/>
     </g>
     <g id="line2d_2">
      <defs>
       <path d="M 0 0 
L 0 3.5 
" id="m3840f6fc77" style="stroke:#000000;stroke-width:0.8;"/>
      </defs>
      <g>
       <use style="stroke:#000000;stroke-width:0.8;" x="73.832727" xlink:href="#m3840f6fc77" y="307.584"/>
      </g>
     </g>
     <g id="text_1">
      <!-- 0 -->
      <g transform="translate(70.651477 322.182437)scale(0.1 -0.1)">
       <defs>
        <path d="M 31.78125 66.40625 
Q 24.171875 66.40625 20.328125 58.90625 
Q 16.5 51.421875 16.5 36.375 
Q 16.5 21.390625 20.328125 13.890625 
Q 24.171875 6.390625 31.78125 6.390625 
Q 39.453125 6.390625 43.28125 13.890625 
Q 47.125 21.390625 47.125 36.375 
Q 47.125 51.421875 43.28125 58.90625 
Q 39.453125 66.40625 31.78125 66.40625 
z
M 31.78125 74.21875 
Q 44.046875 74.21875 50.515625 64.515625 
Q 56.984375 54.828125 56.984375 36.375 
Q 56.984375 17.96875 50.515625 8.265625 
Q 44.046875 -1.421875 31.78125 -1.421875 
Q 19.53125 -1.421875 13.0625 8.265625 
Q 6.59375 17.96875 6.59375 36.375 
Q 6.59375 54.828125 13.0625 64.515625 
Q 19.53125 74.21875 31.78125 74.21875 
z
" id="DejaVuSans-48"/>
       </defs>
       <use xlink:href="#DejaVuSans-48"/>
      </g>
     </g>
    </g>
    <g id="xtick_2">
     <g id="line2d_3">
      <path clip-path="url(#p6e750d5150)" d="M 114.516254 307.584 
L 114.516254 41.472 
" style="fill:none;stroke:#b0b0b0;stroke-linecap:square;stroke-width:0.8;"/>
     </g>
     <g id="line2d_4">
      <g>
       <use style="stroke:#000000;stroke-width:0.8;" x="114.516254" xlink:href="#m3840f6fc77" y="307.584"/>
      </g>
     </g>
     <g id="text_2">
      <!-- 50 -->
      <g transform="translate(108.153754 322.182437)scale(0.1 -0.1)">
       <defs>
        <path d="M 10.796875 72.90625 
L 49.515625 72.90625 
L 49.515625 64.59375 
L 19.828125 64.59375 
L 19.828125 46.734375 
Q 21.96875 47.46875 24.109375 47.828125 
Q 26.265625 48.1875 28.421875 48.1875 
Q 40.625 48.1875 47.75 41.5 
Q 54.890625 34.8125 54.890625 23.390625 
Q 54.890625 11.625 47.5625 5.09375 
Q 40.234375 -1.421875 26.90625 -1.421875 
Q 22.3125 -1.421875 17.546875 -0.640625 
Q 12.796875 0.140625 7.71875 1.703125 
L 7.71875 11.625 
Q 12.109375 9.234375 16.796875 8.0625 
Q 21.484375 6.890625 26.703125 6.890625 
Q 35.15625 6.890625 40.078125 11.328125 
Q 45.015625 15.765625 45.015625 23.390625 
Q 45.015625 31 40.078125 35.4375 
Q 35.15625 39.890625 26.703125 39.890625 
Q 22.75 39.890625 18.8125 39.015625 
Q 14.890625 38.140625 10.796875 36.28125 
z
" id="DejaVuSans-53"/>
       </defs>
       <use xlink:href="#DejaVuSans-53"/>
       <use x="63.623047" xlink:href="#DejaVuSans-48"/>
      </g>
     </g>
    </g>
    <g id="xtick_3">
     <g id="line2d_5">
      <path clip-path="url(#p6e750d5150)" d="M 155.199781 307.584 
L 155.199781 41.472 
" style="fill:none;stroke:#b0b0b0;stroke-linecap:square;stroke-width:0.8;"/>
     </g>
     <g id="line2d_6">
      <g>
       <use style="stroke:#000000;stroke-width:0.8;" x="155.199781" xlink:href="#m3840f6fc77" y="307.584"/>
      </g>
     </g>
     <g id="text_3">
      <!-- 100 -->
      <g transform="translate(145.656031 322.182437)scale(0.1 -0.1)">
       <defs>
        <path d="M 12.40625 8.296875 
L 28.515625 8.296875 
L 28.515625 63.921875 
L 10.984375 60.40625 
L 10.984375 69.390625 
L 28.421875 72.90625 
L 38.28125 72.90625 
L 38.28125 8.296875 
L 54.390625 8.296875 
L 54.390625 0 
L 12.40625 0 
z
" id="DejaVuSans-49"/>
       </defs>
       <use xlink:href="#DejaVuSans-49"/>
       <use x="63.623047" xlink:href="#DejaVuSans-48"/>
       <use x="127.246094" xlink:href="#DejaVuSans-48"/>
      </g>
     </g>
    </g>
    <g id="xtick_4">
     <g id="line2d_7">
      <path clip-path="url(#p6e750d5150)" d="M 195.883308 307.584 
L 195.883308 41.472 
" style="fill:none;stroke:#b0b0b0;stroke-linecap:square;stroke-width:0.8;"/>
     </g>
     <g id="line2d_8">
      <g>
       <use style="stroke:#000000;stroke-width:0.8;" x="195.883308" xlink:href="#m3840f6fc77" y="307.584"/>
      </g>
     </g>
     <g id="text_4">
      <!-- 150 -->
      <g transform="translate(186.339558 322.182437)scale(0.1 -0.1)">
       <use xlink:href="#DejaVuSans-49"/>
       <use x="63.623047" xlink:href="#DejaVuSans-53"/>
       <use x="127.246094" xlink:href="#DejaVuSans-48"/>
      </g>
     </g>
    </g>
    <g id="xtick_5">
     <g id="line2d_9">
      <path clip-path="url(#p6e750d5150)" d="M 236.566835 307.584 
L 236.566835 41.472 
" style="fill:none;stroke:#b0b0b0;stroke-linecap:square;stroke-width:0.8;"/>
     </g>
     <g id="line2d_10">
      <g>
       <use style="stroke:#000000;stroke-width:0.8;" x="236.566835" xlink:href="#m3840f6fc77" y="307.584"/>
      </g>
     </g>
     <g id="text_5">
      <!-- 200 -->
      <g transform="translate(227.023085 322.182437)scale(0.1 -0.1)">
       <defs>
        <path d="M 19.1875 8.296875 
L 53.609375 8.296875 
L 53.609375 0 
L 7.328125 0 
L 7.328125 8.296875 
Q 12.9375 14.109375 22.625 23.890625 
Q 32.328125 33.6875 34.8125 36.53125 
Q 39.546875 41.84375 41.421875 45.53125 
Q 43.3125 49.21875 43.3125 52.78125 
Q 43.3125 58.59375 39.234375 62.25 
Q 35.15625 65.921875 28.609375 65.921875 
Q 23.96875 65.921875 18.8125 64.3125 
Q 13.671875 62.703125 7.8125 59.421875 
L 7.8125 69.390625 
Q 13.765625 71.78125 18.9375 73 
Q 24.125 74.21875 28.421875 74.21875 
Q 39.75 74.21875 46.484375 68.546875 
Q 53.21875 62.890625 53.21875 53.421875 
Q 53.21875 48.921875 51.53125 44.890625 
Q 49.859375 40.875 45.40625 35.40625 
Q 44.1875 33.984375 37.640625 27.21875 
Q 31.109375 20.453125 19.1875 8.296875 
z
" id="DejaVuSans-50"/>
       </defs>
       <use xlink:href="#DejaVuSans-50"/>
       <use x="63.623047" xlink:href="#DejaVuSans-48"/>
       <use x="127.246094" xlink:href="#DejaVuSans-48"/>
      </g>
     </g>
    </g>
    <g id="xtick_6">
     <g id="line2d_11">
      <path clip-path="url(#p6e750d5150)" d="M 277.250362 307.584 
L 277.250362 41.472 
" style="fill:none;stroke:#b0b0b0;stroke-linecap:square;stroke-width:0.8;"/>
     </g>
     <g id="line2d_12">
      <g>
       <use style="stroke:#000000;stroke-width:0.8;" x="277.250362" xlink:href="#m3840f6fc77" y="307.584"/>
      </g>
     </g>
     <g id="text_6">
      <!-- 250 -->
      <g transform="translate(267.706612 322.182437)scale(0.1 -0.1)">
       <use xlink:href="#DejaVuSans-50"/>
       <use x="63.623047" xlink:href="#DejaVuSans-53"/>
       <use x="127.246094" xlink:href="#DejaVuSans-48"/>
      </g>
     </g>
    </g>
    <g id="xtick_7">
     <g id="line2d_13">
      <path clip-path="url(#p6e750d5150)" d="M 317.933889 307.584 
L 317.933889 41.472 
" style="fill:none;stroke:#b0b0b0;stroke-linecap:square;stroke-width:0.8;"/>
     </g>
     <g id="line2d_14">
      <g>
       <use style="stroke:#000000;stroke-width:0.8;" x="317.933889" xlink:href="#m3840f6fc77" y="307.584"/>
      </g>
     </g>
     <g id="text_7">
      <!-- 300 -->
      <g transform="translate(308.390139 322.182437)scale(0.1 -0.1)">
       <defs>
        <path d="M 40.578125 39.3125 
Q 47.65625 37.796875 51.625 33 
Q 55.609375 28.21875 55.609375 21.1875 
Q 55.609375 10.40625 48.1875 4.484375 
Q 40.765625 -1.421875 27.09375 -1.421875 
Q 22.515625 -1.421875 17.65625 -0.515625 
Q 12.796875 0.390625 7.625 2.203125 
L 7.625 11.71875 
Q 11.71875 9.328125 16.59375 8.109375 
Q 21.484375 6.890625 26.8125 6.890625 
Q 36.078125 6.890625 40.9375 10.546875 
Q 45.796875 14.203125 45.796875 21.1875 
Q 45.796875 27.640625 41.28125 31.265625 
Q 36.765625 34.90625 28.71875 34.90625 
L 20.21875 34.90625 
L 20.21875 43.015625 
L 29.109375 43.015625 
Q 36.375 43.015625 40.234375 45.921875 
Q 44.09375 48.828125 44.09375 54.296875 
Q 44.09375 59.90625 40.109375 62.90625 
Q 36.140625 65.921875 28.71875 65.921875 
Q 24.65625 65.921875 20.015625 65.03125 
Q 15.375 64.15625 9.8125 62.3125 
L 9.8125 71.09375 
Q 15.4375 72.65625 20.34375 73.4375 
Q 25.25 74.21875 29.59375 74.21875 
Q 40.828125 74.21875 47.359375 69.109375 
Q 53.90625 64.015625 53.90625 55.328125 
Q 53.90625 49.265625 50.4375 45.09375 
Q 46.96875 40.921875 40.578125 39.3125 
z
" id="DejaVuSans-51"/>
       </defs>
       <use xlink:href="#DejaVuSans-51"/>
       <use x="63.623047" xlink:href="#DejaVuSans-48"/>
       <use x="127.246094" xlink:href="#DejaVuSans-48"/>
      </g>
     </g>
    </g>
    <g id="xtick_8">
     <g id="line2d_15">
      <path clip-path="url(#p6e750d5150)" d="M 358.617416 307.584 
L 358.617416 41.472 
" style="fill:none;stroke:#b0b0b0;stroke-linecap:square;stroke-width:0.8;"/>
     </g>
     <g id="line2d_16">
      <g>
       <use style="stroke:#000000;stroke-width:0.8;" x="358.617416" xlink:href="#m3840f6fc77" y="307.584"/>
      </g>
     </g>
     <g id="text_8">
      <!-- 350 -->
      <g transform="translate(349.073666 322.182437)scale(0.1 -0.1)">
       <use xlink:href="#DejaVuSans-51"/>
       <use x="63.623047" xlink:href="#DejaVuSans-53"/>
       <use x="127.246094" xlink:href="#DejaVuSans-48"/>
      </g>
     </g>
    </g>
    <g id="xtick_9">
     <g id="line2d_17">
      <path clip-path="url(#p6e750d5150)" d="M 399.300943 307.584 
L 399.300943 41.472 
" style="fill:none;stroke:#b0b0b0;stroke-linecap:square;stroke-width:0.8;"/>
     </g>
     <g id="line2d_18">
      <g>
       <use style="stroke:#000000;stroke-width:0.8;" x="399.300943" xlink:href="#m3840f6fc77" y="307.584"/>
      </g>
     </g>
     <g id="text_9">
      <!-- 400 -->
      <g transform="translate(389.757193 322.182437)scale(0.1 -0.1)">
       <defs>
        <path d="M 37.796875 64.3125 
L 12.890625 25.390625 
L 37.796875 25.390625 
z
M 35.203125 72.90625 
L 47.609375 72.90625 
L 47.609375 25.390625 
L 58.015625 25.390625 
L 58.015625 17.1875 
L 47.609375 17.1875 
L 47.609375 0 
L 37.796875 0 
L 37.796875 17.1875 
L 4.890625 17.1875 
L 4.890625 26.703125 
z
" id="DejaVuSans-52"/>
       </defs>
       <use xlink:href="#DejaVuSans-52"/>
       <use x="63.623047" xlink:href="#DejaVuSans-48"/>
       <use x="127.246094" xlink:href="#DejaVuSans-48"/>
      </g>
     </g>
    </g>
    <g id="text_10">
     <!-- rounds -->
     <g transform="translate(219.04125 335.860562)scale(0.1 -0.1)">
      <defs>
       <path d="M 41.109375 46.296875 
Q 39.59375 47.171875 37.8125 47.578125 
Q 36.03125 48 33.890625 48 
Q 26.265625 48 22.1875 43.046875 
Q 18.109375 38.09375 18.109375 28.8125 
L 18.109375 0 
L 9.078125 0 
L 9.078125 54.6875 
L 18.109375 54.6875 
L 18.109375 46.1875 
Q 20.953125 51.171875 25.484375 53.578125 
Q 30.03125 56 36.53125 56 
Q 37.453125 56 38.578125 55.875 
Q 39.703125 55.765625 41.0625 55.515625 
z
" id="DejaVuSans-114"/>
       <path d="M 30.609375 48.390625 
Q 23.390625 48.390625 19.1875 42.75 
Q 14.984375 37.109375 14.984375 27.296875 
Q 14.984375 17.484375 19.15625 11.84375 
Q 23.34375 6.203125 30.609375 6.203125 
Q 37.796875 6.203125 41.984375 11.859375 
Q 46.1875 17.53125 46.1875 27.296875 
Q 46.1875 37.015625 41.984375 42.703125 
Q 37.796875 48.390625 30.609375 48.390625 
z
M 30.609375 56 
Q 42.328125 56 49.015625 48.375 
Q 55.71875 40.765625 55.71875 27.296875 
Q 55.71875 13.875 49.015625 6.21875 
Q 42.328125 -1.421875 30.609375 -1.421875 
Q 18.84375 -1.421875 12.171875 6.21875 
Q 5.515625 13.875 5.515625 27.296875 
Q 5.515625 40.765625 12.171875 48.375 
Q 18.84375 56 30.609375 56 
z
" id="DejaVuSans-111"/>
       <path d="M 8.5 21.578125 
L 8.5 54.6875 
L 17.484375 54.6875 
L 17.484375 21.921875 
Q 17.484375 14.15625 20.5 10.265625 
Q 23.53125 6.390625 29.59375 6.390625 
Q 36.859375 6.390625 41.078125 11.03125 
Q 45.3125 15.671875 45.3125 23.6875 
L 45.3125 54.6875 
L 54.296875 54.6875 
L 54.296875 0 
L 45.3125 0 
L 45.3125 8.40625 
Q 42.046875 3.421875 37.71875 1 
Q 33.40625 -1.421875 27.6875 -1.421875 
Q 18.265625 -1.421875 13.375 4.4375 
Q 8.5 10.296875 8.5 21.578125 
z
M 31.109375 56 
z
" id="DejaVuSans-117"/>
       <path d="M 54.890625 33.015625 
L 54.890625 0 
L 45.90625 0 
L 45.90625 32.71875 
Q 45.90625 40.484375 42.875 44.328125 
Q 39.84375 48.1875 33.796875 48.1875 
Q 26.515625 48.1875 22.3125 43.546875 
Q 18.109375 38.921875 18.109375 30.90625 
L 18.109375 0 
L 9.078125 0 
L 9.078125 54.6875 
L 18.109375 54.6875 
L 18.109375 46.1875 
Q 21.34375 51.125 25.703125 53.5625 
Q 30.078125 56 35.796875 56 
Q 45.21875 56 50.046875 50.171875 
Q 54.890625 44.34375 54.890625 33.015625 
z
" id="DejaVuSans-110"/>
       <path d="M 45.40625 46.390625 
L 45.40625 75.984375 
L 54.390625 75.984375 
L 54.390625 0 
L 45.40625 0 
L 45.40625 8.203125 
Q 42.578125 3.328125 38.25 0.953125 
Q 33.9375 -1.421875 27.875 -1.421875 
Q 17.96875 -1.421875 11.734375 6.484375 
Q 5.515625 14.40625 5.515625 27.296875 
Q 5.515625 40.1875 11.734375 48.09375 
Q 17.96875 56 27.875 56 
Q 33.9375 56 38.25 53.625 
Q 42.578125 51.265625 45.40625 46.390625 
z
M 14.796875 27.296875 
Q 14.796875 17.390625 18.875 11.75 
Q 22.953125 6.109375 30.078125 6.109375 
Q 37.203125 6.109375 41.296875 11.75 
Q 45.40625 17.390625 45.40625 27.296875 
Q 45.40625 37.203125 41.296875 42.84375 
Q 37.203125 48.484375 30.078125 48.484375 
Q 22.953125 48.484375 18.875 42.84375 
Q 14.796875 37.203125 14.796875 27.296875 
z
" id="DejaVuSans-100"/>
       <path d="M 44.28125 53.078125 
L 44.28125 44.578125 
Q 40.484375 46.53125 36.375 47.5 
Q 32.28125 48.484375 27.875 48.484375 
Q 21.1875 48.484375 17.84375 46.4375 
Q 14.5 44.390625 14.5 40.28125 
Q 14.5 37.15625 16.890625 35.375 
Q 19.28125 33.59375 26.515625 31.984375 
L 29.59375 31.296875 
Q 39.15625 29.25 43.1875 25.515625 
Q 47.21875 21.78125 47.21875 15.09375 
Q 47.21875 7.46875 41.1875 3.015625 
Q 35.15625 -1.421875 24.609375 -1.421875 
Q 20.21875 -1.421875 15.453125 -0.5625 
Q 10.6875 0.296875 5.421875 2 
L 5.421875 11.28125 
Q 10.40625 8.6875 15.234375 7.390625 
Q 20.0625 6.109375 24.8125 6.109375 
Q 31.15625 6.109375 34.5625 8.28125 
Q 37.984375 10.453125 37.984375 14.40625 
Q 37.984375 18.0625 35.515625 20.015625 
Q 33.0625 21.96875 24.703125 23.78125 
L 21.578125 24.515625 
Q 13.234375 26.265625 9.515625 29.90625 
Q 5.8125 33.546875 5.8125 39.890625 
Q 5.8125 47.609375 11.28125 51.796875 
Q 16.75 56 26.8125 56 
Q 31.78125 56 36.171875 55.265625 
Q 40.578125 54.546875 44.28125 53.078125 
z
" id="DejaVuSans-115"/>
      </defs>
      <use xlink:href="#DejaVuSans-114"/>
      <use x="38.863281" xlink:href="#DejaVuSans-111"/>
      <use x="100.044922" xlink:href="#DejaVuSans-117"/>
      <use x="163.423828" xlink:href="#DejaVuSans-110"/>
      <use x="226.802734" xlink:href="#DejaVuSans-100"/>
      <use x="290.279297" xlink:href="#DejaVuSans-115"/>
     </g>
    </g>
   </g>
   <g id="matplotlib.axis_2">
    <g id="ytick_1">
     <g id="line2d_19">
      <path clip-path="url(#p6e750d5150)" d="M 57.6 307.584 
L 414.72 307.584 
" style="fill:none;stroke:#b0b0b0;stroke-linecap:square;stroke-width:0.8;"/>
     </g>
     <g id="line2d_20">
      <defs>
       <path d="M 0 0 
L -3.5 0 
" id="m549ce3c479" style="stroke:#000000;stroke-width:0.8;"/>
      </defs>
      <g>
       <use style="stroke:#000000;stroke-width:0.8;" x="57.6" xlink:href="#m549ce3c479" y="307.584"/>
      </g>
     </g>
     <g id="text_11">
      <!-- 0.0 -->
      <g transform="translate(34.696875 311.383219)scale(0.1 -0.1)">
       <defs>
        <path d="M 10.6875 12.40625 
L 21 12.40625 
L 21 0 
L 10.6875 0 
z
" id="DejaVuSans-46"/>
       </defs>
       <use xlink:href="#DejaVuSans-48"/>
       <use x="63.623047" xlink:href="#DejaVuSans-46"/>
       <use x="95.410156" xlink:href="#DejaVuSans-48"/>
      </g>
     </g>
    </g>
    <g id="ytick_2">
     <g id="line2d_21">
      <path clip-path="url(#p6e750d5150)" d="M 57.6 254.3616 
L 414.72 254.3616 
" style="fill:none;stroke:#b0b0b0;stroke-linecap:square;stroke-width:0.8;"/>
     </g>
     <g id="line2d_22">
      <g>
       <use style="stroke:#000000;stroke-width:0.8;" x="57.6" xlink:href="#m549ce3c479" y="254.3616"/>
      </g>
     </g>
     <g id="text_12">
      <!-- 0.2 -->
      <g transform="translate(34.696875 258.160819)scale(0.1 -0.1)">
       <use xlink:href="#DejaVuSans-48"/>
       <use x="63.623047" xlink:href="#DejaVuSans-46"/>
       <use x="95.410156" xlink:href="#DejaVuSans-50"/>
      </g>
     </g>
    </g>
    <g id="ytick_3">
     <g id="line2d_23">
      <path clip-path="url(#p6e750d5150)" d="M 57.6 201.1392 
L 414.72 201.1392 
" style="fill:none;stroke:#b0b0b0;stroke-linecap:square;stroke-width:0.8;"/>
     </g>
     <g id="line2d_24">
      <g>
       <use style="stroke:#000000;stroke-width:0.8;" x="57.6" xlink:href="#m549ce3c479" y="201.1392"/>
      </g>
     </g>
     <g id="text_13">
      <!-- 0.4 -->
      <g transform="translate(34.696875 204.938419)scale(0.1 -0.1)">
       <use xlink:href="#DejaVuSans-48"/>
       <use x="63.623047" xlink:href="#DejaVuSans-46"/>
       <use x="95.410156" xlink:href="#DejaVuSans-52"/>
      </g>
     </g>
    </g>
    <g id="ytick_4">
     <g id="line2d_25">
      <path clip-path="url(#p6e750d5150)" d="M 57.6 147.9168 
L 414.72 147.9168 
" style="fill:none;stroke:#b0b0b0;stroke-linecap:square;stroke-width:0.8;"/>
     </g>
     <g id="line2d_26">
      <g>
       <use style="stroke:#000000;stroke-width:0.8;" x="57.6" xlink:href="#m549ce3c479" y="147.9168"/>
      </g>
     </g>
     <g id="text_14">
      <!-- 0.6 -->
      <g transform="translate(34.696875 151.716019)scale(0.1 -0.1)">
       <defs>
        <path d="M 33.015625 40.375 
Q 26.375 40.375 22.484375 35.828125 
Q 18.609375 31.296875 18.609375 23.390625 
Q 18.609375 15.53125 22.484375 10.953125 
Q 26.375 6.390625 33.015625 6.390625 
Q 39.65625 6.390625 43.53125 10.953125 
Q 47.40625 15.53125 47.40625 23.390625 
Q 47.40625 31.296875 43.53125 35.828125 
Q 39.65625 40.375 33.015625 40.375 
z
M 52.59375 71.296875 
L 52.59375 62.3125 
Q 48.875 64.0625 45.09375 64.984375 
Q 41.3125 65.921875 37.59375 65.921875 
Q 27.828125 65.921875 22.671875 59.328125 
Q 17.53125 52.734375 16.796875 39.40625 
Q 19.671875 43.65625 24.015625 45.921875 
Q 28.375 48.1875 33.59375 48.1875 
Q 44.578125 48.1875 50.953125 41.515625 
Q 57.328125 34.859375 57.328125 23.390625 
Q 57.328125 12.15625 50.6875 5.359375 
Q 44.046875 -1.421875 33.015625 -1.421875 
Q 20.359375 -1.421875 13.671875 8.265625 
Q 6.984375 17.96875 6.984375 36.375 
Q 6.984375 53.65625 15.1875 63.9375 
Q 23.390625 74.21875 37.203125 74.21875 
Q 40.921875 74.21875 44.703125 73.484375 
Q 48.484375 72.75 52.59375 71.296875 
z
" id="DejaVuSans-54"/>
       </defs>
       <use xlink:href="#DejaVuSans-48"/>
       <use x="63.623047" xlink:href="#DejaVuSans-46"/>
       <use x="95.410156" xlink:href="#DejaVuSans-54"/>
      </g>
     </g>
    </g>
    <g id="ytick_5">
     <g id="line2d_27">
      <path clip-path="url(#p6e750d5150)" d="M 57.6 94.6944 
L 414.72 94.6944 
" style="fill:none;stroke:#b0b0b0;stroke-linecap:square;stroke-width:0.8;"/>
     </g>
     <g id="line2d_28">
      <g>
       <use style="stroke:#000000;stroke-width:0.8;" x="57.6" xlink:href="#m549ce3c479" y="94.6944"/>
      </g>
     </g>
     <g id="text_15">
      <!-- 0.8 -->
      <g transform="translate(34.696875 98.493619)scale(0.1 -0.1)">
       <defs>
        <path d="M 31.78125 34.625 
Q 24.75 34.625 20.71875 30.859375 
Q 16.703125 27.09375 16.703125 20.515625 
Q 16.703125 13.921875 20.71875 10.15625 
Q 24.75 6.390625 31.78125 6.390625 
Q 38.8125 6.390625 42.859375 10.171875 
Q 46.921875 13.96875 46.921875 20.515625 
Q 46.921875 27.09375 42.890625 30.859375 
Q 38.875 34.625 31.78125 34.625 
z
M 21.921875 38.8125 
Q 15.578125 40.375 12.03125 44.71875 
Q 8.5 49.078125 8.5 55.328125 
Q 8.5 64.0625 14.71875 69.140625 
Q 20.953125 74.21875 31.78125 74.21875 
Q 42.671875 74.21875 48.875 69.140625 
Q 55.078125 64.0625 55.078125 55.328125 
Q 55.078125 49.078125 51.53125 44.71875 
Q 48 40.375 41.703125 38.8125 
Q 48.828125 37.15625 52.796875 32.3125 
Q 56.78125 27.484375 56.78125 20.515625 
Q 56.78125 9.90625 50.3125 4.234375 
Q 43.84375 -1.421875 31.78125 -1.421875 
Q 19.734375 -1.421875 13.25 4.234375 
Q 6.78125 9.90625 6.78125 20.515625 
Q 6.78125 27.484375 10.78125 32.3125 
Q 14.796875 37.15625 21.921875 38.8125 
z
M 18.3125 54.390625 
Q 18.3125 48.734375 21.84375 45.5625 
Q 25.390625 42.390625 31.78125 42.390625 
Q 38.140625 42.390625 41.71875 45.5625 
Q 45.3125 48.734375 45.3125 54.390625 
Q 45.3125 60.0625 41.71875 63.234375 
Q 38.140625 66.40625 31.78125 66.40625 
Q 25.390625 66.40625 21.84375 63.234375 
Q 18.3125 60.0625 18.3125 54.390625 
z
" id="DejaVuSans-56"/>
       </defs>
       <use xlink:href="#DejaVuSans-48"/>
       <use x="63.623047" xlink:href="#DejaVuSans-46"/>
       <use x="95.410156" xlink:href="#DejaVuSans-56"/>
      </g>
     </g>
    </g>
    <g id="ytick_6">
     <g id="line2d_29">
      <path clip-path="url(#p6e750d5150)" d="M 57.6 41.472 
L 414.72 41.472 
" style="fill:none;stroke:#b0b0b0;stroke-linecap:square;stroke-width:0.8;"/>
     </g>
     <g id="line2d_30">
      <g>
       <use style="stroke:#000000;stroke-width:0.8;" x="57.6" xlink:href="#m549ce3c479" y="41.472"/>
      </g>
     </g>
     <g id="text_16">
      <!-- 1.0 -->
      <g transform="translate(34.696875 45.271219)scale(0.1 -0.1)">
       <use xlink:href="#DejaVuSans-49"/>
       <use x="63.623047" xlink:href="#DejaVuSans-46"/>
       <use x="95.410156" xlink:href="#DejaVuSans-48"/>
      </g>
     </g>
    </g>
    <g id="text_17">
     <!-- accuracy -->
     <g transform="translate(28.617187 197.087375)rotate(-90)scale(0.1 -0.1)">
      <defs>
       <path d="M 34.28125 27.484375 
Q 23.390625 27.484375 19.1875 25 
Q 14.984375 22.515625 14.984375 16.5 
Q 14.984375 11.71875 18.140625 8.90625 
Q 21.296875 6.109375 26.703125 6.109375 
Q 34.1875 6.109375 38.703125 11.40625 
Q 43.21875 16.703125 43.21875 25.484375 
L 43.21875 27.484375 
z
M 52.203125 31.203125 
L 52.203125 0 
L 43.21875 0 
L 43.21875 8.296875 
Q 40.140625 3.328125 35.546875 0.953125 
Q 30.953125 -1.421875 24.3125 -1.421875 
Q 15.921875 -1.421875 10.953125 3.296875 
Q 6 8.015625 6 15.921875 
Q 6 25.140625 12.171875 29.828125 
Q 18.359375 34.515625 30.609375 34.515625 
L 43.21875 34.515625 
L 43.21875 35.40625 
Q 43.21875 41.609375 39.140625 45 
Q 35.0625 48.390625 27.6875 48.390625 
Q 23 48.390625 18.546875 47.265625 
Q 14.109375 46.140625 10.015625 43.890625 
L 10.015625 52.203125 
Q 14.9375 54.109375 19.578125 55.046875 
Q 24.21875 56 28.609375 56 
Q 40.484375 56 46.34375 49.84375 
Q 52.203125 43.703125 52.203125 31.203125 
z
" id="DejaVuSans-97"/>
       <path d="M 48.78125 52.59375 
L 48.78125 44.1875 
Q 44.96875 46.296875 41.140625 47.34375 
Q 37.3125 48.390625 33.40625 48.390625 
Q 24.65625 48.390625 19.8125 42.84375 
Q 14.984375 37.3125 14.984375 27.296875 
Q 14.984375 17.28125 19.8125 11.734375 
Q 24.65625 6.203125 33.40625 6.203125 
Q 37.3125 6.203125 41.140625 7.25 
Q 44.96875 8.296875 48.78125 10.40625 
L 48.78125 2.09375 
Q 45.015625 0.34375 40.984375 -0.53125 
Q 36.96875 -1.421875 32.421875 -1.421875 
Q 20.0625 -1.421875 12.78125 6.34375 
Q 5.515625 14.109375 5.515625 27.296875 
Q 5.515625 40.671875 12.859375 48.328125 
Q 20.21875 56 33.015625 56 
Q 37.15625 56 41.109375 55.140625 
Q 45.0625 54.296875 48.78125 52.59375 
z
" id="DejaVuSans-99"/>
       <path d="M 32.171875 -5.078125 
Q 28.375 -14.84375 24.75 -17.8125 
Q 21.140625 -20.796875 15.09375 -20.796875 
L 7.90625 -20.796875 
L 7.90625 -13.28125 
L 13.1875 -13.28125 
Q 16.890625 -13.28125 18.9375 -11.515625 
Q 21 -9.765625 23.484375 -3.21875 
L 25.09375 0.875 
L 2.984375 54.6875 
L 12.5 54.6875 
L 29.59375 11.921875 
L 46.6875 54.6875 
L 56.203125 54.6875 
z
" id="DejaVuSans-121"/>
      </defs>
      <use xlink:href="#DejaVuSans-97"/>
      <use x="61.279297" xlink:href="#DejaVuSans-99"/>
      <use x="116.259766" xlink:href="#DejaVuSans-99"/>
      <use x="171.240234" xlink:href="#DejaVuSans-117"/>
      <use x="234.619141" xlink:href="#DejaVuSans-114"/>
      <use x="275.732422" xlink:href="#DejaVuSans-97"/>
      <use x="337.011719" xlink:href="#DejaVuSans-99"/>
      <use x="391.992188" xlink:href="#DejaVuSans-121"/>
     </g>
    </g>
   </g>
   <g id="line2d_31">
    <path clip-path="url(#p6e750d5150)" d="M 73.832727 191.134568 
L 74.646398 169.478416 
L 75.460068 144.447663 
L 76.273739 136.165962 
L 77.087409 132.490932 
L 77.90108 129.857961 
L 78.714751 128.819187 
L 80.342092 134.975011 
L 81.155762 132.879246 
L 82.783103 124.444985 
L 83.596774 122.618793 
L 84.410444 122.192323 
L 85.224115 122.986263 
L 86.851456 126.53368 
L 87.665126 126.145478 
L 88.478797 124.322468 
L 89.292468 121.775712 
L 90.106138 119.881608 
L 90.919809 119.686733 
L 91.733479 120.215019 
L 92.54715 120.89312 
L 93.36082 120.300528 
L 94.174491 118.590569 
L 94.988161 115.721637 
L 95.801832 113.552344 
L 96.615502 112.651398 
L 97.429173 111.920942 
L 98.242843 110.73576 
L 99.056514 108.692483 
L 99.870185 105.956159 
L 100.683855 103.642215 
L 102.311196 100.150609 
L 103.124867 98.442695 
L 104.752208 93.786682 
L 105.565878 91.907589 
L 106.379549 90.420988 
L 107.193219 89.492647 
L 108.82056 86.58273 
L 109.634231 85.564481 
L 110.447902 84.810179 
L 111.261572 84.426683 
L 112.888913 82.870685 
L 113.702584 82.892416 
L 116.143595 81.963798 
L 116.957266 81.327495 
L 117.770936 81.411117 
L 118.584607 81.224577 
L 120.211948 80.208453 
L 121.839289 80.198198 
L 122.65296 79.589695 
L 123.46663 79.651805 
L 124.280301 79.486034 
L 125.093971 79.151401 
L 126.721312 78.314979 
L 127.534983 78.2726 
L 128.348653 78.057734 
L 129.975995 77.30933 
L 131.603336 77.015366 
L 132.417006 76.510834 
L 133.230677 76.645335 
L 134.044347 76.393138 
L 134.858018 75.957024 
L 135.671688 75.965355 
L 136.485359 76.113105 
L 137.299029 75.256675 
L 138.1127 74.840653 
L 138.92637 74.981211 
L 139.740041 74.595213 
L 140.553712 73.844076 
L 141.367382 73.561186 
L 142.181053 73.738782 
L 142.994723 73.042056 
L 145.435735 72.443006 
L 146.249405 72.061105 
L 147.063076 72.098093 
L 147.876746 71.897164 
L 148.690417 71.549148 
L 149.504087 71.033891 
L 150.317758 70.889542 
L 152.75877 69.880494 
L 154.386111 69.398065 
L 155.199781 68.981365 
L 156.013452 68.960922 
L 157.640793 68.337432 
L 158.454463 68.479965 
L 159.268134 67.936216 
L 160.081805 67.901289 
L 160.895475 68.084331 
L 161.709146 67.537786 
L 162.522816 67.254773 
L 163.336487 67.764636 
L 164.150157 67.413261 
L 164.963828 67.236339 
L 165.777498 67.550796 
L 166.591169 67.633087 
L 167.404839 67.407369 
L 168.21851 67.685141 
L 169.03218 67.506693 
L 170.659522 67.764588 
L 171.473192 67.7762 
L 172.286863 67.627957 
L 173.100533 68.02819 
L 173.914204 68.045244 
L 174.727874 67.839884 
L 175.541545 68.156857 
L 177.168886 68.029461 
L 178.796227 68.007354 
L 179.609897 67.590437 
L 180.423568 67.888437 
L 181.237239 67.840655 
L 182.050909 67.316589 
L 185.305591 66.916269 
L 186.119262 66.447618 
L 187.746603 66.382028 
L 188.560273 66.193471 
L 190.187614 65.997412 
L 191.001285 65.849191 
L 193.442297 65.86856 
L 194.255967 65.79119 
L 196.696979 66.014936 
L 197.510649 65.82771 
L 199.13799 65.783547 
L 199.951661 66.001149 
L 200.765332 65.840006 
L 203.206343 66.08583 
L 204.020014 66.102865 
L 204.833684 66.26951 
L 205.647355 66.185726 
L 207.274696 66.442638 
L 208.088366 66.270836 
L 208.902037 66.423662 
L 209.715707 66.730719 
L 211.343049 66.326692 
L 212.156719 66.62668 
L 213.78406 66.626526 
L 214.597731 66.55578 
L 215.411401 66.753388 
L 216.225072 66.743363 
L 217.038742 66.900066 
L 218.666083 66.916798 
L 220.293424 67.093933 
L 223.548107 67.207299 
L 224.361777 67.111918 
L 226.802789 67.176194 
L 227.616459 67.158296 
L 228.43013 66.909834 
L 230.871141 66.821162 
L 237.380506 66.372399 
L 239.007847 66.279622 
L 239.821517 66.370573 
L 240.635188 66.163427 
L 243.0762 66.195953 
L 246.330882 66.189875 
L 250.399234 66.189386 
L 251.212905 66.115032 
L 252.026576 66.164251 
L 252.840246 66.099801 
L 253.653917 66.153341 
L 254.467587 66.093507 
L 258.53594 66.358433 
L 259.34961 66.29551 
L 260.163281 66.399842 
L 262.604293 66.372611 
L 263.417963 66.474283 
L 264.231634 66.364049 
L 265.858975 66.493331 
L 274.809351 66.158294 
L 276.436692 66.066272 
L 277.250362 66.004787 
L 278.064033 66.064612 
L 281.318715 65.846825 
L 283.759727 66.023553 
L 284.573397 65.868924 
L 287.014409 66.068919 
L 287.828079 65.914035 
L 289.45542 65.897042 
L 290.269091 66.023026 
L 291.082761 66.022906 
L 291.896432 65.892817 
L 293.523773 65.953448 
L 294.337444 66.134672 
L 297.592126 65.917904 
L 298.405796 66.032861 
L 300.846808 65.965481 
L 305.728831 65.896258 
L 307.356172 65.956163 
L 309.797184 65.954908 
L 314.679207 65.851429 
L 315.492878 65.933558 
L 317.120219 65.864999 
L 317.933889 65.972996 
L 318.74756 65.819977 
L 319.56123 65.8939 
L 320.374901 65.8369 
L 322.815913 65.922992 
L 323.629583 65.868444 
L 327.697936 66.108268 
L 330.952618 66.044931 
L 331.766288 66.113905 
L 333.39363 66.044424 
L 339.089323 66.066081 
L 343.157676 66.161917 
L 346.412358 65.98448 
L 348.85337 66.069927 
L 351.294381 66.190484 
L 352.108052 66.055721 
L 355.362734 66.130512 
L 356.176405 66.347011 
L 358.617416 66.316135 
L 368.381463 66.282058 
L 370.822474 66.354455 
L 373.263486 66.225231 
L 379.77285 66.335567 
L 381.400191 66.273929 
L 383.027532 66.187884 
L 387.095885 66.487611 
L 388.723226 66.552252 
L 390.350567 66.426892 
L 392.791579 66.425752 
L 398.487273 66.555315 
L 398.487273 66.555315 
" style="fill:none;stroke:#1f77b4;stroke-linecap:square;stroke-width:1.5;"/>
   </g>
   <g id="line2d_32">
    <path clip-path="url(#p6e750d5150)" d="M 73.832727 168.931599 
L 74.646398 172.390049 
L 75.460068 172.830215 
L 76.273739 173.647667 
L 77.087409 173.83631 
L 78.714751 173.647667 
L 79.528421 173.647667 
L 81.155762 172.45293 
L 81.969433 171.321074 
L 82.783103 171.00667 
L 84.410444 169.560408 
L 85.224115 168.051266 
L 86.037785 166.101958 
L 86.851456 165.284507 
L 87.665126 164.215531 
L 88.478797 163.335198 
L 89.292468 161.637414 
L 90.106138 160.379796 
L 90.919809 158.870654 
L 91.733479 157.801679 
L 92.54715 156.418298 
L 93.36082 155.85237 
L 94.174491 154.028824 
L 95.801832 152.519683 
L 97.429173 150.759017 
L 98.242843 150.130208 
L 99.056514 149.815804 
L 99.870185 149.312756 
L 100.683855 148.621066 
L 101.497526 147.677852 
L 103.124867 146.420234 
L 103.938537 145.791425 
L 104.752208 146.16871 
L 105.565878 145.351259 
L 106.379549 145.099736 
L 107.193219 144.596688 
L 108.00689 143.716355 
L 108.82056 143.464831 
L 109.634231 142.584499 
L 110.447902 142.521618 
L 111.261572 142.081451 
L 112.075243 141.201119 
L 112.888913 140.698072 
L 114.516254 140.006382 
L 116.143595 138.748764 
L 118.584607 137.491145 
L 119.398278 137.302502 
L 120.211948 136.988098 
L 121.025619 136.359289 
L 121.839289 136.233527 
L 123.46663 135.604719 
L 125.093971 135.353195 
L 125.907642 134.913029 
L 127.534983 134.598624 
L 129.162324 133.844053 
L 131.603336 132.712197 
L 132.417006 132.523554 
L 133.230677 131.831864 
L 134.044347 131.831864 
L 134.858018 131.517459 
L 135.671688 131.077293 
L 136.485359 130.951531 
L 138.1127 130.88865 
L 138.92637 130.762888 
L 140.553712 130.951531 
L 142.994723 130.196959 
L 143.808394 129.756794 
L 144.622064 129.756794 
L 147.063076 129.379509 
L 147.876746 129.002223 
L 148.690417 128.81358 
L 149.504087 128.436295 
L 151.131429 128.05901 
L 155.199781 127.681725 
L 156.827122 127.430201 
L 157.640793 127.052915 
L 158.454463 127.052915 
L 160.081805 126.67563 
L 161.709146 126.738511 
L 162.522816 126.486987 
L 164.150157 126.361225 
L 164.963828 126.109701 
L 167.404839 125.795297 
L 168.21851 125.480892 
L 169.03218 125.543773 
L 170.659522 125.166487 
L 171.473192 124.789202 
L 173.914204 124.411916 
L 174.727874 124.411916 
L 175.541545 124.223273 
L 177.982556 124.097511 
L 178.796227 124.097511 
L 179.609897 123.845988 
L 181.237239 123.720226 
L 182.050909 123.531584 
L 182.86458 123.657345 
L 184.491921 123.091418 
L 185.305591 123.091418 
L 186.119262 122.839895 
L 186.932932 122.714133 
L 188.560273 122.777014 
L 189.373944 122.52549 
L 190.187614 122.462609 
L 191.814956 122.148204 
L 196.696979 121.456515 
L 197.510649 121.456515 
L 199.13799 121.267872 
L 199.951661 121.393634 
L 201.579002 121.14211 
L 202.392673 121.14211 
L 204.833684 120.45042 
L 207.274696 120.073134 
L 208.088366 119.75873 
L 208.902037 119.695849 
L 209.715707 119.507206 
L 210.529378 119.507206 
L 211.343049 119.381444 
L 212.156719 119.381444 
L 213.78406 119.067039 
L 214.597731 119.192801 
L 215.411401 119.067039 
L 216.225072 119.067039 
L 218.666083 118.501111 
L 219.479754 118.501111 
L 221.107095 118.249588 
L 221.920766 118.312469 
L 222.734436 118.186707 
L 224.361777 118.186707 
L 225.989118 117.935183 
L 226.802789 117.935183 
L 227.616459 117.683659 
L 228.43013 117.74654 
L 230.057471 117.432136 
L 230.871141 117.306374 
L 231.684812 117.05485 
L 233.312153 116.866207 
L 234.125824 116.677565 
L 235.753165 116.614684 
L 236.566835 116.551803 
L 237.380506 116.36316 
L 238.194176 116.36316 
L 239.007847 116.174518 
L 239.821517 116.111637 
L 243.0762 116.30028 
L 243.88987 116.111637 
L 246.330882 116.048757 
L 247.144552 115.860114 
L 248.771893 115.985876 
L 249.585564 115.797233 
L 250.399234 115.734352 
L 253.653917 115.042662 
L 255.281258 114.791138 
L 256.094928 114.413853 
L 257.722269 114.22521 
L 259.34961 113.910805 
L 262.604293 113.470639 
L 263.417963 113.407758 
L 264.231634 113.219115 
L 265.045304 113.281996 
L 269.113657 112.967591 
L 269.927327 112.653187 
L 271.554668 112.464544 
L 272.368339 112.464544 
L 273.99568 112.716068 
L 274.809351 112.653187 
L 275.623021 112.401663 
L 276.436692 112.401663 
L 277.250362 112.275902 
L 278.877703 112.275902 
L 281.318715 111.709973 
L 282.132386 111.709973 
L 282.946056 111.52133 
L 283.759727 111.458449 
L 284.573397 111.206926 
L 287.828079 111.144045 
L 288.64175 111.018284 
L 293.523773 110.955403 
L 295.151114 110.389476 
L 295.964785 110.263714 
L 296.778455 110.326595 
L 297.592126 110.137952 
L 299.219467 110.01219 
L 300.033137 110.075071 
L 306.542502 109.634904 
L 307.356172 109.697785 
L 308.169843 109.446262 
L 310.610854 109.131857 
L 311.424525 109.131857 
L 312.238195 109.257619 
L 313.865537 108.943214 
L 314.679207 108.943214 
L 315.492878 108.628809 
L 317.933889 108.251524 
L 318.74756 108.251524 
L 319.56123 108.062881 
L 325.256924 107.559833 
L 326.070595 107.434072 
L 328.511606 107.434072 
L 329.325277 107.30831 
L 330.138947 107.371191 
L 330.952618 107.182548 
L 331.766288 106.868143 
L 332.579959 106.805262 
L 333.39363 106.868143 
L 334.2073 106.6795 
L 335.834641 106.616619 
L 337.461982 106.239334 
L 339.089323 106.176453 
L 340.716664 105.98781 
L 349.66704 105.359001 
L 353.735393 105.29612 
L 354.549064 105.17036 
L 356.176405 105.107479 
L 356.990075 104.855955 
L 357.803746 104.793074 
L 358.617416 104.855955 
L 359.431087 104.667312 
L 360.244757 104.667312 
L 361.058428 104.541551 
L 364.31311 104.478669 
L 369.195133 104.164265 
L 370.822474 104.101384 
L 371.636145 104.038503 
L 373.263486 103.724099 
L 374.890827 103.661218 
L 377.331839 103.535456 
L 379.77285 103.472575 
L 381.400191 103.409694 
L 387.909556 103.409694 
L 388.723226 103.283933 
L 395.232591 103.283933 
L 396.046261 103.158171 
L 396.859932 103.221052 
L 398.487273 103.09529 
L 398.487273 103.09529 
" style="fill:none;stroke:#ff7f0e;stroke-linecap:square;stroke-width:1.5;"/>
   </g>
   <g id="patch_3">
    <path d="M 57.6 307.584 
L 57.6 41.472 
" style="fill:none;stroke:#000000;stroke-linecap:square;stroke-linejoin:miter;stroke-width:0.8;"/>
   </g>
   <g id="patch_4">
    <path d="M 414.72 307.584 
L 414.72 41.472 
" style="fill:none;stroke:#000000;stroke-linecap:square;stroke-linejoin:miter;stroke-width:0.8;"/>
   </g>
   <g id="patch_5">
    <path d="M 57.6 307.584 
L 414.72 307.584 
" style="fill:none;stroke:#000000;stroke-linecap:square;stroke-linejoin:miter;stroke-width:0.8;"/>
   </g>
   <g id="patch_6">
    <path d="M 57.6 41.472 
L 414.72 41.472 
" style="fill:none;stroke:#000000;stroke-linecap:square;stroke-linejoin:miter;stroke-width:0.8;"/>
   </g>
   <g id="text_18">
    <!-- FNN, KDR -->
    <g transform="translate(207.194063 35.472)scale(0.12 -0.12)">
     <defs>
      <path d="M 9.8125 72.90625 
L 51.703125 72.90625 
L 51.703125 64.59375 
L 19.671875 64.59375 
L 19.671875 43.109375 
L 48.578125 43.109375 
L 48.578125 34.8125 
L 19.671875 34.8125 
L 19.671875 0 
L 9.8125 0 
z
" id="DejaVuSans-70"/>
      <path d="M 9.8125 72.90625 
L 23.09375 72.90625 
L 55.421875 11.921875 
L 55.421875 72.90625 
L 64.984375 72.90625 
L 64.984375 0 
L 51.703125 0 
L 19.390625 60.984375 
L 19.390625 0 
L 9.8125 0 
z
" id="DejaVuSans-78"/>
      <path d="M 11.71875 12.40625 
L 22.015625 12.40625 
L 22.015625 4 
L 14.015625 -11.625 
L 7.71875 -11.625 
L 11.71875 4 
z
" id="DejaVuSans-44"/>
      <path id="DejaVuSans-32"/>
      <path d="M 9.8125 72.90625 
L 19.671875 72.90625 
L 19.671875 42.09375 
L 52.390625 72.90625 
L 65.09375 72.90625 
L 28.90625 38.921875 
L 67.671875 0 
L 54.6875 0 
L 19.671875 35.109375 
L 19.671875 0 
L 9.8125 0 
z
" id="DejaVuSans-75"/>
      <path d="M 19.671875 64.796875 
L 19.671875 8.109375 
L 31.59375 8.109375 
Q 46.6875 8.109375 53.6875 14.9375 
Q 60.6875 21.78125 60.6875 36.53125 
Q 60.6875 51.171875 53.6875 57.984375 
Q 46.6875 64.796875 31.59375 64.796875 
z
M 9.8125 72.90625 
L 30.078125 72.90625 
Q 51.265625 72.90625 61.171875 64.09375 
Q 71.09375 55.28125 71.09375 36.53125 
Q 71.09375 17.671875 61.125 8.828125 
Q 51.171875 0 30.078125 0 
L 9.8125 0 
z
" id="DejaVuSans-68"/>
      <path d="M 44.390625 34.1875 
Q 47.5625 33.109375 50.5625 29.59375 
Q 53.5625 26.078125 56.59375 19.921875 
L 66.609375 0 
L 56 0 
L 46.6875 18.703125 
Q 43.0625 26.03125 39.671875 28.421875 
Q 36.28125 30.8125 30.421875 30.8125 
L 19.671875 30.8125 
L 19.671875 0 
L 9.8125 0 
L 9.8125 72.90625 
L 32.078125 72.90625 
Q 44.578125 72.90625 50.734375 67.671875 
Q 56.890625 62.453125 56.890625 51.90625 
Q 56.890625 45.015625 53.6875 40.46875 
Q 50.484375 35.9375 44.390625 34.1875 
z
M 19.671875 64.796875 
L 19.671875 38.921875 
L 32.078125 38.921875 
Q 39.203125 38.921875 42.84375 42.21875 
Q 46.484375 45.515625 46.484375 51.90625 
Q 46.484375 58.296875 42.84375 61.546875 
Q 39.203125 64.796875 32.078125 64.796875 
z
" id="DejaVuSans-82"/>
     </defs>
     <use xlink:href="#DejaVuSans-70"/>
     <use x="57.519531" xlink:href="#DejaVuSans-78"/>
     <use x="132.324219" xlink:href="#DejaVuSans-78"/>
     <use x="207.128906" xlink:href="#DejaVuSans-44"/>
     <use x="238.916016" xlink:href="#DejaVuSans-32"/>
     <use x="270.703125" xlink:href="#DejaVuSans-75"/>
     <use x="336.279297" xlink:href="#DejaVuSans-68"/>
     <use x="413.28125" xlink:href="#DejaVuSans-82"/>
    </g>
   </g>
   <g id="legend_1">
    <g id="patch_7">
     <path d="M 64.6 302.584 
L 194.185937 302.584 
Q 196.185937 302.584 196.185937 300.584 
L 196.185937 272.22775 
Q 196.185937 270.22775 194.185937 270.22775 
L 64.6 270.22775 
Q 62.6 270.22775 62.6 272.22775 
L 62.6 300.584 
Q 62.6 302.584 64.6 302.584 
z
" style="fill:#ffffff;opacity:0.8;stroke:#cccccc;stroke-linejoin:miter;"/>
    </g>
    <g id="line2d_33">
     <path d="M 66.6 278.326187 
L 86.6 278.326187 
" style="fill:none;stroke:#1f77b4;stroke-linecap:square;stroke-width:1.5;"/>
    </g>
    <g id="line2d_34"/>
    <g id="text_19">
     <!-- Federated, lr =0.01 -->
     <g transform="translate(94.6 281.826187)scale(0.1 -0.1)">
      <defs>
       <path d="M 56.203125 29.59375 
L 56.203125 25.203125 
L 14.890625 25.203125 
Q 15.484375 15.921875 20.484375 11.0625 
Q 25.484375 6.203125 34.421875 6.203125 
Q 39.59375 6.203125 44.453125 7.46875 
Q 49.3125 8.734375 54.109375 11.28125 
L 54.109375 2.78125 
Q 49.265625 0.734375 44.1875 -0.34375 
Q 39.109375 -1.421875 33.890625 -1.421875 
Q 20.796875 -1.421875 13.15625 6.1875 
Q 5.515625 13.8125 5.515625 26.8125 
Q 5.515625 40.234375 12.765625 48.109375 
Q 20.015625 56 32.328125 56 
Q 43.359375 56 49.78125 48.890625 
Q 56.203125 41.796875 56.203125 29.59375 
z
M 47.21875 32.234375 
Q 47.125 39.59375 43.09375 43.984375 
Q 39.0625 48.390625 32.421875 48.390625 
Q 24.90625 48.390625 20.390625 44.140625 
Q 15.875 39.890625 15.1875 32.171875 
z
" id="DejaVuSans-101"/>
       <path d="M 18.3125 70.21875 
L 18.3125 54.6875 
L 36.8125 54.6875 
L 36.8125 47.703125 
L 18.3125 47.703125 
L 18.3125 18.015625 
Q 18.3125 11.328125 20.140625 9.421875 
Q 21.96875 7.515625 27.59375 7.515625 
L 36.8125 7.515625 
L 36.8125 0 
L 27.59375 0 
Q 17.1875 0 13.234375 3.875 
Q 9.28125 7.765625 9.28125 18.015625 
L 9.28125 47.703125 
L 2.6875 47.703125 
L 2.6875 54.6875 
L 9.28125 54.6875 
L 9.28125 70.21875 
z
" id="DejaVuSans-116"/>
       <path d="M 9.421875 75.984375 
L 18.40625 75.984375 
L 18.40625 0 
L 9.421875 0 
z
" id="DejaVuSans-108"/>
       <path d="M 10.59375 45.40625 
L 73.1875 45.40625 
L 73.1875 37.203125 
L 10.59375 37.203125 
z
M 10.59375 25.484375 
L 73.1875 25.484375 
L 73.1875 17.1875 
L 10.59375 17.1875 
z
" id="DejaVuSans-61"/>
      </defs>
      <use xlink:href="#DejaVuSans-70"/>
      <use x="52.019531" xlink:href="#DejaVuSans-101"/>
      <use x="113.542969" xlink:href="#DejaVuSans-100"/>
      <use x="177.019531" xlink:href="#DejaVuSans-101"/>
      <use x="238.542969" xlink:href="#DejaVuSans-114"/>
      <use x="279.65625" xlink:href="#DejaVuSans-97"/>
      <use x="340.935547" xlink:href="#DejaVuSans-116"/>
      <use x="380.144531" xlink:href="#DejaVuSans-101"/>
      <use x="441.667969" xlink:href="#DejaVuSans-100"/>
      <use x="505.144531" xlink:href="#DejaVuSans-44"/>
      <use x="536.931641" xlink:href="#DejaVuSans-32"/>
      <use x="568.71875" xlink:href="#DejaVuSans-108"/>
      <use x="596.501953" xlink:href="#DejaVuSans-114"/>
      <use x="637.615234" xlink:href="#DejaVuSans-32"/>
      <use x="669.402344" xlink:href="#DejaVuSans-61"/>
      <use x="753.191406" xlink:href="#DejaVuSans-48"/>
      <use x="816.814453" xlink:href="#DejaVuSans-46"/>
      <use x="848.601562" xlink:href="#DejaVuSans-48"/>
      <use x="912.224609" xlink:href="#DejaVuSans-49"/>
     </g>
    </g>
    <g id="line2d_35">
     <path d="M 66.6 293.004312 
L 86.6 293.004312 
" style="fill:none;stroke:#ff7f0e;stroke-linecap:square;stroke-width:1.5;"/>
    </g>
    <g id="line2d_36"/>
    <g id="text_20">
     <!-- Central, lr =0.01 -->
     <g transform="translate(94.6 296.504312)scale(0.1 -0.1)">
      <defs>
       <path d="M 64.40625 67.28125 
L 64.40625 56.890625 
Q 59.421875 61.53125 53.78125 63.8125 
Q 48.140625 66.109375 41.796875 66.109375 
Q 29.296875 66.109375 22.65625 58.46875 
Q 16.015625 50.828125 16.015625 36.375 
Q 16.015625 21.96875 22.65625 14.328125 
Q 29.296875 6.6875 41.796875 6.6875 
Q 48.140625 6.6875 53.78125 8.984375 
Q 59.421875 11.28125 64.40625 15.921875 
L 64.40625 5.609375 
Q 59.234375 2.09375 53.4375 0.328125 
Q 47.65625 -1.421875 41.21875 -1.421875 
Q 24.65625 -1.421875 15.125 8.703125 
Q 5.609375 18.84375 5.609375 36.375 
Q 5.609375 53.953125 15.125 64.078125 
Q 24.65625 74.21875 41.21875 74.21875 
Q 47.75 74.21875 53.53125 72.484375 
Q 59.328125 70.75 64.40625 67.28125 
z
" id="DejaVuSans-67"/>
      </defs>
      <use xlink:href="#DejaVuSans-67"/>
      <use x="69.824219" xlink:href="#DejaVuSans-101"/>
      <use x="131.347656" xlink:href="#DejaVuSans-110"/>
      <use x="194.726562" xlink:href="#DejaVuSans-116"/>
      <use x="233.935547" xlink:href="#DejaVuSans-114"/>
      <use x="275.048828" xlink:href="#DejaVuSans-97"/>
      <use x="336.328125" xlink:href="#DejaVuSans-108"/>
      <use x="364.111328" xlink:href="#DejaVuSans-44"/>
      <use x="395.898438" xlink:href="#DejaVuSans-32"/>
      <use x="427.685547" xlink:href="#DejaVuSans-108"/>
      <use x="455.46875" xlink:href="#DejaVuSans-114"/>
      <use x="496.582031" xlink:href="#DejaVuSans-32"/>
      <use x="528.369141" xlink:href="#DejaVuSans-61"/>
      <use x="612.158203" xlink:href="#DejaVuSans-48"/>
      <use x="675.78125" xlink:href="#DejaVuSans-46"/>
      <use x="707.568359" xlink:href="#DejaVuSans-48"/>
      <use x="771.191406" xlink:href="#DejaVuSans-49"/>
     </g>
    </g>
   </g>
  </g>
 </g>
 <defs>
  <clipPath id="p6e750d5150">
   <rect height="266.112" width="357.12" x="57.6" y="41.472"/>
  </clipPath>
 </defs>
</svg>
