<?xml version="1.0" encoding="utf-8" standalone="no"?>
<!DOCTYPE svg PUBLIC "-//W3C//DTD SVG 1.1//EN"
  "http://www.w3.org/Graphics/SVG/1.1/DTD/svg11.dtd">
<!-- Created with matplotlib (https://matplotlib.org/) -->
<svg height="345.6pt" version="1.1" viewBox="0 0 460.8 345.6" width="460.8pt" xmlns="http://www.w3.org/2000/svg" xmlns:xlink="http://www.w3.org/1999/xlink">
 <metadata>
  <rdf:RDF xmlns:cc="http://creativecommons.org/ns#" xmlns:dc="http://purl.org/dc/elements/1.1/" xmlns:rdf="http://www.w3.org/1999/02/22-rdf-syntax-ns#">
   <cc:Work>
    <dc:type rdf:resource="http://purl.org/dc/dcmitype/StillImage"/>
    <dc:date>2023-03-08T16:44:35.930819</dc:date>
    <dc:format>image/svg+xml</dc:format>
    <dc:creator>
     <cc:Agent>
      <dc:title>Matplotlib v3.3.4, https://matplotlib.org/</dc:title>
     </cc:Agent>
    </dc:creator>
   </cc:Work>
  </rdf:RDF>
 </metadata>
 <defs>
  <style type="text/css">*{stroke-linecap:butt;stroke-linejoin:round;}</style>
 </defs>
 <g id="figure_1">
  <g id="patch_1">
   <path d="M 0 345.6 
L 460.8 345.6 
L 460.8 0 
L 0 0 
z
" style="fill:#ffffff;"/>
  </g>
  <g id="axes_1">
   <g id="patch_2">
    <path d="M 57.6 307.584 
L 414.72 307.584 
L 414.72 41.472 
L 57.6 41.472 
z
" style="fill:#ffffff;"/>
   </g>
   <g id="PolyCollection_1">
    <path clip-path="url(#pd7c3f59553)" d="M 73.832727 226.721835 
L 73.832727 281.543433 
L 77.112066 147.673069 
L 80.391405 112.081385 
L 83.670744 100.034138 
L 86.950083 88.990592 
L 90.229421 84.548882 
L 93.50876 81.175369 
L 96.788099 77.764239 
L 100.067438 76.715757 
L 103.346777 75.655592 
L 106.626116 73.586444 
L 109.905455 72.200888 
L 113.184793 71.599568 
L 116.464132 70.706717 
L 119.743471 70.418353 
L 123.02281 69.319784 
L 126.302149 68.893655 
L 129.581488 67.28413 
L 132.860826 67.080011 
L 136.140165 66.479019 
L 139.419504 66.874481 
L 142.698843 66.028285 
L 145.978182 66.028285 
L 149.257521 65.628529 
L 152.53686 65.552792 
L 155.816198 65.158348 
L 159.095537 64.819515 
L 162.374876 65.212775 
L 165.654215 65.212775 
L 168.933554 65.179635 
L 172.212893 64.819515 
L 175.492231 64.851269 
L 178.77157 64.841722 
L 182.050909 64.709758 
L 185.330248 63.805787 
L 188.609587 63.805787 
L 191.888926 63.454966 
L 195.168264 63.585091 
L 198.447603 63.594512 
L 201.726942 63.197948 
L 205.006281 63.163906 
L 208.28562 62.688261 
L 211.564959 62.899702 
L 214.844298 62.899702 
L 218.123636 62.9092 
L 221.402975 62.125254 
L 224.682314 61.790069 
L 227.961653 61.790069 
L 231.240992 61.579488 
L 234.520331 61.288187 
L 237.799669 61.011922 
L 241.079008 60.703735 
L 244.358347 60.703735 
L 247.637686 60.667825 
L 250.917025 60.667825 
L 254.196364 60.675738 
L 257.475702 60.394943 
L 260.755041 59.850566 
L 264.03438 59.151679 
L 267.313719 58.853675 
L 270.593058 58.549283 
L 273.872397 58.549283 
L 277.151736 58.549283 
L 280.431074 58.2764 
L 283.710413 58.2764 
L 286.989752 58.2764 
L 290.269091 58.202804 
L 293.54843 58.215157 
L 296.827769 58.215157 
L 300.107107 57.956942 
L 303.386446 57.956942 
L 306.665785 57.942275 
L 309.945124 57.657039 
L 313.224463 57.457751 
L 316.503802 57.514383 
L 319.78314 57.810447 
L 323.062479 57.745604 
L 326.341818 57.810447 
L 329.621157 57.810447 
L 332.900496 57.610909 
L 336.179835 57.610909 
L 339.459174 57.294662 
L 342.738512 57.294662 
L 346.017851 57.514383 
L 349.29719 57.514383 
L 352.576529 57.514383 
L 355.855868 57.514383 
L 359.135207 57.240875 
L 362.414545 56.997365 
L 365.693884 56.997365 
L 368.973223 56.495011 
L 372.252562 56.495011 
L 375.531901 56.495011 
L 378.81124 56.63172 
L 382.090579 56.63172 
L 385.369917 56.584804 
L 388.649256 56.63172 
L 391.928595 56.967993 
L 395.207934 56.865411 
L 398.487273 56.967993 
L 398.487273 54.252843 
L 398.487273 54.252843 
L 395.207934 54.082542 
L 391.928595 54.252843 
L 388.649256 54.316233 
L 385.369917 54.636032 
L 382.090579 54.316233 
L 378.81124 54.316233 
L 375.531901 54.452943 
L 372.252562 54.452943 
L 368.973223 54.452943 
L 365.693884 54.496354 
L 362.414545 54.496354 
L 359.135207 54.525726 
L 355.855868 54.525102 
L 352.576529 54.525102 
L 349.29719 54.525102 
L 346.017851 54.525102 
L 342.738512 54.47194 
L 339.459174 54.47194 
L 336.179835 54.428576 
L 332.900496 54.428576 
L 329.621157 54.50192 
L 326.341818 54.50192 
L 323.062479 54.29388 
L 319.78314 54.50192 
L 316.503802 54.525102 
L 313.224463 54.854616 
L 309.945124 54.928211 
L 306.665785 54.915858 
L 303.386446 55.174073 
L 300.107107 55.174073 
L 296.827769 55.188741 
L 293.54843 55.188741 
L 290.269091 55.473977 
L 286.989752 55.673264 
L 283.710413 55.673264 
L 280.431074 55.673264 
L 277.151736 55.946147 
L 273.872397 55.946147 
L 270.593058 55.946147 
L 267.313719 55.914637 
L 264.03438 56.162398 
L 260.755041 56.28216 
L 257.475702 56.283549 
L 254.196364 56.275636 
L 250.917025 56.556432 
L 247.637686 56.556432 
L 244.358347 56.520522 
L 241.079008 56.520522 
L 237.799669 56.758101 
L 234.520331 56.754718 
L 231.240992 56.7363 
L 227.961653 57.071485 
L 224.682314 57.071485 
L 221.402975 57.282065 
L 218.123636 57.316767 
L 214.844298 57.053383 
L 211.564959 57.053383 
L 208.28562 57.264824 
L 205.006281 57.062062 
L 201.726942 57.300902 
L 198.447603 57.450104 
L 195.168264 57.732408 
L 191.888926 57.862533 
L 188.609587 57.511712 
L 185.330248 57.511712 
L 182.050909 57.699272 
L 178.77157 58.113073 
L 175.492231 58.37641 
L 172.212893 58.13528 
L 168.933554 58.048043 
L 165.654215 58.287786 
L 162.374876 58.287786 
L 159.095537 58.13528 
L 155.816198 58.887979 
L 152.53686 59.312183 
L 149.257521 59.782211 
L 145.978182 60.201104 
L 142.698843 60.201104 
L 139.419504 60.173556 
L 136.140165 59.75037 
L 132.860826 60.513791 
L 129.581488 60.855438 
L 126.302149 61.156093 
L 123.02281 61.548612 
L 119.743471 62.360222 
L 116.464132 62.344741 
L 113.184793 62.816303 
L 109.905455 63.85228 
L 106.626116 64.376903 
L 103.346777 66.128114 
L 100.067438 67.251012 
L 96.788099 69.204241 
L 93.50876 71.523648 
L 90.229421 74.426439 
L 86.950083 78.171212 
L 83.670744 86.502343 
L 80.391405 101.47049 
L 77.112066 130.824906 
L 73.832727 226.721835 
z
" style="fill:#1f77b4;fill-opacity:0.5;"/>
   </g>
   <g id="PolyCollection_2">
    <path clip-path="url(#pd7c3f59553)" d="M 73.832727 228.201497 
L 73.832727 278.929593 
L 77.112066 147.731541 
L 80.391405 113.650027 
L 83.670744 101.209844 
L 86.950083 91.641499 
L 90.229421 86.368099 
L 93.50876 82.869081 
L 96.788099 80.132757 
L 100.067438 78.278232 
L 103.346777 77.186153 
L 106.626116 75.379313 
L 109.905455 73.146716 
L 113.184793 72.021768 
L 116.464132 71.409265 
L 119.743471 70.13016 
L 123.02281 69.349416 
L 126.302149 68.069464 
L 129.581488 67.9635 
L 132.860826 66.295535 
L 136.140165 66.508096 
L 139.419504 65.290886 
L 142.698843 64.418991 
L 145.978182 64.591044 
L 149.257521 64.566688 
L 152.53686 64.619478 
L 155.816198 64.400041 
L 159.095537 64.384395 
L 162.374876 63.652766 
L 165.654215 63.652766 
L 168.933554 63.252652 
L 172.212893 62.720618 
L 175.492231 62.720618 
L 178.77157 62.386285 
L 182.050909 62.081895 
L 185.330248 61.541056 
L 188.609587 60.98862 
L 191.888926 61.026483 
L 195.168264 60.728737 
L 198.447603 60.728737 
L 201.726942 60.414437 
L 205.006281 60.153543 
L 208.28562 60.143307 
L 211.564959 59.911481 
L 214.844298 59.911481 
L 218.123636 59.918746 
L 221.402975 59.7152 
L 224.682314 59.38552 
L 227.961653 59.38552 
L 231.240992 59.38552 
L 234.520331 59.417045 
L 237.799669 59.417045 
L 241.079008 58.89475 
L 244.358347 58.871006 
L 247.637686 58.455125 
L 250.917025 58.455125 
L 254.196364 58.465247 
L 257.475702 58.455125 
L 260.755041 58.455125 
L 264.03438 58.622495 
L 267.313719 58.600647 
L 270.593058 58.273362 
L 273.872397 57.961864 
L 277.151736 57.961864 
L 280.431074 57.740014 
L 283.710413 57.214173 
L 286.989752 56.899014 
L 290.269091 56.947692 
L 293.54843 56.947692 
L 296.827769 56.668134 
L 300.107107 56.668134 
L 303.386446 56.947692 
L 306.665785 57.013763 
L 309.945124 57.127729 
L 313.224463 57.580083 
L 316.503802 57.580083 
L 319.78314 57.580083 
L 323.062479 57.580083 
L 326.341818 57.580083 
L 329.621157 57.580083 
L 332.900496 57.257396 
L 336.179835 57.127729 
L 339.459174 57.127729 
L 342.738512 57.038189 
L 346.017851 57.038189 
L 349.29719 57.232886 
L 352.576529 57.232886 
L 355.855868 57.461567 
L 359.135207 57.461567 
L 362.414545 57.461567 
L 365.693884 57.188547 
L 368.973223 56.985001 
L 372.252562 57.172617 
L 375.531901 57.172617 
L 378.81124 57.138198 
L 382.090579 57.138198 
L 385.369917 57.138198 
L 388.649256 57.172617 
L 391.928595 56.817005 
L 395.207934 56.827128 
L 398.487273 56.817005 
L 398.487273 53.889193 
L 398.487273 53.889193 
L 395.207934 54.15209 
L 391.928595 53.889193 
L 388.649256 53.806601 
L 385.369917 53.568 
L 382.090579 53.568 
L 378.81124 53.568 
L 375.531901 53.806601 
L 372.252562 53.806601 
L 368.973223 53.994218 
L 365.693884 54.063691 
L 362.414545 54.336711 
L 359.135207 54.336711 
L 355.855868 54.336711 
L 352.576529 54.292372 
L 349.29719 54.292372 
L 346.017851 54.214049 
L 342.738512 54.214049 
L 339.459174 54.39753 
L 336.179835 54.39753 
L 332.900496 54.540882 
L 329.621157 54.491215 
L 326.341818 54.491215 
L 323.062479 54.491215 
L 319.78314 54.491215 
L 316.503802 54.491215 
L 313.224463 54.491215 
L 309.945124 54.39753 
L 306.665785 54.511495 
L 303.386446 54.850586 
L 300.107107 54.857125 
L 296.827769 54.857125 
L 293.54843 54.850586 
L 290.269091 54.850586 
L 286.989752 55.172284 
L 283.710413 55.403164 
L 280.431074 55.423363 
L 277.151736 55.474534 
L 273.872397 55.474534 
L 270.593058 55.436056 
L 267.313719 55.38179 
L 264.03438 55.905982 
L 260.755041 55.527312 
L 257.475702 55.527312 
L 254.196364 55.79021 
L 250.917025 55.527312 
L 247.637686 55.527312 
L 244.358347 55.930491 
L 241.079008 56.452786 
L 237.799669 56.476531 
L 234.520331 56.476531 
L 231.240992 56.781076 
L 227.961653 56.781076 
L 224.682314 56.781076 
L 221.402975 56.724417 
L 218.123636 56.79389 
L 214.844298 57.074175 
L 211.564959 57.074175 
L 208.28562 57.115369 
L 205.006281 56.832113 
L 201.726942 56.844239 
L 198.447603 57.075979 
L 195.168264 57.075979 
L 191.888926 57.051253 
L 188.609587 57.089116 
L 185.330248 57.35574 
L 182.050909 57.36094 
L 178.77157 57.60259 
L 175.492231 58.087317 
L 172.212893 58.087317 
L 168.933554 58.101323 
L 165.654215 58.247248 
L 162.374876 58.247248 
L 159.095537 58.334679 
L 155.816198 58.865072 
L 152.53686 58.918655 
L 149.257521 58.971445 
L 145.978182 59.22011 
L 142.698843 59.392162 
L 139.419504 59.885367 
L 136.140165 60.306276 
L 132.860826 60.245818 
L 129.581488 61.035032 
L 126.302149 60.929067 
L 123.02281 61.287235 
L 119.743471 61.87159 
L 116.464132 62.503625 
L 113.184793 62.983201 
L 109.905455 64.042413 
L 106.626116 65.359074 
L 103.346777 66.282434 
L 100.067438 67.374513 
L 96.788099 69.615287 
L 93.50876 71.247281 
L 90.229421 74.027721 
L 86.950083 78.036997 
L 83.670744 85.395886 
L 80.391405 103.260912 
L 77.112066 129.516796 
L 73.832727 228.201497 
z
" style="fill:#ff7f0e;fill-opacity:0.3;"/>
   </g>
   <g id="PolyCollection_3">
    <path clip-path="url(#pd7c3f59553)" d="M 73.832727 236.487901 
L 73.832727 295.488 
L 77.112066 166.324065 
L 80.391405 119.23813 
L 83.670744 104.273243 
L 86.950083 94.494606 
L 90.229421 86.665648 
L 93.50876 82.690018 
L 96.788099 81.319391 
L 100.067438 79.12287 
L 103.346777 77.261028 
L 106.626116 75.920416 
L 109.905455 74.069312 
L 113.184793 72.435257 
L 116.464132 71.378223 
L 119.743471 70.13016 
L 123.02281 69.829754 
L 126.302149 69.437091 
L 129.581488 68.144819 
L 132.860826 67.425849 
L 136.140165 66.644986 
L 139.419504 65.267535 
L 142.698843 65.324819 
L 145.978182 65.227998 
L 149.257521 64.852999 
L 152.53686 64.821522 
L 155.816198 64.825256 
L 159.095537 64.825256 
L 162.374876 64.752717 
L 165.654215 64.905544 
L 168.933554 64.531586 
L 172.212893 64.706305 
L 175.492231 65.233301 
L 178.77157 65.360083 
L 182.050909 65.409923 
L 185.330248 64.347883 
L 188.609587 63.94079 
L 191.888926 63.420803 
L 195.168264 63.420803 
L 198.447603 63.072727 
L 201.726942 62.430182 
L 205.006281 62.157162 
L 208.28562 62.118562 
L 211.564959 62.173715 
L 214.844298 61.937185 
L 218.123636 61.572522 
L 221.402975 61.529912 
L 224.682314 61.529912 
L 227.961653 61.529912 
L 231.240992 61.529912 
L 234.520331 61.777083 
L 237.799669 61.778147 
L 241.079008 61.786064 
L 244.358347 61.786064 
L 247.637686 61.808875 
L 250.917025 61.784188 
L 254.196364 61.804745 
L 257.475702 61.555987 
L 260.755041 61.555987 
L 264.03438 61.017228 
L 267.313719 61.017228 
L 270.593058 60.769103 
L 273.872397 60.284433 
L 277.151736 60.108036 
L 280.431074 60.108036 
L 283.710413 60.284433 
L 286.989752 60.284433 
L 290.269091 60.108036 
L 293.54843 59.868397 
L 296.827769 59.595378 
L 300.107107 59.595378 
L 303.386446 58.89475 
L 306.665785 58.992489 
L 309.945124 58.585811 
L 313.224463 58.585811 
L 316.503802 58.585811 
L 319.78314 58.585811 
L 323.062479 58.585811 
L 326.341818 58.385136 
L 329.621157 58.446449 
L 332.900496 58.446449 
L 336.179835 58.446449 
L 339.459174 58.293441 
L 342.738512 58.293441 
L 346.017851 58.293441 
L 349.29719 58.293441 
L 352.576529 58.56646 
L 355.855868 58.553646 
L 359.135207 58.602889 
L 362.414545 58.553646 
L 365.693884 58.553646 
L 368.973223 58.273362 
L 372.252562 58.273362 
L 375.531901 58.273362 
L 378.81124 58.020421 
L 382.090579 58.020421 
L 385.369917 58.020421 
L 388.649256 58.020421 
L 391.928595 58.020421 
L 395.207934 57.980399 
L 398.487273 58.020421 
L 398.487273 55.415977 
L 398.487273 55.415977 
L 395.207934 55.729019 
L 391.928595 55.415977 
L 388.649256 55.415977 
L 385.369917 55.415977 
L 382.090579 55.415977 
L 378.81124 55.415977 
L 375.531901 55.436056 
L 372.252562 55.436056 
L 368.973223 55.436056 
L 365.693884 55.428791 
L 362.414545 55.428791 
L 359.135207 55.106528 
L 355.855868 55.428791 
L 352.576529 55.962017 
L 349.29719 55.688997 
L 346.017851 55.688997 
L 342.738512 55.688997 
L 339.459174 55.688997 
L 336.179835 56.082028 
L 332.900496 56.082028 
L 329.621157 56.082028 
L 326.341818 56.416361 
L 323.062479 56.488706 
L 319.78314 56.488706 
L 316.503802 56.488706 
L 313.224463 56.488706 
L 309.945124 56.488706 
L 306.665785 56.628067 
L 303.386446 56.452786 
L 300.107107 56.025179 
L 296.827769 56.025179 
L 293.54843 56.298199 
L 290.269091 56.877621 
L 286.989752 56.974243 
L 283.710413 56.974243 
L 280.431074 56.877621 
L 277.151736 56.877621 
L 273.872397 56.974243 
L 270.593058 57.035612 
L 267.313719 56.514468 
L 264.03438 56.514468 
L 260.755041 56.521749 
L 257.475702 56.521749 
L 254.196364 56.54601 
L 250.917025 56.839587 
L 247.637686 57.08792 
L 244.358347 57.383751 
L 241.079008 57.383751 
L 237.799669 57.664688 
L 234.520331 57.119712 
L 231.240992 57.093864 
L 227.961653 57.093864 
L 224.682314 57.093864 
L 221.402975 57.093864 
L 218.123636 57.597293 
L 214.844298 57.77867 
L 211.564959 58.3612 
L 208.28562 58.143333 
L 205.006281 57.831713 
L 201.726942 58.104733 
L 198.447603 58.281247 
L 195.168264 57.933171 
L 191.888926 57.933171 
L 188.609587 57.959224 
L 185.330248 58.098171 
L 182.050909 58.401231 
L 178.77157 58.178051 
L 175.492231 58.304833 
L 172.212893 58.558809 
L 168.933554 58.733528 
L 165.654215 59.17863 
L 162.374876 59.058436 
L 159.095537 58.439858 
L 155.816198 58.439858 
L 152.53686 58.716612 
L 149.257521 59.231175 
L 145.978182 59.129195 
L 142.698843 59.578415 
L 139.419504 60.181738 
L 136.140165 59.896367 
L 132.860826 60.207583 
L 129.581488 60.307673 
L 126.302149 61.47258 
L 123.02281 61.352937 
L 119.743471 61.87159 
L 116.464132 62.261647 
L 113.184793 62.296693 
L 109.905455 63.665856 
L 106.626116 64.544951 
L 103.346777 65.115478 
L 100.067438 67.075915 
L 96.788099 69.247712 
L 93.50876 72.518424 
L 90.229421 75.095272 
L 86.950083 80.371268 
L 83.670744 91.069124 
L 80.391405 107.774545 
L 77.112066 140.68344 
L 73.832727 236.487901 
z
" style="fill:none;"/>
   </g>
   <g id="PolyCollection_4">
    <path clip-path="url(#pd7c3f59553)" d="M 73.832727 199.843011 
L 73.832727 246.677662 
L 77.112066 134.733213 
L 80.391405 105.648837 
L 83.670744 95.516426 
L 86.950083 86.317502 
L 90.229421 82.727977 
L 93.50876 79.465193 
L 96.788099 76.142713 
L 100.067438 75.206217 
L 103.346777 74.317471 
L 106.626116 72.512223 
L 109.905455 71.902813 
L 113.184793 70.942829 
L 116.464132 70.186968 
L 119.743471 68.855157 
L 123.02281 68.378408 
L 126.302149 66.076783 
L 129.581488 66.271269 
L 132.860826 65.758991 
L 136.140165 65.664105 
L 139.419504 65.552906 
L 142.698843 64.862062 
L 145.978182 64.674938 
L 149.257521 64.42263 
L 152.53686 64.42263 
L 155.816198 64.622097 
L 159.095537 64.621525 
L 162.374876 65.118065 
L 165.654215 64.572025 
L 168.933554 64.231298 
L 172.212893 63.733176 
L 175.492231 63.39475 
L 178.77157 63.217462 
L 182.050909 63.217462 
L 185.330248 62.537336 
L 188.609587 62.537336 
L 191.888926 61.884142 
L 195.168264 61.572522 
L 198.447603 61.572522 
L 201.726942 61.53466 
L 205.006281 61.233497 
L 208.28562 61.233497 
L 211.564959 60.960477 
L 214.844298 60.960477 
L 218.123636 60.98862 
L 221.402975 60.959088 
L 224.682314 60.687457 
L 227.961653 60.699583 
L 231.240992 60.191766 
L 234.520331 60.191766 
L 237.799669 59.65854 
L 241.079008 59.311888 
L 244.358347 58.83948 
L 247.637686 58.819401 
L 250.917025 58.765848 
L 254.196364 58.765848 
L 257.475702 58.286054 
L 260.755041 58.286054 
L 264.03438 57.980399 
L 267.313719 58.324966 
L 270.593058 58.324966 
L 273.872397 58.280626 
L 277.151736 58.280626 
L 280.431074 58.264696 
L 283.710413 57.62739 
L 286.989752 57.530416 
L 290.269091 57.559803 
L 293.54843 57.857249 
L 296.827769 57.973823 
L 300.107107 57.62739 
L 303.386446 57.62739 
L 306.665785 57.62739 
L 309.945124 57.62739 
L 313.224463 57.147035 
L 316.503802 57.057196 
L 319.78314 57.057196 
L 323.062479 57.147035 
L 326.341818 56.979763 
L 329.621157 56.807866 
L 332.900496 56.706743 
L 336.179835 56.807866 
L 339.459174 56.807866 
L 342.738512 57.293056 
L 346.017851 57.62739 
L 349.29719 57.802671 
L 352.576529 57.802671 
L 355.855868 58.020421 
L 359.135207 58.020421 
L 362.414545 58.020421 
L 365.693884 58.020421 
L 368.973223 58.020421 
L 372.252562 57.740014 
L 375.531901 57.740014 
L 378.81124 57.803436 
L 382.090579 57.803436 
L 385.369917 58.373294 
L 388.649256 58.686182 
L 391.928595 58.686182 
L 395.207934 59.011381 
L 398.487273 59.011381 
L 398.487273 54.971056 
L 398.487273 54.971056 
L 395.207934 54.971056 
L 391.928595 55.023236 
L 388.649256 55.023236 
L 385.369917 55.063104 
L 382.090579 55.086922 
L 378.81124 55.086922 
L 375.531901 55.423363 
L 372.252562 55.423363 
L 368.973223 55.415977 
L 365.693884 55.415977 
L 362.414545 55.415977 
L 359.135207 55.415977 
L 355.855868 55.415977 
L 352.576529 55.360707 
L 349.29719 55.360707 
L 346.017851 55.262968 
L 342.738512 55.324282 
L 339.459174 55.263432 
L 336.179835 55.263432 
L 332.900496 55.091535 
L 329.621157 55.263432 
L 326.341818 55.364555 
L 323.062479 55.197283 
L 319.78314 55.014102 
L 316.503802 55.014102 
L 313.224463 55.197283 
L 309.945124 55.262968 
L 306.665785 55.262968 
L 303.386446 55.262968 
L 300.107107 55.262968 
L 296.827769 55.189555 
L 293.54843 55.033109 
L 290.269091 55.057535 
L 286.989752 54.813902 
L 283.710413 55.262968 
L 280.431074 54.898681 
L 277.151736 55.155771 
L 273.872397 55.155771 
L 270.593058 55.384452 
L 267.313719 55.384452 
L 264.03438 55.729019 
L 260.755041 55.969403 
L 257.475702 55.969403 
L 254.196364 56.035649 
L 250.917025 56.035649 
L 247.637686 55.982095 
L 244.358347 56.235036 
L 241.079008 56.581689 
L 237.799669 57.054096 
L 234.520331 57.06691 
L 231.240992 57.06691 
L 227.961653 57.378153 
L 224.682314 57.117259 
L 221.402975 56.845628 
L 218.123636 57.089116 
L 214.844298 57.390279 
L 211.564959 57.390279 
L 208.28562 57.663298 
L 205.006281 57.663298 
L 201.726942 57.635156 
L 198.447603 57.597293 
L 195.168264 57.597293 
L 191.888926 57.558693 
L 188.609587 57.451539 
L 185.330248 57.451539 
L 182.050909 57.317452 
L 178.77157 57.317452 
L 175.492231 57.413184 
L 172.212893 57.347778 
L 168.933554 56.849656 
L 165.654215 57.327989 
L 162.374876 57.874029 
L 159.095537 58.097549 
L 155.816198 57.823957 
L 152.53686 57.204364 
L 149.257521 57.204364 
L 145.978182 57.498097 
L 142.698843 58.130032 
L 139.419504 58.804287 
L 136.140165 58.420068 
L 132.860826 59.144242 
L 129.581488 59.178004 
L 126.302149 59.37249 
L 123.02281 59.801063 
L 119.743471 59.870355 
L 116.464132 60.449683 
L 113.184793 60.785902 
L 109.905455 62.556117 
L 106.626116 63.038786 
L 103.346777 63.690717 
L 100.067438 64.44009 
L 96.788099 65.414734 
L 93.50876 68.371712 
L 90.229421 71.661405 
L 86.950083 75.170397 
L 83.670744 83.444747 
L 80.391405 95.972987 
L 77.112066 123.67675 
L 73.832727 199.843011 
z
" style="fill:none;"/>
   </g>
   <g id="matplotlib.axis_1">
    <g id="xtick_1">
     <g id="line2d_1">
      <path clip-path="url(#pd7c3f59553)" d="M 73.832727 307.584 
L 73.832727 41.472 
" style="fill:none;stroke:#b0b0b0;stroke-linecap:square;stroke-width:0.8;"/>
     </g>
     <g id="line2d_2">
      <defs>
       <path d="M 0 0 
L 0 3.5 
" id="mb0fe980d14" style="stroke:#000000;stroke-width:0.8;"/>
      </defs>
      <g>
       <use style="stroke:#000000;stroke-width:0.8;" x="73.832727" xlink:href="#mb0fe980d14" y="307.584"/>
      </g>
     </g>
     <g id="text_1">
      <!-- 0 -->
      <g transform="translate(70.651477 322.182437)scale(0.1 -0.1)">
       <defs>
        <path d="M 31.78125 66.40625 
Q 24.171875 66.40625 20.328125 58.90625 
Q 16.5 51.421875 16.5 36.375 
Q 16.5 21.390625 20.328125 13.890625 
Q 24.171875 6.390625 31.78125 6.390625 
Q 39.453125 6.390625 43.28125 13.890625 
Q 47.125 21.390625 47.125 36.375 
Q 47.125 51.421875 43.28125 58.90625 
Q 39.453125 66.40625 31.78125 66.40625 
z
M 31.78125 74.21875 
Q 44.046875 74.21875 50.515625 64.515625 
Q 56.984375 54.828125 56.984375 36.375 
Q 56.984375 17.96875 50.515625 8.265625 
Q 44.046875 -1.421875 31.78125 -1.421875 
Q 19.53125 -1.421875 13.0625 8.265625 
Q 6.59375 17.96875 6.59375 36.375 
Q 6.59375 54.828125 13.0625 64.515625 
Q 19.53125 74.21875 31.78125 74.21875 
z
" id="DejaVuSans-48"/>
       </defs>
       <use xlink:href="#DejaVuSans-48"/>
      </g>
     </g>
    </g>
    <g id="xtick_2">
     <g id="line2d_3">
      <path clip-path="url(#pd7c3f59553)" d="M 139.419504 307.584 
L 139.419504 41.472 
" style="fill:none;stroke:#b0b0b0;stroke-linecap:square;stroke-width:0.8;"/>
     </g>
     <g id="line2d_4">
      <g>
       <use style="stroke:#000000;stroke-width:0.8;" x="139.419504" xlink:href="#mb0fe980d14" y="307.584"/>
      </g>
     </g>
     <g id="text_2">
      <!-- 20 -->
      <g transform="translate(133.057004 322.182437)scale(0.1 -0.1)">
       <defs>
        <path d="M 19.1875 8.296875 
L 53.609375 8.296875 
L 53.609375 0 
L 7.328125 0 
L 7.328125 8.296875 
Q 12.9375 14.109375 22.625 23.890625 
Q 32.328125 33.6875 34.8125 36.53125 
Q 39.546875 41.84375 41.421875 45.53125 
Q 43.3125 49.21875 43.3125 52.78125 
Q 43.3125 58.59375 39.234375 62.25 
Q 35.15625 65.921875 28.609375 65.921875 
Q 23.96875 65.921875 18.8125 64.3125 
Q 13.671875 62.703125 7.8125 59.421875 
L 7.8125 69.390625 
Q 13.765625 71.78125 18.9375 73 
Q 24.125 74.21875 28.421875 74.21875 
Q 39.75 74.21875 46.484375 68.546875 
Q 53.21875 62.890625 53.21875 53.421875 
Q 53.21875 48.921875 51.53125 44.890625 
Q 49.859375 40.875 45.40625 35.40625 
Q 44.1875 33.984375 37.640625 27.21875 
Q 31.109375 20.453125 19.1875 8.296875 
z
" id="DejaVuSans-50"/>
       </defs>
       <use xlink:href="#DejaVuSans-50"/>
       <use x="63.623047" xlink:href="#DejaVuSans-48"/>
      </g>
     </g>
    </g>
    <g id="xtick_3">
     <g id="line2d_5">
      <path clip-path="url(#pd7c3f59553)" d="M 205.006281 307.584 
L 205.006281 41.472 
" style="fill:none;stroke:#b0b0b0;stroke-linecap:square;stroke-width:0.8;"/>
     </g>
     <g id="line2d_6">
      <g>
       <use style="stroke:#000000;stroke-width:0.8;" x="205.006281" xlink:href="#mb0fe980d14" y="307.584"/>
      </g>
     </g>
     <g id="text_3">
      <!-- 40 -->
      <g transform="translate(198.643781 322.182437)scale(0.1 -0.1)">
       <defs>
        <path d="M 37.796875 64.3125 
L 12.890625 25.390625 
L 37.796875 25.390625 
z
M 35.203125 72.90625 
L 47.609375 72.90625 
L 47.609375 25.390625 
L 58.015625 25.390625 
L 58.015625 17.1875 
L 47.609375 17.1875 
L 47.609375 0 
L 37.796875 0 
L 37.796875 17.1875 
L 4.890625 17.1875 
L 4.890625 26.703125 
z
" id="DejaVuSans-52"/>
       </defs>
       <use xlink:href="#DejaVuSans-52"/>
       <use x="63.623047" xlink:href="#DejaVuSans-48"/>
      </g>
     </g>
    </g>
    <g id="xtick_4">
     <g id="line2d_7">
      <path clip-path="url(#pd7c3f59553)" d="M 270.593058 307.584 
L 270.593058 41.472 
" style="fill:none;stroke:#b0b0b0;stroke-linecap:square;stroke-width:0.8;"/>
     </g>
     <g id="line2d_8">
      <g>
       <use style="stroke:#000000;stroke-width:0.8;" x="270.593058" xlink:href="#mb0fe980d14" y="307.584"/>
      </g>
     </g>
     <g id="text_4">
      <!-- 60 -->
      <g transform="translate(264.230558 322.182437)scale(0.1 -0.1)">
       <defs>
        <path d="M 33.015625 40.375 
Q 26.375 40.375 22.484375 35.828125 
Q 18.609375 31.296875 18.609375 23.390625 
Q 18.609375 15.53125 22.484375 10.953125 
Q 26.375 6.390625 33.015625 6.390625 
Q 39.65625 6.390625 43.53125 10.953125 
Q 47.40625 15.53125 47.40625 23.390625 
Q 47.40625 31.296875 43.53125 35.828125 
Q 39.65625 40.375 33.015625 40.375 
z
M 52.59375 71.296875 
L 52.59375 62.3125 
Q 48.875 64.0625 45.09375 64.984375 
Q 41.3125 65.921875 37.59375 65.921875 
Q 27.828125 65.921875 22.671875 59.328125 
Q 17.53125 52.734375 16.796875 39.40625 
Q 19.671875 43.65625 24.015625 45.921875 
Q 28.375 48.1875 33.59375 48.1875 
Q 44.578125 48.1875 50.953125 41.515625 
Q 57.328125 34.859375 57.328125 23.390625 
Q 57.328125 12.15625 50.6875 5.359375 
Q 44.046875 -1.421875 33.015625 -1.421875 
Q 20.359375 -1.421875 13.671875 8.265625 
Q 6.984375 17.96875 6.984375 36.375 
Q 6.984375 53.65625 15.1875 63.9375 
Q 23.390625 74.21875 37.203125 74.21875 
Q 40.921875 74.21875 44.703125 73.484375 
Q 48.484375 72.75 52.59375 71.296875 
z
" id="DejaVuSans-54"/>
       </defs>
       <use xlink:href="#DejaVuSans-54"/>
       <use x="63.623047" xlink:href="#DejaVuSans-48"/>
      </g>
     </g>
    </g>
    <g id="xtick_5">
     <g id="line2d_9">
      <path clip-path="url(#pd7c3f59553)" d="M 336.179835 307.584 
L 336.179835 41.472 
" style="fill:none;stroke:#b0b0b0;stroke-linecap:square;stroke-width:0.8;"/>
     </g>
     <g id="line2d_10">
      <g>
       <use style="stroke:#000000;stroke-width:0.8;" x="336.179835" xlink:href="#mb0fe980d14" y="307.584"/>
      </g>
     </g>
     <g id="text_5">
      <!-- 80 -->
      <g transform="translate(329.817335 322.182437)scale(0.1 -0.1)">
       <defs>
        <path d="M 31.78125 34.625 
Q 24.75 34.625 20.71875 30.859375 
Q 16.703125 27.09375 16.703125 20.515625 
Q 16.703125 13.921875 20.71875 10.15625 
Q 24.75 6.390625 31.78125 6.390625 
Q 38.8125 6.390625 42.859375 10.171875 
Q 46.921875 13.96875 46.921875 20.515625 
Q 46.921875 27.09375 42.890625 30.859375 
Q 38.875 34.625 31.78125 34.625 
z
M 21.921875 38.8125 
Q 15.578125 40.375 12.03125 44.71875 
Q 8.5 49.078125 8.5 55.328125 
Q 8.5 64.0625 14.71875 69.140625 
Q 20.953125 74.21875 31.78125 74.21875 
Q 42.671875 74.21875 48.875 69.140625 
Q 55.078125 64.0625 55.078125 55.328125 
Q 55.078125 49.078125 51.53125 44.71875 
Q 48 40.375 41.703125 38.8125 
Q 48.828125 37.15625 52.796875 32.3125 
Q 56.78125 27.484375 56.78125 20.515625 
Q 56.78125 9.90625 50.3125 4.234375 
Q 43.84375 -1.421875 31.78125 -1.421875 
Q 19.734375 -1.421875 13.25 4.234375 
Q 6.78125 9.90625 6.78125 20.515625 
Q 6.78125 27.484375 10.78125 32.3125 
Q 14.796875 37.15625 21.921875 38.8125 
z
M 18.3125 54.390625 
Q 18.3125 48.734375 21.84375 45.5625 
Q 25.390625 42.390625 31.78125 42.390625 
Q 38.140625 42.390625 41.71875 45.5625 
Q 45.3125 48.734375 45.3125 54.390625 
Q 45.3125 60.0625 41.71875 63.234375 
Q 38.140625 66.40625 31.78125 66.40625 
Q 25.390625 66.40625 21.84375 63.234375 
Q 18.3125 60.0625 18.3125 54.390625 
z
" id="DejaVuSans-56"/>
       </defs>
       <use xlink:href="#DejaVuSans-56"/>
       <use x="63.623047" xlink:href="#DejaVuSans-48"/>
      </g>
     </g>
    </g>
    <g id="xtick_6">
     <g id="line2d_11">
      <path clip-path="url(#pd7c3f59553)" d="M 401.766612 307.584 
L 401.766612 41.472 
" style="fill:none;stroke:#b0b0b0;stroke-linecap:square;stroke-width:0.8;"/>
     </g>
     <g id="line2d_12">
      <g>
       <use style="stroke:#000000;stroke-width:0.8;" x="401.766612" xlink:href="#mb0fe980d14" y="307.584"/>
      </g>
     </g>
     <g id="text_6">
      <!-- 100 -->
      <g transform="translate(392.222862 322.182437)scale(0.1 -0.1)">
       <defs>
        <path d="M 12.40625 8.296875 
L 28.515625 8.296875 
L 28.515625 63.921875 
L 10.984375 60.40625 
L 10.984375 69.390625 
L 28.421875 72.90625 
L 38.28125 72.90625 
L 38.28125 8.296875 
L 54.390625 8.296875 
L 54.390625 0 
L 12.40625 0 
z
" id="DejaVuSans-49"/>
       </defs>
       <use xlink:href="#DejaVuSans-49"/>
       <use x="63.623047" xlink:href="#DejaVuSans-48"/>
       <use x="127.246094" xlink:href="#DejaVuSans-48"/>
      </g>
     </g>
    </g>
    <g id="text_7">
     <!-- communication rounds -->
     <g transform="translate(178.785781 335.860562)scale(0.1 -0.1)">
      <defs>
       <path d="M 48.78125 52.59375 
L 48.78125 44.1875 
Q 44.96875 46.296875 41.140625 47.34375 
Q 37.3125 48.390625 33.40625 48.390625 
Q 24.65625 48.390625 19.8125 42.84375 
Q 14.984375 37.3125 14.984375 27.296875 
Q 14.984375 17.28125 19.8125 11.734375 
Q 24.65625 6.203125 33.40625 6.203125 
Q 37.3125 6.203125 41.140625 7.25 
Q 44.96875 8.296875 48.78125 10.40625 
L 48.78125 2.09375 
Q 45.015625 0.34375 40.984375 -0.53125 
Q 36.96875 -1.421875 32.421875 -1.421875 
Q 20.0625 -1.421875 12.78125 6.34375 
Q 5.515625 14.109375 5.515625 27.296875 
Q 5.515625 40.671875 12.859375 48.328125 
Q 20.21875 56 33.015625 56 
Q 37.15625 56 41.109375 55.140625 
Q 45.0625 54.296875 48.78125 52.59375 
z
" id="DejaVuSans-99"/>
       <path d="M 30.609375 48.390625 
Q 23.390625 48.390625 19.1875 42.75 
Q 14.984375 37.109375 14.984375 27.296875 
Q 14.984375 17.484375 19.15625 11.84375 
Q 23.34375 6.203125 30.609375 6.203125 
Q 37.796875 6.203125 41.984375 11.859375 
Q 46.1875 17.53125 46.1875 27.296875 
Q 46.1875 37.015625 41.984375 42.703125 
Q 37.796875 48.390625 30.609375 48.390625 
z
M 30.609375 56 
Q 42.328125 56 49.015625 48.375 
Q 55.71875 40.765625 55.71875 27.296875 
Q 55.71875 13.875 49.015625 6.21875 
Q 42.328125 -1.421875 30.609375 -1.421875 
Q 18.84375 -1.421875 12.171875 6.21875 
Q 5.515625 13.875 5.515625 27.296875 
Q 5.515625 40.765625 12.171875 48.375 
Q 18.84375 56 30.609375 56 
z
" id="DejaVuSans-111"/>
       <path d="M 52 44.1875 
Q 55.375 50.25 60.0625 53.125 
Q 64.75 56 71.09375 56 
Q 79.640625 56 84.28125 50.015625 
Q 88.921875 44.046875 88.921875 33.015625 
L 88.921875 0 
L 79.890625 0 
L 79.890625 32.71875 
Q 79.890625 40.578125 77.09375 44.375 
Q 74.3125 48.1875 68.609375 48.1875 
Q 61.625 48.1875 57.5625 43.546875 
Q 53.515625 38.921875 53.515625 30.90625 
L 53.515625 0 
L 44.484375 0 
L 44.484375 32.71875 
Q 44.484375 40.625 41.703125 44.40625 
Q 38.921875 48.1875 33.109375 48.1875 
Q 26.21875 48.1875 22.15625 43.53125 
Q 18.109375 38.875 18.109375 30.90625 
L 18.109375 0 
L 9.078125 0 
L 9.078125 54.6875 
L 18.109375 54.6875 
L 18.109375 46.1875 
Q 21.1875 51.21875 25.484375 53.609375 
Q 29.78125 56 35.6875 56 
Q 41.65625 56 45.828125 52.96875 
Q 50 49.953125 52 44.1875 
z
" id="DejaVuSans-109"/>
       <path d="M 8.5 21.578125 
L 8.5 54.6875 
L 17.484375 54.6875 
L 17.484375 21.921875 
Q 17.484375 14.15625 20.5 10.265625 
Q 23.53125 6.390625 29.59375 6.390625 
Q 36.859375 6.390625 41.078125 11.03125 
Q 45.3125 15.671875 45.3125 23.6875 
L 45.3125 54.6875 
L 54.296875 54.6875 
L 54.296875 0 
L 45.3125 0 
L 45.3125 8.40625 
Q 42.046875 3.421875 37.71875 1 
Q 33.40625 -1.421875 27.6875 -1.421875 
Q 18.265625 -1.421875 13.375 4.4375 
Q 8.5 10.296875 8.5 21.578125 
z
M 31.109375 56 
z
" id="DejaVuSans-117"/>
       <path d="M 54.890625 33.015625 
L 54.890625 0 
L 45.90625 0 
L 45.90625 32.71875 
Q 45.90625 40.484375 42.875 44.328125 
Q 39.84375 48.1875 33.796875 48.1875 
Q 26.515625 48.1875 22.3125 43.546875 
Q 18.109375 38.921875 18.109375 30.90625 
L 18.109375 0 
L 9.078125 0 
L 9.078125 54.6875 
L 18.109375 54.6875 
L 18.109375 46.1875 
Q 21.34375 51.125 25.703125 53.5625 
Q 30.078125 56 35.796875 56 
Q 45.21875 56 50.046875 50.171875 
Q 54.890625 44.34375 54.890625 33.015625 
z
" id="DejaVuSans-110"/>
       <path d="M 9.421875 54.6875 
L 18.40625 54.6875 
L 18.40625 0 
L 9.421875 0 
z
M 9.421875 75.984375 
L 18.40625 75.984375 
L 18.40625 64.59375 
L 9.421875 64.59375 
z
" id="DejaVuSans-105"/>
       <path d="M 34.28125 27.484375 
Q 23.390625 27.484375 19.1875 25 
Q 14.984375 22.515625 14.984375 16.5 
Q 14.984375 11.71875 18.140625 8.90625 
Q 21.296875 6.109375 26.703125 6.109375 
Q 34.1875 6.109375 38.703125 11.40625 
Q 43.21875 16.703125 43.21875 25.484375 
L 43.21875 27.484375 
z
M 52.203125 31.203125 
L 52.203125 0 
L 43.21875 0 
L 43.21875 8.296875 
Q 40.140625 3.328125 35.546875 0.953125 
Q 30.953125 -1.421875 24.3125 -1.421875 
Q 15.921875 -1.421875 10.953125 3.296875 
Q 6 8.015625 6 15.921875 
Q 6 25.140625 12.171875 29.828125 
Q 18.359375 34.515625 30.609375 34.515625 
L 43.21875 34.515625 
L 43.21875 35.40625 
Q 43.21875 41.609375 39.140625 45 
Q 35.0625 48.390625 27.6875 48.390625 
Q 23 48.390625 18.546875 47.265625 
Q 14.109375 46.140625 10.015625 43.890625 
L 10.015625 52.203125 
Q 14.9375 54.109375 19.578125 55.046875 
Q 24.21875 56 28.609375 56 
Q 40.484375 56 46.34375 49.84375 
Q 52.203125 43.703125 52.203125 31.203125 
z
" id="DejaVuSans-97"/>
       <path d="M 18.3125 70.21875 
L 18.3125 54.6875 
L 36.8125 54.6875 
L 36.8125 47.703125 
L 18.3125 47.703125 
L 18.3125 18.015625 
Q 18.3125 11.328125 20.140625 9.421875 
Q 21.96875 7.515625 27.59375 7.515625 
L 36.8125 7.515625 
L 36.8125 0 
L 27.59375 0 
Q 17.1875 0 13.234375 3.875 
Q 9.28125 7.765625 9.28125 18.015625 
L 9.28125 47.703125 
L 2.6875 47.703125 
L 2.6875 54.6875 
L 9.28125 54.6875 
L 9.28125 70.21875 
z
" id="DejaVuSans-116"/>
       <path id="DejaVuSans-32"/>
       <path d="M 41.109375 46.296875 
Q 39.59375 47.171875 37.8125 47.578125 
Q 36.03125 48 33.890625 48 
Q 26.265625 48 22.1875 43.046875 
Q 18.109375 38.09375 18.109375 28.8125 
L 18.109375 0 
L 9.078125 0 
L 9.078125 54.6875 
L 18.109375 54.6875 
L 18.109375 46.1875 
Q 20.953125 51.171875 25.484375 53.578125 
Q 30.03125 56 36.53125 56 
Q 37.453125 56 38.578125 55.875 
Q 39.703125 55.765625 41.0625 55.515625 
z
" id="DejaVuSans-114"/>
       <path d="M 45.40625 46.390625 
L 45.40625 75.984375 
L 54.390625 75.984375 
L 54.390625 0 
L 45.40625 0 
L 45.40625 8.203125 
Q 42.578125 3.328125 38.25 0.953125 
Q 33.9375 -1.421875 27.875 -1.421875 
Q 17.96875 -1.421875 11.734375 6.484375 
Q 5.515625 14.40625 5.515625 27.296875 
Q 5.515625 40.1875 11.734375 48.09375 
Q 17.96875 56 27.875 56 
Q 33.9375 56 38.25 53.625 
Q 42.578125 51.265625 45.40625 46.390625 
z
M 14.796875 27.296875 
Q 14.796875 17.390625 18.875 11.75 
Q 22.953125 6.109375 30.078125 6.109375 
Q 37.203125 6.109375 41.296875 11.75 
Q 45.40625 17.390625 45.40625 27.296875 
Q 45.40625 37.203125 41.296875 42.84375 
Q 37.203125 48.484375 30.078125 48.484375 
Q 22.953125 48.484375 18.875 42.84375 
Q 14.796875 37.203125 14.796875 27.296875 
z
" id="DejaVuSans-100"/>
       <path d="M 44.28125 53.078125 
L 44.28125 44.578125 
Q 40.484375 46.53125 36.375 47.5 
Q 32.28125 48.484375 27.875 48.484375 
Q 21.1875 48.484375 17.84375 46.4375 
Q 14.5 44.390625 14.5 40.28125 
Q 14.5 37.15625 16.890625 35.375 
Q 19.28125 33.59375 26.515625 31.984375 
L 29.59375 31.296875 
Q 39.15625 29.25 43.1875 25.515625 
Q 47.21875 21.78125 47.21875 15.09375 
Q 47.21875 7.46875 41.1875 3.015625 
Q 35.15625 -1.421875 24.609375 -1.421875 
Q 20.21875 -1.421875 15.453125 -0.5625 
Q 10.6875 0.296875 5.421875 2 
L 5.421875 11.28125 
Q 10.40625 8.6875 15.234375 7.390625 
Q 20.0625 6.109375 24.8125 6.109375 
Q 31.15625 6.109375 34.5625 8.28125 
Q 37.984375 10.453125 37.984375 14.40625 
Q 37.984375 18.0625 35.515625 20.015625 
Q 33.0625 21.96875 24.703125 23.78125 
L 21.578125 24.515625 
Q 13.234375 26.265625 9.515625 29.90625 
Q 5.8125 33.546875 5.8125 39.890625 
Q 5.8125 47.609375 11.28125 51.796875 
Q 16.75 56 26.8125 56 
Q 31.78125 56 36.171875 55.265625 
Q 40.578125 54.546875 44.28125 53.078125 
z
" id="DejaVuSans-115"/>
      </defs>
      <use xlink:href="#DejaVuSans-99"/>
      <use x="54.980469" xlink:href="#DejaVuSans-111"/>
      <use x="116.162109" xlink:href="#DejaVuSans-109"/>
      <use x="213.574219" xlink:href="#DejaVuSans-109"/>
      <use x="310.986328" xlink:href="#DejaVuSans-117"/>
      <use x="374.365234" xlink:href="#DejaVuSans-110"/>
      <use x="437.744141" xlink:href="#DejaVuSans-105"/>
      <use x="465.527344" xlink:href="#DejaVuSans-99"/>
      <use x="520.507812" xlink:href="#DejaVuSans-97"/>
      <use x="581.787109" xlink:href="#DejaVuSans-116"/>
      <use x="620.996094" xlink:href="#DejaVuSans-105"/>
      <use x="648.779297" xlink:href="#DejaVuSans-111"/>
      <use x="709.960938" xlink:href="#DejaVuSans-110"/>
      <use x="773.339844" xlink:href="#DejaVuSans-32"/>
      <use x="805.126953" xlink:href="#DejaVuSans-114"/>
      <use x="843.990234" xlink:href="#DejaVuSans-111"/>
      <use x="905.171875" xlink:href="#DejaVuSans-117"/>
      <use x="968.550781" xlink:href="#DejaVuSans-110"/>
      <use x="1031.929688" xlink:href="#DejaVuSans-100"/>
      <use x="1095.40625" xlink:href="#DejaVuSans-115"/>
     </g>
    </g>
   </g>
   <g id="matplotlib.axis_2">
    <g id="ytick_1">
     <g id="line2d_13">
      <path clip-path="url(#pd7c3f59553)" d="M 57.6 296.020139 
L 414.72 296.020139 
" style="fill:none;stroke:#b0b0b0;stroke-linecap:square;stroke-width:0.8;"/>
     </g>
     <g id="line2d_14">
      <defs>
       <path d="M 0 0 
L -3.5 0 
" id="m9f246d8952" style="stroke:#000000;stroke-width:0.8;"/>
      </defs>
      <g>
       <use style="stroke:#000000;stroke-width:0.8;" x="57.6" xlink:href="#m9f246d8952" y="296.020139"/>
      </g>
     </g>
     <g id="text_8">
      <!-- 0.75 -->
      <g transform="translate(28.334375 299.819358)scale(0.1 -0.1)">
       <defs>
        <path d="M 10.6875 12.40625 
L 21 12.40625 
L 21 0 
L 10.6875 0 
z
" id="DejaVuSans-46"/>
        <path d="M 8.203125 72.90625 
L 55.078125 72.90625 
L 55.078125 68.703125 
L 28.609375 0 
L 18.3125 0 
L 43.21875 64.59375 
L 8.203125 64.59375 
z
" id="DejaVuSans-55"/>
        <path d="M 10.796875 72.90625 
L 49.515625 72.90625 
L 49.515625 64.59375 
L 19.828125 64.59375 
L 19.828125 46.734375 
Q 21.96875 47.46875 24.109375 47.828125 
Q 26.265625 48.1875 28.421875 48.1875 
Q 40.625 48.1875 47.75 41.5 
Q 54.890625 34.8125 54.890625 23.390625 
Q 54.890625 11.625 47.5625 5.09375 
Q 40.234375 -1.421875 26.90625 -1.421875 
Q 22.3125 -1.421875 17.546875 -0.640625 
Q 12.796875 0.140625 7.71875 1.703125 
L 7.71875 11.625 
Q 12.109375 9.234375 16.796875 8.0625 
Q 21.484375 6.890625 26.703125 6.890625 
Q 35.15625 6.890625 40.078125 11.328125 
Q 45.015625 15.765625 45.015625 23.390625 
Q 45.015625 31 40.078125 35.4375 
Q 35.15625 39.890625 26.703125 39.890625 
Q 22.75 39.890625 18.8125 39.015625 
Q 14.890625 38.140625 10.796875 36.28125 
z
" id="DejaVuSans-53"/>
       </defs>
       <use xlink:href="#DejaVuSans-48"/>
       <use x="63.623047" xlink:href="#DejaVuSans-46"/>
       <use x="95.410156" xlink:href="#DejaVuSans-55"/>
       <use x="159.033203" xlink:href="#DejaVuSans-53"/>
      </g>
     </g>
    </g>
    <g id="ytick_2">
     <g id="line2d_15">
      <path clip-path="url(#pd7c3f59553)" d="M 57.6 241.68918 
L 414.72 241.68918 
" style="fill:none;stroke:#b0b0b0;stroke-linecap:square;stroke-width:0.8;"/>
     </g>
     <g id="line2d_16">
      <g>
       <use style="stroke:#000000;stroke-width:0.8;" x="57.6" xlink:href="#m9f246d8952" y="241.68918"/>
      </g>
     </g>
     <g id="text_9">
      <!-- 0.80 -->
      <g transform="translate(28.334375 245.488398)scale(0.1 -0.1)">
       <use xlink:href="#DejaVuSans-48"/>
       <use x="63.623047" xlink:href="#DejaVuSans-46"/>
       <use x="95.410156" xlink:href="#DejaVuSans-56"/>
       <use x="159.033203" xlink:href="#DejaVuSans-48"/>
      </g>
     </g>
    </g>
    <g id="ytick_3">
     <g id="line2d_17">
      <path clip-path="url(#pd7c3f59553)" d="M 57.6 187.35822 
L 414.72 187.35822 
" style="fill:none;stroke:#b0b0b0;stroke-linecap:square;stroke-width:0.8;"/>
     </g>
     <g id="line2d_18">
      <g>
       <use style="stroke:#000000;stroke-width:0.8;" x="57.6" xlink:href="#m9f246d8952" y="187.35822"/>
      </g>
     </g>
     <g id="text_10">
      <!-- 0.85 -->
      <g transform="translate(28.334375 191.157439)scale(0.1 -0.1)">
       <use xlink:href="#DejaVuSans-48"/>
       <use x="63.623047" xlink:href="#DejaVuSans-46"/>
       <use x="95.410156" xlink:href="#DejaVuSans-56"/>
       <use x="159.033203" xlink:href="#DejaVuSans-53"/>
      </g>
     </g>
    </g>
    <g id="ytick_4">
     <g id="line2d_19">
      <path clip-path="url(#pd7c3f59553)" d="M 57.6 133.02726 
L 414.72 133.02726 
" style="fill:none;stroke:#b0b0b0;stroke-linecap:square;stroke-width:0.8;"/>
     </g>
     <g id="line2d_20">
      <g>
       <use style="stroke:#000000;stroke-width:0.8;" x="57.6" xlink:href="#m9f246d8952" y="133.02726"/>
      </g>
     </g>
     <g id="text_11">
      <!-- 0.90 -->
      <g transform="translate(28.334375 136.826479)scale(0.1 -0.1)">
       <defs>
        <path d="M 10.984375 1.515625 
L 10.984375 10.5 
Q 14.703125 8.734375 18.5 7.8125 
Q 22.3125 6.890625 25.984375 6.890625 
Q 35.75 6.890625 40.890625 13.453125 
Q 46.046875 20.015625 46.78125 33.40625 
Q 43.953125 29.203125 39.59375 26.953125 
Q 35.25 24.703125 29.984375 24.703125 
Q 19.046875 24.703125 12.671875 31.3125 
Q 6.296875 37.9375 6.296875 49.421875 
Q 6.296875 60.640625 12.9375 67.421875 
Q 19.578125 74.21875 30.609375 74.21875 
Q 43.265625 74.21875 49.921875 64.515625 
Q 56.59375 54.828125 56.59375 36.375 
Q 56.59375 19.140625 48.40625 8.859375 
Q 40.234375 -1.421875 26.421875 -1.421875 
Q 22.703125 -1.421875 18.890625 -0.6875 
Q 15.09375 0.046875 10.984375 1.515625 
z
M 30.609375 32.421875 
Q 37.25 32.421875 41.125 36.953125 
Q 45.015625 41.5 45.015625 49.421875 
Q 45.015625 57.28125 41.125 61.84375 
Q 37.25 66.40625 30.609375 66.40625 
Q 23.96875 66.40625 20.09375 61.84375 
Q 16.21875 57.28125 16.21875 49.421875 
Q 16.21875 41.5 20.09375 36.953125 
Q 23.96875 32.421875 30.609375 32.421875 
z
" id="DejaVuSans-57"/>
       </defs>
       <use xlink:href="#DejaVuSans-48"/>
       <use x="63.623047" xlink:href="#DejaVuSans-46"/>
       <use x="95.410156" xlink:href="#DejaVuSans-57"/>
       <use x="159.033203" xlink:href="#DejaVuSans-48"/>
      </g>
     </g>
    </g>
    <g id="ytick_5">
     <g id="line2d_21">
      <path clip-path="url(#pd7c3f59553)" d="M 57.6 78.6963 
L 414.72 78.6963 
" style="fill:none;stroke:#b0b0b0;stroke-linecap:square;stroke-width:0.8;"/>
     </g>
     <g id="line2d_22">
      <g>
       <use style="stroke:#000000;stroke-width:0.8;" x="57.6" xlink:href="#m9f246d8952" y="78.6963"/>
      </g>
     </g>
     <g id="text_12">
      <!-- 0.95 -->
      <g transform="translate(28.334375 82.495519)scale(0.1 -0.1)">
       <use xlink:href="#DejaVuSans-48"/>
       <use x="63.623047" xlink:href="#DejaVuSans-46"/>
       <use x="95.410156" xlink:href="#DejaVuSans-57"/>
       <use x="159.033203" xlink:href="#DejaVuSans-53"/>
      </g>
     </g>
    </g>
    <g id="text_13">
     <!-- accuracy -->
     <g transform="translate(22.254687 197.087375)rotate(-90)scale(0.1 -0.1)">
      <defs>
       <path d="M 32.171875 -5.078125 
Q 28.375 -14.84375 24.75 -17.8125 
Q 21.140625 -20.796875 15.09375 -20.796875 
L 7.90625 -20.796875 
L 7.90625 -13.28125 
L 13.1875 -13.28125 
Q 16.890625 -13.28125 18.9375 -11.515625 
Q 21 -9.765625 23.484375 -3.21875 
L 25.09375 0.875 
L 2.984375 54.6875 
L 12.5 54.6875 
L 29.59375 11.921875 
L 46.6875 54.6875 
L 56.203125 54.6875 
z
" id="DejaVuSans-121"/>
      </defs>
      <use xlink:href="#DejaVuSans-97"/>
      <use x="61.279297" xlink:href="#DejaVuSans-99"/>
      <use x="116.259766" xlink:href="#DejaVuSans-99"/>
      <use x="171.240234" xlink:href="#DejaVuSans-117"/>
      <use x="234.619141" xlink:href="#DejaVuSans-114"/>
      <use x="275.732422" xlink:href="#DejaVuSans-97"/>
      <use x="337.011719" xlink:href="#DejaVuSans-99"/>
      <use x="391.992188" xlink:href="#DejaVuSans-121"/>
     </g>
    </g>
   </g>
   <g id="line2d_23">
    <path clip-path="url(#pd7c3f59553)" d="M 73.832727 254.132634 
L 77.112066 139.248987 
L 80.391405 106.775938 
L 83.670744 93.26824 
L 86.950083 83.580902 
L 90.229421 79.487661 
L 93.50876 76.349509 
L 96.788099 73.48424 
L 100.067438 71.983384 
L 103.346777 70.891853 
L 106.626116 68.981674 
L 109.905455 68.026584 
L 113.184793 67.207936 
L 116.464132 66.525729 
L 119.743471 66.389288 
L 123.02281 65.434198 
L 126.302149 65.024874 
L 129.581488 64.069784 
L 132.860826 63.796901 
L 136.140165 63.114694 
L 139.419504 63.524018 
L 142.698843 63.114694 
L 145.978182 63.114694 
L 149.257521 62.70537 
L 152.53686 62.432487 
L 155.816198 62.023163 
L 159.095537 61.477398 
L 162.374876 61.75028 
L 165.654215 61.75028 
L 168.933554 61.613839 
L 172.212893 61.477398 
L 175.492231 61.613839 
L 178.77157 61.477398 
L 182.050909 61.204515 
L 185.330248 60.658749 
L 188.609587 60.658749 
L 191.888926 60.658749 
L 195.168264 60.658749 
L 198.447603 60.522308 
L 201.726942 60.249425 
L 205.006281 60.112984 
L 208.28562 59.976542 
L 211.564959 59.976542 
L 214.844298 59.976542 
L 218.123636 60.112984 
L 221.402975 59.70366 
L 224.682314 59.430777 
L 227.961653 59.430777 
L 231.240992 59.157894 
L 234.520331 59.021453 
L 237.799669 58.885011 
L 241.079008 58.612129 
L 244.358347 58.612129 
L 247.637686 58.612129 
L 250.917025 58.612129 
L 254.196364 58.475687 
L 257.475702 58.339246 
L 260.755041 58.066363 
L 264.03438 57.657039 
L 267.313719 57.384156 
L 270.593058 57.247715 
L 273.872397 57.247715 
L 277.151736 57.247715 
L 280.431074 56.974832 
L 283.710413 56.974832 
L 286.989752 56.974832 
L 290.269091 56.838391 
L 293.54843 56.701949 
L 296.827769 56.701949 
L 300.107107 56.565508 
L 303.386446 56.565508 
L 306.665785 56.429066 
L 309.945124 56.292625 
L 313.224463 56.156184 
L 316.503802 56.019742 
L 319.78314 56.156184 
L 323.062479 56.019742 
L 326.341818 56.156184 
L 329.621157 56.156184 
L 332.900496 56.019742 
L 336.179835 56.019742 
L 339.459174 55.883301 
L 342.738512 55.883301 
L 346.017851 56.019742 
L 349.29719 56.019742 
L 352.576529 56.019742 
L 355.855868 56.019742 
L 359.135207 55.883301 
L 362.414545 55.746859 
L 365.693884 55.746859 
L 368.973223 55.473977 
L 372.252562 55.473977 
L 375.531901 55.473977 
L 378.81124 55.473977 
L 382.090579 55.473977 
L 385.369917 55.610418 
L 388.649256 55.473977 
L 391.928595 55.610418 
L 395.207934 55.473977 
L 398.487273 55.610418 
" style="fill:none;stroke:#1f77b4;stroke-linecap:square;stroke-width:1.5;"/>
   </g>
   <g id="line2d_24">
    <path clip-path="url(#pd7c3f59553)" d="M 73.832727 253.565545 
L 77.112066 138.624168 
L 80.391405 108.455469 
L 83.670744 93.302865 
L 86.950083 84.839248 
L 90.229421 80.19791 
L 93.50876 77.058181 
L 96.788099 74.874022 
L 100.067438 72.826373 
L 103.346777 71.734293 
L 106.626116 70.369194 
L 109.905455 68.594564 
L 113.184793 67.502485 
L 116.464132 66.956445 
L 119.743471 66.000875 
L 123.02281 65.318325 
L 126.302149 64.499266 
L 129.581488 64.499266 
L 132.860826 63.270676 
L 136.140165 63.407186 
L 139.419504 62.588127 
L 142.698843 61.905577 
L 145.978182 61.905577 
L 149.257521 61.769067 
L 152.53686 61.769067 
L 155.816198 61.632557 
L 159.095537 61.359537 
L 162.374876 60.950007 
L 165.654215 60.950007 
L 168.933554 60.676987 
L 172.212893 60.403967 
L 175.492231 60.403967 
L 178.77157 59.994437 
L 182.050909 59.721418 
L 185.330248 59.448398 
L 188.609587 59.038868 
L 191.888926 59.038868 
L 195.168264 58.902358 
L 198.447603 58.902358 
L 201.726942 58.629338 
L 205.006281 58.492828 
L 208.28562 58.629338 
L 211.564959 58.492828 
L 214.844298 58.492828 
L 218.123636 58.356318 
L 221.402975 58.219808 
L 224.682314 58.083298 
L 227.961653 58.083298 
L 231.240992 58.083298 
L 234.520331 57.946788 
L 237.799669 57.946788 
L 241.079008 57.673768 
L 244.358347 57.400748 
L 247.637686 56.991219 
L 250.917025 56.991219 
L 254.196364 57.127729 
L 257.475702 56.991219 
L 260.755041 56.991219 
L 264.03438 57.264239 
L 267.313719 56.991219 
L 270.593058 56.854709 
L 273.872397 56.718199 
L 277.151736 56.718199 
L 280.431074 56.581689 
L 283.710413 56.308669 
L 286.989752 56.035649 
L 290.269091 55.899139 
L 293.54843 55.899139 
L 296.827769 55.762629 
L 300.107107 55.762629 
L 303.386446 55.899139 
L 306.665785 55.762629 
L 309.945124 55.762629 
L 313.224463 56.035649 
L 316.503802 56.035649 
L 319.78314 56.035649 
L 323.062479 56.035649 
L 326.341818 56.035649 
L 329.621157 56.035649 
L 332.900496 55.899139 
L 336.179835 55.762629 
L 339.459174 55.762629 
L 342.738512 55.626119 
L 346.017851 55.626119 
L 349.29719 55.762629 
L 352.576529 55.762629 
L 355.855868 55.899139 
L 359.135207 55.899139 
L 362.414545 55.899139 
L 365.693884 55.626119 
L 368.973223 55.489609 
L 372.252562 55.489609 
L 375.531901 55.489609 
L 378.81124 55.353099 
L 382.090579 55.353099 
L 385.369917 55.353099 
L 388.649256 55.489609 
L 391.928595 55.353099 
L 395.207934 55.489609 
L 398.487273 55.353099 
" style="fill:none;stroke:#ff7f0e;stroke-linecap:square;stroke-opacity:0.8;stroke-width:1.5;"/>
   </g>
   <g id="line2d_25">
    <path clip-path="url(#pd7c3f59553)" d="M 73.832727 265.987951 
L 77.112066 153.503753 
L 80.391405 113.506337 
L 83.670744 97.671183 
L 86.950083 87.432937 
L 90.229421 80.88046 
L 93.50876 77.604221 
L 96.788099 75.283552 
L 100.067438 73.099393 
L 103.346777 71.188253 
L 106.626116 70.232684 
L 109.905455 68.867584 
L 113.184793 67.365975 
L 116.464132 66.819935 
L 119.743471 66.000875 
L 123.02281 65.591345 
L 126.302149 65.454835 
L 129.581488 64.226246 
L 132.860826 63.816716 
L 136.140165 63.270676 
L 139.419504 62.724636 
L 142.698843 62.451617 
L 145.978182 62.178597 
L 149.257521 62.042087 
L 152.53686 61.769067 
L 155.816198 61.632557 
L 159.095537 61.632557 
L 162.374876 61.905577 
L 165.654215 62.042087 
L 168.933554 61.632557 
L 172.212893 61.632557 
L 175.492231 61.769067 
L 178.77157 61.769067 
L 182.050909 61.905577 
L 185.330248 61.223027 
L 188.609587 60.950007 
L 191.888926 60.676987 
L 195.168264 60.676987 
L 198.447603 60.676987 
L 201.726942 60.267457 
L 205.006281 59.994437 
L 208.28562 60.130947 
L 211.564959 60.267457 
L 214.844298 59.857928 
L 218.123636 59.584908 
L 221.402975 59.311888 
L 224.682314 59.311888 
L 227.961653 59.311888 
L 231.240992 59.311888 
L 234.520331 59.448398 
L 237.799669 59.721418 
L 241.079008 59.584908 
L 244.358347 59.584908 
L 247.637686 59.448398 
L 250.917025 59.311888 
L 254.196364 59.175378 
L 257.475702 59.038868 
L 260.755041 59.038868 
L 264.03438 58.765848 
L 267.313719 58.765848 
L 270.593058 58.902358 
L 273.872397 58.629338 
L 277.151736 58.492828 
L 280.431074 58.492828 
L 283.710413 58.629338 
L 286.989752 58.629338 
L 290.269091 58.492828 
L 293.54843 58.083298 
L 296.827769 57.810278 
L 300.107107 57.810278 
L 303.386446 57.673768 
L 306.665785 57.810278 
L 309.945124 57.537258 
L 313.224463 57.537258 
L 316.503802 57.537258 
L 319.78314 57.537258 
L 323.062479 57.537258 
L 326.341818 57.400748 
L 329.621157 57.264239 
L 332.900496 57.264239 
L 336.179835 57.264239 
L 339.459174 56.991219 
L 342.738512 56.991219 
L 346.017851 56.991219 
L 349.29719 56.991219 
L 352.576529 57.264239 
L 355.855868 56.991219 
L 359.135207 56.854709 
L 362.414545 56.991219 
L 365.693884 56.991219 
L 368.973223 56.854709 
L 372.252562 56.854709 
L 375.531901 56.854709 
L 378.81124 56.718199 
L 382.090579 56.718199 
L 385.369917 56.718199 
L 388.649256 56.718199 
L 391.928595 56.718199 
L 395.207934 56.854709 
L 398.487273 56.718199 
" style="fill:none;stroke:#2ca02c;stroke-linecap:square;stroke-opacity:0.5;stroke-width:1.5;"/>
   </g>
   <g id="line2d_26">
    <path clip-path="url(#pd7c3f59553)" d="M 73.832727 223.260336 
L 77.112066 129.204982 
L 80.391405 100.810912 
L 83.670744 89.480586 
L 86.950083 80.74395 
L 90.229421 77.194691 
L 93.50876 73.918452 
L 96.788099 70.778723 
L 100.067438 69.823154 
L 103.346777 69.004094 
L 106.626116 67.775505 
L 109.905455 67.229465 
L 113.184793 65.864365 
L 116.464132 65.318325 
L 119.743471 64.362756 
L 123.02281 64.089736 
L 126.302149 62.724636 
L 129.581488 62.724636 
L 132.860826 62.451617 
L 136.140165 62.042087 
L 139.419504 62.178597 
L 142.698843 61.496047 
L 145.978182 61.086517 
L 149.257521 60.813497 
L 152.53686 60.813497 
L 155.816198 61.223027 
L 159.095537 61.359537 
L 162.374876 61.496047 
L 165.654215 60.950007 
L 168.933554 60.540477 
L 172.212893 60.540477 
L 175.492231 60.403967 
L 178.77157 60.267457 
L 182.050909 60.267457 
L 185.330248 59.994437 
L 188.609587 59.994437 
L 191.888926 59.721418 
L 195.168264 59.584908 
L 198.447603 59.584908 
L 201.726942 59.584908 
L 205.006281 59.448398 
L 208.28562 59.448398 
L 211.564959 59.175378 
L 214.844298 59.175378 
L 218.123636 59.038868 
L 221.402975 58.902358 
L 224.682314 58.902358 
L 227.961653 59.038868 
L 231.240992 58.629338 
L 234.520331 58.629338 
L 237.799669 58.356318 
L 241.079008 57.946788 
L 244.358347 57.537258 
L 247.637686 57.400748 
L 250.917025 57.400748 
L 254.196364 57.400748 
L 257.475702 57.127729 
L 260.755041 57.127729 
L 264.03438 56.854709 
L 267.313719 56.854709 
L 270.593058 56.854709 
L 273.872397 56.718199 
L 277.151736 56.718199 
L 280.431074 56.581689 
L 283.710413 56.445179 
L 286.989752 56.172159 
L 290.269091 56.308669 
L 293.54843 56.445179 
L 296.827769 56.581689 
L 300.107107 56.445179 
L 303.386446 56.445179 
L 306.665785 56.445179 
L 309.945124 56.445179 
L 313.224463 56.172159 
L 316.503802 56.035649 
L 319.78314 56.035649 
L 323.062479 56.172159 
L 326.341818 56.172159 
L 329.621157 56.035649 
L 332.900496 55.899139 
L 336.179835 56.035649 
L 339.459174 56.035649 
L 342.738512 56.308669 
L 346.017851 56.445179 
L 349.29719 56.581689 
L 352.576529 56.581689 
L 355.855868 56.718199 
L 359.135207 56.718199 
L 362.414545 56.718199 
L 365.693884 56.718199 
L 368.973223 56.718199 
L 372.252562 56.581689 
L 375.531901 56.581689 
L 378.81124 56.445179 
L 382.090579 56.445179 
L 385.369917 56.718199 
L 388.649256 56.854709 
L 391.928595 56.854709 
L 395.207934 56.991219 
L 398.487273 56.991219 
" style="fill:none;stroke:#d62728;stroke-linecap:square;stroke-opacity:0.5;stroke-width:1.5;"/>
   </g>
   <g id="patch_3">
    <path d="M 57.6 307.584 
L 57.6 41.472 
" style="fill:none;stroke:#000000;stroke-linecap:square;stroke-linejoin:miter;stroke-width:0.8;"/>
   </g>
   <g id="patch_4">
    <path d="M 414.72 307.584 
L 414.72 41.472 
" style="fill:none;stroke:#000000;stroke-linecap:square;stroke-linejoin:miter;stroke-width:0.8;"/>
   </g>
   <g id="patch_5">
    <path d="M 57.6 307.584 
L 414.72 307.584 
" style="fill:none;stroke:#000000;stroke-linecap:square;stroke-linejoin:miter;stroke-width:0.8;"/>
   </g>
   <g id="patch_6">
    <path d="M 57.6 41.472 
L 414.72 41.472 
" style="fill:none;stroke:#000000;stroke-linecap:square;stroke-linejoin:miter;stroke-width:0.8;"/>
   </g>
   <g id="legend_1">
    <g id="patch_7">
     <path d="M 339.309063 302.584 
L 407.72 302.584 
Q 409.72 302.584 409.72 300.584 
L 409.72 242.8715 
Q 409.72 240.8715 407.72 240.8715 
L 339.309063 240.8715 
Q 337.309063 240.8715 337.309063 242.8715 
L 337.309063 300.584 
Q 337.309063 302.584 339.309063 302.584 
z
" style="fill:#ffffff;opacity:0.8;stroke:#cccccc;stroke-linejoin:miter;"/>
    </g>
    <g id="line2d_27">
     <path d="M 341.309063 248.969937 
L 361.309063 248.969937 
" style="fill:none;stroke:#1f77b4;stroke-linecap:square;stroke-width:1.5;"/>
    </g>
    <g id="line2d_28"/>
    <g id="text_14">
     <!-- Central -->
     <g transform="translate(369.309063 252.469937)scale(0.1 -0.1)">
      <defs>
       <path d="M 64.40625 67.28125 
L 64.40625 56.890625 
Q 59.421875 61.53125 53.78125 63.8125 
Q 48.140625 66.109375 41.796875 66.109375 
Q 29.296875 66.109375 22.65625 58.46875 
Q 16.015625 50.828125 16.015625 36.375 
Q 16.015625 21.96875 22.65625 14.328125 
Q 29.296875 6.6875 41.796875 6.6875 
Q 48.140625 6.6875 53.78125 8.984375 
Q 59.421875 11.28125 64.40625 15.921875 
L 64.40625 5.609375 
Q 59.234375 2.09375 53.4375 0.328125 
Q 47.65625 -1.421875 41.21875 -1.421875 
Q 24.65625 -1.421875 15.125 8.703125 
Q 5.609375 18.84375 5.609375 36.375 
Q 5.609375 53.953125 15.125 64.078125 
Q 24.65625 74.21875 41.21875 74.21875 
Q 47.75 74.21875 53.53125 72.484375 
Q 59.328125 70.75 64.40625 67.28125 
z
" id="DejaVuSans-67"/>
       <path d="M 56.203125 29.59375 
L 56.203125 25.203125 
L 14.890625 25.203125 
Q 15.484375 15.921875 20.484375 11.0625 
Q 25.484375 6.203125 34.421875 6.203125 
Q 39.59375 6.203125 44.453125 7.46875 
Q 49.3125 8.734375 54.109375 11.28125 
L 54.109375 2.78125 
Q 49.265625 0.734375 44.1875 -0.34375 
Q 39.109375 -1.421875 33.890625 -1.421875 
Q 20.796875 -1.421875 13.15625 6.1875 
Q 5.515625 13.8125 5.515625 26.8125 
Q 5.515625 40.234375 12.765625 48.109375 
Q 20.015625 56 32.328125 56 
Q 43.359375 56 49.78125 48.890625 
Q 56.203125 41.796875 56.203125 29.59375 
z
M 47.21875 32.234375 
Q 47.125 39.59375 43.09375 43.984375 
Q 39.0625 48.390625 32.421875 48.390625 
Q 24.90625 48.390625 20.390625 44.140625 
Q 15.875 39.890625 15.1875 32.171875 
z
" id="DejaVuSans-101"/>
       <path d="M 9.421875 75.984375 
L 18.40625 75.984375 
L 18.40625 0 
L 9.421875 0 
z
" id="DejaVuSans-108"/>
      </defs>
      <use xlink:href="#DejaVuSans-67"/>
      <use x="69.824219" xlink:href="#DejaVuSans-101"/>
      <use x="131.347656" xlink:href="#DejaVuSans-110"/>
      <use x="194.726562" xlink:href="#DejaVuSans-116"/>
      <use x="233.935547" xlink:href="#DejaVuSans-114"/>
      <use x="275.048828" xlink:href="#DejaVuSans-97"/>
      <use x="336.328125" xlink:href="#DejaVuSans-108"/>
     </g>
    </g>
    <g id="line2d_29">
     <path d="M 341.309063 263.648062 
L 361.309063 263.648062 
" style="fill:none;stroke:#ff7f0e;stroke-linecap:square;stroke-opacity:0.8;stroke-width:1.5;"/>
    </g>
    <g id="line2d_30"/>
    <g id="text_15">
     <!-- IID -->
     <g transform="translate(369.309063 267.148062)scale(0.1 -0.1)">
      <defs>
       <path d="M 9.8125 72.90625 
L 19.671875 72.90625 
L 19.671875 0 
L 9.8125 0 
z
" id="DejaVuSans-73"/>
       <path d="M 19.671875 64.796875 
L 19.671875 8.109375 
L 31.59375 8.109375 
Q 46.6875 8.109375 53.6875 14.9375 
Q 60.6875 21.78125 60.6875 36.53125 
Q 60.6875 51.171875 53.6875 57.984375 
Q 46.6875 64.796875 31.59375 64.796875 
z
M 9.8125 72.90625 
L 30.078125 72.90625 
Q 51.265625 72.90625 61.171875 64.09375 
Q 71.09375 55.28125 71.09375 36.53125 
Q 71.09375 17.671875 61.125 8.828125 
Q 51.171875 0 30.078125 0 
L 9.8125 0 
z
" id="DejaVuSans-68"/>
      </defs>
      <use xlink:href="#DejaVuSans-73"/>
      <use x="29.492188" xlink:href="#DejaVuSans-73"/>
      <use x="58.984375" xlink:href="#DejaVuSans-68"/>
     </g>
    </g>
    <g id="line2d_31">
     <path d="M 341.309063 278.326187 
L 361.309063 278.326187 
" style="fill:none;stroke:#2ca02c;stroke-linecap:square;stroke-opacity:0.5;stroke-width:1.5;"/>
    </g>
    <g id="line2d_32"/>
    <g id="text_16">
     <!-- CI -->
     <g transform="translate(369.309063 281.826187)scale(0.1 -0.1)">
      <use xlink:href="#DejaVuSans-67"/>
      <use x="69.824219" xlink:href="#DejaVuSans-73"/>
     </g>
    </g>
    <g id="line2d_33">
     <path d="M 341.309063 293.004312 
L 361.309063 293.004312 
" style="fill:none;stroke:#d62728;stroke-linecap:square;stroke-opacity:0.5;stroke-width:1.5;"/>
    </g>
    <g id="line2d_34"/>
    <g id="text_17">
     <!-- SI -->
     <g transform="translate(369.309063 296.504312)scale(0.1 -0.1)">
      <defs>
       <path d="M 53.515625 70.515625 
L 53.515625 60.890625 
Q 47.90625 63.578125 42.921875 64.890625 
Q 37.9375 66.21875 33.296875 66.21875 
Q 25.25 66.21875 20.875 63.09375 
Q 16.5 59.96875 16.5 54.203125 
Q 16.5 49.359375 19.40625 46.890625 
Q 22.3125 44.4375 30.421875 42.921875 
L 36.375 41.703125 
Q 47.40625 39.59375 52.65625 34.296875 
Q 57.90625 29 57.90625 20.125 
Q 57.90625 9.515625 50.796875 4.046875 
Q 43.703125 -1.421875 29.984375 -1.421875 
Q 24.8125 -1.421875 18.96875 -0.25 
Q 13.140625 0.921875 6.890625 3.21875 
L 6.890625 13.375 
Q 12.890625 10.015625 18.65625 8.296875 
Q 24.421875 6.59375 29.984375 6.59375 
Q 38.421875 6.59375 43.015625 9.90625 
Q 47.609375 13.234375 47.609375 19.390625 
Q 47.609375 24.75 44.3125 27.78125 
Q 41.015625 30.8125 33.5 32.328125 
L 27.484375 33.5 
Q 16.453125 35.6875 11.515625 40.375 
Q 6.59375 45.0625 6.59375 53.421875 
Q 6.59375 63.09375 13.40625 68.65625 
Q 20.21875 74.21875 32.171875 74.21875 
Q 37.3125 74.21875 42.625 73.28125 
Q 47.953125 72.359375 53.515625 70.515625 
z
" id="DejaVuSans-83"/>
      </defs>
      <use xlink:href="#DejaVuSans-83"/>
      <use x="63.476562" xlink:href="#DejaVuSans-73"/>
     </g>
    </g>
   </g>
  </g>
 </g>
 <defs>
  <clipPath id="pd7c3f59553">
   <rect height="266.112" width="357.12" x="57.6" y="41.472"/>
  </clipPath>
 </defs>
</svg>
